<?xml version="1.0" encoding="UTF-8" standalone="no"?>
<!-- Created with Inkscape (http://www.inkscape.org/) -->

<svg
   xmlns:dc="http://purl.org/dc/elements/1.1/"
   xmlns:cc="http://creativecommons.org/ns#"
   xmlns:rdf="http://www.w3.org/1999/02/22-rdf-syntax-ns#"
   xmlns:svg="http://www.w3.org/2000/svg"
   xmlns="http://www.w3.org/2000/svg"
   xmlns:inkscape="http://www.inkscape.org/namespaces/inkscape"
   version="1.1"
   width="32"
   height="24"
   viewBox="0 0 32 24"
   id="ƒŒƒCƒ„[_1"
   xml:space="preserve"><metadata
   id="metadata11"><rdf:RDF><cc:Work
       rdf:about=""><dc:format>image/svg+xml</dc:format><dc:type
         rdf:resource="http://purl.org/dc/dcmitype/StillImage" /></cc:Work></rdf:RDF></metadata><defs
   id="defs9" />

<path
   d="M 16.001,0.858 C 8.792,0.858 2.927,5.856 2.927,12 C 2.927,18.144 8.792,23.142 16.001,23.142 C 23.21,23.142 29.076,18.144 29.076,12 C 29.076,5.856 23.211,0.858 16.001,0.858 z M 24.952,17.368 L 21.591,14.524 L 20.172,15.943 L 23.472,18.734 C 21.501,20.224 18.884,21.141 16.002,21.141 C 9.886,21.141 4.928,17.048 4.928,11.999 C 4.928,9.54 6.111,7.311 8.025,5.668 L 12.302,9.286 L 13.211,7.435 L 9.714,4.479 C 11.501,3.459 13.665,2.859 16.001,2.859 C 22.117,2.859 27.076,6.952 27.076,12.001 C 27.076,14.009 26.282,15.859 24.952,17.368 z M 20.215,9.722 L 15.652,9.722 L 18.133,4.649 L 15.692,4.649 L 12.368,11.423 L 16.508,11.423 L 14.986,13.582 L 11.751,13.582 L 14.788,19.914 L 21.119,13.582 L 17.576,13.582 z"
   inkscape:connector-curvature="0"
   id="path5" />
</svg>