<?xml version="1.0" encoding="utf-8"?>
<!-- Generator: Adobe Illustrator 15.0.0, SVG Export Plug-In . SVG Version: 6.00 Build 0)  -->
<!DOCTYPE svg PUBLIC "-//W3C//DTD SVG 1.0//EN" "http://www.w3.org/TR/2001/REC-SVG-20010904/DTD/svg10.dtd">
<svg version="1.0" id="ƒŒƒCƒ„[_1" xmlns="http://www.w3.org/2000/svg" xmlns:xlink="http://www.w3.org/1999/xlink" x="0px"
	 y="0px" width="68px" height="32px" viewBox="0 0 68 32" enable-background="new 0 0 68 32" xml:space="preserve">
<rect fill="#47484A" width="68" height="32"/>
<g>
	<path fill="#FFFFFF" d="M13.612,23.74v3.027H3.52v-3.326c2.109-2.701,3.746-5.035,4.91-7c1.2-2.018,1.8-3.732,1.8-5.144
		c0-2.243-0.885-3.364-2.655-3.364c-1.17,0-2.343,0.52-3.519,1.559L3.838,6.271c1.643-0.987,3.161-1.48,4.555-1.48
		c1.346,0,2.437,0.484,3.273,1.455c0.988,1.15,1.482,2.658,1.482,4.52c0,1.826-0.606,3.888-1.818,6.182
		c-1.303,2.46-2.8,4.725-4.492,6.793H13.612z"/>
	<path fill="#FFFFFF" d="M16.421,26.469l0.063-3.442c1.024,0.606,2.058,0.909,3.101,0.909c2.303,0,3.455-1.299,3.455-3.896
		c0-2.745-1.249-4.117-3.746-4.117c-0.818,0-1.694,0.174-2.627,0.52l0.127-11.209h8.665V8.22h-6.11l-0.1,4.87
		c0.691-0.095,1.224-0.143,1.6-0.143c1.376,0,2.549,0.589,3.518,1.767c1.073,1.299,1.609,3.022,1.609,5.169
		c0,2.252-0.555,4.035-1.664,5.352c-1.066,1.246-2.557,1.87-4.473,1.87c-0.751,0-1.606-0.134-2.564-0.402L16.421,26.469z"/>
	<path fill="#FFFFFF" d="M33.06,4.791c1.558,0,2.815,0.875,3.772,2.623c0.994,1.811,1.492,4.711,1.492,8.703
		c0,4.527-0.703,7.654-2.109,9.377c-0.886,1.073-1.94,1.61-3.164,1.61c-1.734,0-3.062-0.991-3.982-2.974
		c-0.843-1.811-1.264-4.473-1.264-7.988C27.805,8.574,29.557,4.791,33.06,4.791z M33.014,7.648c-1.643,0-2.463,2.9-2.463,8.701
		c0,5.266,0.839,7.897,2.518,7.897c1.667,0,2.5-2.632,2.5-7.897c0-3.67-0.281-6.143-0.846-7.416
		C34.348,8.076,33.777,7.648,33.014,7.648z"/>
	<path fill="#FFFFFF" d="M45.242,4.791c1.558,0,2.815,0.875,3.773,2.623c0.994,1.811,1.49,4.711,1.49,8.703
		c0,4.527-0.703,7.654-2.109,9.377c-0.885,1.073-1.939,1.61-3.164,1.61c-1.732,0-3.061-0.991-3.981-2.974
		c-0.843-1.811-1.265-4.473-1.265-7.988C39.986,8.574,41.738,4.791,45.242,4.791z M45.197,7.648c-1.643,0-2.465,2.9-2.465,8.701
		c0,5.266,0.84,7.897,2.519,7.897c1.667,0,2.501-2.632,2.501-7.897c0-3.67-0.282-6.143-0.846-7.416
		C46.529,8.076,45.961,7.648,45.197,7.648z"/>
	<path fill="#FFFFFF" d="M53.161,26.768V5.129h5.173c3.527,0,5.292,1.805,5.292,5.416c0,1.68-0.428,2.931-1.282,3.754
		c-0.516,0.492-1.33,0.879-2.445,1.155c1.049,0.233,1.84,0.532,2.373,0.896c1.278,0.867,1.918,2.382,1.918,4.547
		c0,2.676-0.973,4.477-2.918,5.402c-0.655,0.313-1.719,0.469-3.191,0.469H53.161z M55.898,14.077h2.1
		c1.928,0,2.891-0.991,2.891-2.974c0-2.018-0.927-3.027-2.781-3.027h-2.209V14.077z M55.898,23.832h2.127
		c2.279,0,3.418-1.16,3.418-3.481c0-2.294-1.069-3.442-3.209-3.442h-2.336V23.832z"/>
</g>
</svg>
