<?xml version="1.0" encoding="utf-8"?>
<!-- Generator: Adobe Illustrator 15.0.0, SVG Export Plug-In . SVG Version: 6.00 Build 0)  -->
<!DOCTYPE svg PUBLIC "-//W3C//DTD SVG 1.0//EN" "http://www.w3.org/TR/2001/REC-SVG-20010904/DTD/svg10.dtd">
<svg version="1.0" id="ƒŒƒCƒ„[_1" xmlns="http://www.w3.org/2000/svg" xmlns:xlink="http://www.w3.org/1999/xlink" x="0px"
	 y="0px" width="68px" height="32px" viewBox="0 0 68 32" enable-background="new 0 0 68 32" xml:space="preserve">
<rect fill="#47484A" width="68" height="32"/>
<g>
	<path fill="#FFFFFF" d="M3.866,26.416l0.136-3.221c1.079,0.589,2.167,0.883,3.264,0.883c2.364,0,3.546-1.174,3.546-3.52
		c0-2.295-1.282-3.442-3.846-3.442c-0.291,0-0.682,0.018-1.173,0.052v-3.104c0.236,0,0.424,0,0.563,0
		c2.892,0,4.337-1.125,4.337-3.377c0-1.922-0.997-2.883-2.991-2.883c-1.176,0-2.297,0.329-3.364,0.987L4.166,5.765
		c1.515-0.649,2.885-0.974,4.109-0.974c1.479,0,2.691,0.42,3.637,1.26c1.049,0.926,1.573,2.32,1.573,4.182
		c0,2.632-1.091,4.342-3.273,5.13c0.903,0.372,1.549,0.727,1.937,1.065c1.037,0.901,1.555,2.373,1.555,4.416
		c0,1.922-0.551,3.438-1.654,4.547c-1.134,1.143-2.649,1.713-4.546,1.713C6.302,27.104,5.09,26.875,3.866,26.416z"/>
	<path fill="#FFFFFF" d="M25.795,23.741v3.026H15.703v-3.326c2.109-2.701,3.746-5.035,4.91-7c1.2-2.018,1.8-3.732,1.8-5.144
		c0-2.243-0.885-3.364-2.655-3.364c-1.17,0-2.343,0.52-3.519,1.559l-0.218-3.221c1.643-0.987,3.161-1.481,4.555-1.481
		c1.346,0,2.437,0.485,3.273,1.455c0.988,1.151,1.482,2.658,1.482,4.52c0,1.827-0.606,3.888-1.818,6.183
		c-1.303,2.459-2.8,4.724-4.492,6.793L25.795,23.741L25.795,23.741z"/>
	<path fill="#FFFFFF" d="M33.06,4.791c1.558,0,2.815,0.875,3.773,2.624c0.994,1.81,1.491,4.71,1.491,8.702
		c0,4.527-0.703,7.654-2.109,9.377c-0.885,1.072-1.94,1.609-3.164,1.609c-1.733,0-3.061-0.992-3.982-2.974
		c-0.843-1.81-1.264-4.472-1.264-7.988C27.804,8.575,29.556,4.791,33.06,4.791z M33.014,7.648c-1.643,0-2.464,2.901-2.464,8.702
		c0,5.265,0.839,7.897,2.518,7.897c1.667,0,2.5-2.632,2.5-7.897c0-3.671-0.282-6.143-0.846-7.416
		C34.347,8.077,33.778,7.648,33.014,7.648z"/>
	<path fill="#FFFFFF" d="M45.242,4.791c1.558,0,2.814,0.875,3.773,2.624c0.993,1.81,1.49,4.71,1.49,8.702
		c0,4.527-0.703,7.654-2.109,9.377c-0.885,1.072-1.939,1.609-3.164,1.609c-1.732,0-3.061-0.992-3.981-2.974
		c-0.843-1.81-1.265-4.472-1.265-7.988C39.986,8.575,41.738,4.791,45.242,4.791z M45.197,7.648c-1.643,0-2.465,2.901-2.465,8.702
		c0,5.265,0.84,7.897,2.519,7.897c1.667,0,2.5-2.632,2.5-7.897c0-3.671-0.282-6.143-0.847-7.416
		C46.529,8.077,45.96,7.648,45.197,7.648z"/>
	<path fill="#FFFFFF" d="M53.161,26.768V5.128h5.173c3.527,0,5.292,1.805,5.292,5.416c0,1.68-0.429,2.931-1.282,3.754
		c-0.515,0.493-1.33,0.879-2.445,1.156c1.049,0.234,1.84,0.533,2.373,0.896c1.278,0.866,1.918,2.38,1.918,4.546
		c0,2.676-0.974,4.477-2.918,5.402c-0.655,0.313-1.719,0.469-3.191,0.469H53.161z M55.898,14.077h2.1
		c1.927,0,2.891-0.991,2.891-2.974c0-2.018-0.927-3.026-2.781-3.026h-2.209V14.077z M55.898,23.832h2.127
		c2.279,0,3.418-1.16,3.418-3.48c0-2.295-1.07-3.442-3.209-3.442h-2.336V23.832z"/>
</g>
</svg>
