<?xml version="1.0" encoding="utf-8"?>
<!-- Generator: Adobe Illustrator 15.0.0, SVG Export Plug-In . SVG Version: 6.00 Build 0)  -->
<!DOCTYPE svg PUBLIC "-//W3C//DTD SVG 1.0//EN" "http://www.w3.org/TR/2001/REC-SVG-20010904/DTD/svg10.dtd">
<svg version="1.0" id="ƒŒƒCƒ„[_1" xmlns="http://www.w3.org/2000/svg" xmlns:xlink="http://www.w3.org/1999/xlink" x="0px"
	 y="0px" width="68px" height="32px" viewBox="0 0 68 32" enable-background="new 0 0 68 32" xml:space="preserve">
<rect fill="#47484A" width="68" height="32"/>
<g>
	<path fill="#FFFFFF" d="M22.795,15.064c0.842,0.424,1.46,0.831,1.854,1.221c1,1.005,1.5,2.52,1.5,4.546
		c0,1.94-0.506,3.499-1.518,4.676c-0.921,1.065-2.155,1.599-3.7,1.599c-1.485,0-2.707-0.498-3.664-1.494
		c-1.097-1.151-1.646-2.711-1.646-4.676c0-2.703,1.055-4.534,3.164-5.495c-1.916-1.03-2.873-2.723-2.873-5.078
		c0-1.697,0.482-3.061,1.446-4.091c0.915-0.987,2.088-1.481,3.519-1.481c1.424,0,2.594,0.477,3.509,1.429
		c0.885,0.927,1.328,2.169,1.328,3.728C25.714,12.302,24.741,14.008,22.795,15.064z M20.577,16.986
		c-1.473,0.841-2.209,2.162-2.209,3.961c0,1.021,0.236,1.841,0.709,2.455c0.479,0.633,1.115,0.949,1.909,0.949
		c1.612,0,2.418-1.078,2.418-3.234c0-1.688-0.633-2.91-1.9-3.663C20.935,17.117,20.625,16.961,20.577,16.986z M21.077,14.116
		c1.376-0.952,2.064-2.195,2.064-3.728c0-1.931-0.754-2.896-2.264-2.896c-1.564,0-2.346,0.953-2.346,2.857
		c0,1.057,0.285,1.866,0.854,2.429c0.242,0.234,0.63,0.55,1.164,0.948L21.077,14.116z"/>
	<path fill="#FFFFFF" d="M33.06,4.791c1.558,0,2.815,0.875,3.773,2.624c0.994,1.81,1.491,4.71,1.491,8.702
		c0,4.527-0.703,7.654-2.109,9.377c-0.885,1.072-1.94,1.609-3.164,1.609c-1.733,0-3.061-0.992-3.982-2.974
		c-0.843-1.81-1.264-4.472-1.264-7.988C27.805,8.575,29.557,4.791,33.06,4.791z M33.015,7.648c-1.643,0-2.464,2.901-2.464,8.702
		c0,5.265,0.839,7.897,2.518,7.897c1.667,0,2.5-2.632,2.5-7.897c0-3.671-0.281-6.143-0.846-7.416
		C34.348,8.077,33.778,7.648,33.015,7.648z"/>
	<path fill="#FFFFFF" d="M45.243,4.791c1.558,0,2.815,0.875,3.772,2.624c0.994,1.81,1.491,4.71,1.491,8.702
		c0,4.527-0.702,7.654-2.108,9.377c-0.885,1.072-1.94,1.609-3.164,1.609c-1.733,0-3.062-0.992-3.982-2.974
		c-0.843-1.81-1.264-4.472-1.264-7.988C39.988,8.575,41.74,4.791,45.243,4.791z M45.198,7.648c-1.644,0-2.464,2.901-2.464,8.702
		c0,5.265,0.839,7.897,2.518,7.897c1.667,0,2.5-2.632,2.5-7.897c0-3.671-0.281-6.143-0.846-7.416
		C46.531,8.077,45.961,7.648,45.198,7.648z"/>
	<path fill="#FFFFFF" d="M53.162,26.768V5.128h5.173c3.526,0,5.292,1.805,5.292,5.416c0,1.68-0.428,2.931-1.281,3.754
		c-0.516,0.493-1.332,0.879-2.447,1.156c1.049,0.234,1.84,0.533,2.373,0.896c1.279,0.866,1.918,2.38,1.918,4.546
		c0,2.676-0.973,4.477-2.918,5.402c-0.654,0.313-1.717,0.469-3.19,0.469H53.162z M55.898,14.077h2.1
		c1.927,0,2.891-0.991,2.891-2.974c0-2.018-0.927-3.026-2.781-3.026h-2.209V14.077z M55.898,23.832h2.127
		c2.279,0,3.418-1.16,3.418-3.48c0-2.295-1.07-3.442-3.209-3.442h-2.336V23.832z"/>
</g>
</svg>
