<?xml version="1.0" encoding="utf-8"?>
<!-- Generator: Adobe Illustrator 21.0.0, SVG Export Plug-In . SVG Version: 6.00 Build 0)  -->
<svg version="1.0" id="ƒŒƒCƒ„[_1" xmlns="http://www.w3.org/2000/svg" xmlns:xlink="http://www.w3.org/1999/xlink" x="0px"
	 y="0px" width="198px" height="90px" viewBox="0 0 198 90" style="enable-background:new 0 0 198 90;" xml:space="preserve">
<style type="text/css">
	.st0{fill:#FFFFFF;}
</style>
<g>
	<path d="M65.6,66.6L48.4,22.6h-8.2L23.1,67.3H33L36.8,57h15l3.8,10.3h9.9h0.3h9.6V56.8h-9.9V66.6z M48.5,48.1h-8.6l3.1-8.5
		c0.4-1.1,0.8-2.2,1.1-3.2c0.3,0.9,0.7,2,1.1,3L48.5,48.1z"/>
	<path d="M103.4,45.7c3.8-1.9,5.8-5.4,5.8-10.3c0-4-1.4-7.2-4.1-9.6c-2.4-2.1-6.9-3.1-13.8-3.1H80.6v44.7h9.2V49.2h1
		c3.5,0,4.3,0.4,4.4,0.4c0,0,1,0.5,2.4,4.3l5.2,13.5h10.4l-7.4-17.6C105.2,48.1,104.4,46.8,103.4,45.7z M99.8,35.8
		c0,1.4-0.4,2.4-1.3,3.1c-0.3,0.3-1.8,1.2-7.5,1.2h-1.2v-8.5h1.8c4.4,0,6,0.5,6.6,0.9C98.9,32.9,99.8,33.6,99.8,35.8z"/>
	<polygon points="123.3,48.6 137.4,48.6 137.4,39.6 123.3,39.6 123.3,31.6 138.5,31.6 138.5,22.6 114.1,22.6 114.1,67.3 138.9,67.3 
		138.9,58.3 123.3,58.3 	"/>
	<path d="M172.3,55.7l-2.6,1.1c-2.6,1.1-5,1.7-7.1,1.7c-3.1,0-5.7-1-8-3.2c-2.8-2.6-4.1-6.1-4.1-10.6c0-3.6,0.9-6.6,2.6-8.9
		c2.3-3,5.2-4.5,9.1-4.5c2.2,0,4.5,0.7,6.7,2.1l2.8,1.7l0.8-10.1l-1.2-0.6c-2.8-1.4-5.8-2-9.1-2c-5,0-9.4,1.5-13.1,4.3
		c-5.4,4.1-8.1,10.2-8.1,18.1c0,5.4,1.3,10.1,3.9,14c3.9,5.9,9.9,8.9,17.8,8.9c3.1,0,6.1-0.5,8.9-1.5l1.4-0.5L172.3,55.7z"/>
</g>
<g>
	<path class="st0" d="M47.1,24.6l15.9,40.7h-5.9L53.2,55H35.4l-3.8,10.3H26l15.6-40.7H47.1z M51.4,50.1l-4.2-11.4
		c-1.5-4.1-2.5-7.1-3-9.1c-0.5,2-1.5,5.1-3,9.2l-4.1,11.2H51.4z"/>
	<path class="st0" d="M73.5,58.8v6.6h-5.9v-6.6H73.5z"/>
	<path class="st0" d="M82.6,24.6h8.8c6.3,0,10.4,0.9,12.4,2.6c2.3,2,3.4,4.7,3.4,8.1c0,5.3-2.6,8.4-7.8,9.5c1.9,1,3.4,2.9,4.6,5.6
		l6.2,14.8h-6l-4.7-12.2c-1.1-3-2.2-4.7-3.3-5.3c-0.8-0.4-2.6-0.7-5.3-0.7h-3v18.1h-5.2V24.6z M87.8,29.6v12.5H91
		c4.6,0,7.6-0.6,8.9-1.7c1.3-1.1,1.9-2.7,1.9-4.6c0-2.5-0.9-4.2-2.7-5.1c-1.3-0.7-3.9-1.1-7.6-1.1H87.8z"/>
	<path class="st0" d="M136.5,24.6v5h-15.1v12h14.1v5h-14.1v13.8h15.6v5h-20.8V24.6H136.5z"/>
	<path class="st0" d="M170.5,26.2l-0.4,5.5c-2.6-1.6-5.2-2.4-7.8-2.4c-4.5,0-8.1,1.8-10.7,5.3c-2,2.7-3,6.1-3,10.1c0,5,1.6,9,4.7,12
		c2.6,2.5,5.7,3.7,9.3,3.7c2.4,0,5-0.6,7.9-1.8l0.4,5.6c-2.5,0.9-5.3,1.4-8.2,1.4c-7.3,0-12.6-2.7-16.2-8c-2.4-3.6-3.6-7.9-3.6-12.9
		c0-7.2,2.5-12.7,7.4-16.5c3.4-2.6,7.4-3.9,11.9-3.9C165.3,24.4,168,25,170.5,26.2z"/>
</g>
<path d="M185,79H13V11h172V79z M183,13H15v64h168V13z"/>
<path class="st0" d="M183,77H15V13h168V77z M179,17H19v56h160V17z"/>
<path d="M179,17H19v56h160V17z M177,71H21V19h156V71z"/>
<polygon class="st0" points="19,17 19,17.7 171.1,73 179,73 179,72.3 26.9,17 "/>
<polygon points="179,72.3 179,70.2 32.4,17 26.9,17 "/>
<polygon points="19,17.7 19,19.8 165.6,73 171.1,73 "/>
</svg>
