<?xml version="1.0" encoding="utf-8"?>
<!-- Generator: Adobe Illustrator 21.0.0, SVG Export Plug-In . SVG Version: 6.00 Build 0)  -->
<svg version="1.0" id="ƒŒƒCƒ„[_1" xmlns="http://www.w3.org/2000/svg" xmlns:xlink="http://www.w3.org/1999/xlink" x="0px"
	 y="0px" width="70px" height="90px" viewBox="0 0 70 90" style="enable-background:new 0 0 70 90;" xml:space="preserve">
<style type="text/css">
	.st0{fill:#FFFFFF;}
</style>
<g>
	<path d="M37.6,15.4h-5.7V5.3h-8v1.3l-0.8-0.3c-2.1-0.8-4.1-1.2-6-1.2c-4,0-7.4,1.3-9.9,4c-2.5,2.6-3.7,6.1-3.7,10.4
		c0,4.8,1.5,8.5,4.4,11.1c2.5,2.2,5.7,3.4,9.5,3.4c1.7,0,3.6-0.3,5.7-0.8l0.8-0.2v0.9h8V23h5.7v10.7h8V5.3h-8V15.4z M21.7,25.5
		c-1.4,0.5-2.7,0.8-3.9,0.8c-1.8,0-3.3-0.6-4.3-1.9c-1.1-1.3-1.6-3-1.6-5.1c0-2.2,0.5-3.8,1.5-5c1-1.1,2.4-1.7,4.3-1.7
		c1.3,0,2.5,0.3,3.7,0.9l2.6,1.3l0-0.5v10.4L21.7,25.5z"/>
	<polygon points="53.5,16 53.5,33.7 61.8,33.7 61.8,5.3 55.3,5.3 45.9,12.5 50.6,18.4 	"/>
	<path d="M37.6,66.4h-5.7V56.3h-8v1.3l-0.8-0.3c-2.1-0.8-4.1-1.2-6-1.2c-4,0-7.4,1.3-9.9,4c-2.5,2.6-3.7,6.1-3.7,10.4
		c0,4.8,1.5,8.5,4.4,11.1c2.5,2.2,5.7,3.4,9.5,3.4c1.7,0,3.6-0.3,5.7-0.8l0.8-0.2v0.9h8V74h5.7v10.7h8V56.3h-8V66.4z M21.7,76.5
		c-1.4,0.5-2.7,0.8-3.9,0.8c-1.8,0-3.3-0.6-4.3-1.9c-1.1-1.3-1.6-3-1.6-5.1c0-2.2,0.5-3.8,1.5-5c1-1.1,2.4-1.7,4.3-1.7
		c1.3,0,2.5,0.3,3.7,0.9l2.6,1.3l0-0.5v10.4L21.7,76.5z"/>
	<path d="M58,77.3c1.4-1.4,2.6-2.9,3.8-4.5c2.2-3,3.3-5.6,3.3-8.2c0-2.7-1.1-5-3.1-6.7c-1.7-1.4-3.9-2.1-6.5-2.1
		c-2.5,0-5.2,0.6-8.1,1.8l-1.4,0.6l0.8,8.3l2.7-1.7c1.6-1,3.1-1.5,4.6-1.5c2.1,0,2.3,0.7,2.3,1.8c0,0.6-0.3,2-2.4,4.5
		c-1.8,2.1-4.4,4.7-7.7,7.7L45.7,78v6.6h20.3v-7.4H58z"/>
</g>
<g>
	<path class="st0" d="M22.4,27.3l0.2,3.8c-1.8,0.5-3.6,0.8-5.1,0.8c-3.3,0-6.1-1-8.2-2.9c-2.5-2.2-3.7-5.4-3.7-9.6
		c0-3.8,1.1-6.8,3.2-9c2.1-2.2,5-3.4,8.5-3.4c1.6,0,3.4,0.4,5.3,1.1l-0.3,3.5c-1.4-0.7-3-1.1-4.6-1.1c-2.5,0-4.4,0.8-5.8,2.4
		c-1.3,1.5-2,3.6-2,6.3c0,2.7,0.7,4.8,2.1,6.4c1.5,1.7,3.4,2.5,5.9,2.5C19.3,28.2,20.8,27.9,22.4,27.3z"/>
	<path class="st0" d="M43.6,31.7h-4V21h-9.7v10.7h-4V7.3h4v10.1h9.7V7.3h4V31.7z"/>
	<path class="st0" d="M59.8,31.7h-4.4V11.8l-4.6,3.8l-2.2-2.7L56,7.3h3.9V31.7z"/>
</g>
<g>
	<path class="st0" d="M22.4,78.3l0.2,3.8c-1.8,0.5-3.6,0.8-5.1,0.8c-3.3,0-6.1-1-8.2-2.9c-2.5-2.2-3.7-5.4-3.7-9.6
		c0-3.8,1.1-6.8,3.2-9c2.1-2.2,5-3.4,8.5-3.4c1.6,0,3.4,0.4,5.3,1.1l-0.3,3.5c-1.4-0.7-3-1.1-4.6-1.1c-2.5,0-4.4,0.8-5.8,2.4
		c-1.3,1.5-2,3.6-2,6.3c0,2.7,0.7,4.8,2.1,6.4c1.5,1.7,3.4,2.5,5.9,2.5C19.3,79.2,20.8,78.9,22.4,78.3z"/>
	<path class="st0" d="M43.6,82.7h-4V72h-9.7v10.7h-4V58.3h4v10.1h9.7V58.3h4V82.7z"/>
	<path class="st0" d="M63.9,79.3v3.4H47.7v-3.8c3.4-3,6-5.7,7.9-7.9c1.9-2.3,2.9-4.2,2.9-5.8c0-2.5-1.4-3.8-4.3-3.8
		c-1.9,0-3.8,0.6-5.7,1.8l-0.4-3.6c2.6-1.1,5.1-1.7,7.3-1.7c2.2,0,3.9,0.5,5.3,1.6c1.6,1.3,2.4,3,2.4,5.1c0,2.1-1,4.4-2.9,7
		c-2.1,2.8-4.5,5.3-7.2,7.7H63.9z"/>
</g>
</svg>
