<?xml version="1.0" encoding="utf-8"?>
<!-- Generator: Adobe Illustrator 15.0.0, SVG Export Plug-In . SVG Version: 6.00 Build 0)  -->
<!DOCTYPE svg PUBLIC "-//W3C//DTD SVG 1.0//EN" "http://www.w3.org/TR/2001/REC-SVG-20010904/DTD/svg10.dtd">
<svg version="1.0" id="ƒŒƒCƒ„[_1" xmlns="http://www.w3.org/2000/svg" xmlns:xlink="http://www.w3.org/1999/xlink" x="0px"
	 y="0px" width="64px" height="64px" viewBox="0 0 64 64" enable-background="new 0 0 64 64" xml:space="preserve">
<g>
	<path d="M32,60.2c-0.6,0-1.2-0.2-1.7-0.7L4.5,33.7c-0.9-0.9-0.9-2.4,0-3.3L30.3,4.5c0.4-0.4,1-0.7,1.7-0.7c0.6,0,1.2,0.2,1.7,0.7
		L59.6,30.4c0.4,0.4,0.7,1,0.7,1.7c0,0.6-0.2,1.2-0.7,1.7L33.7,59.5C33.2,60,32.6,60.2,32,60.2z"/>
	<path fill="#FFC500" d="M32,5.8c0.1,0,0.2,0,0.2,0.1L58.1,31.8c0.101,0.1,0.101,0.3,0,0.5L32.2,58.1C32.1,58.2,32.1,58.2,32,58.2
		s-0.2,0-0.2-0.101L5.9,32.2c-0.1-0.1-0.1-0.3,0-0.5L31.8,5.9C31.8,5.8,31.9,5.8,32,5.8 M32,1.8c-1.1,0-2.2,0.4-3.1,1.3L3.1,28.9
		c-1.7,1.7-1.7,4.4,0,6.1L29,60.9c0.8,0.8,2,1.3,3.1,1.3s2.2-0.4,3.1-1.3L61.1,35c1.7-1.7,1.7-4.4,0-6.1l-26-25.8
		C34.2,2.2,33.1,1.8,32,1.8L32,1.8z"/>
</g>
<circle fill="#FFC500" cx="32" cy="46.7" r="4.1"/>
<path fill="#FFC500" d="M32,40.2c-1.1,0-2-0.8-2.2-2.2c-0.3-1.4-2-18.2-2-19.9c0-1.8,1.4-4.2,4.2-4.2s4.2,2.4,4.2,4.2
	c0,1.7-1.7,18.5-2,19.9C34,39.4,33.1,40.2,32,40.2z"/>
</svg>
