<?xml version="1.0" encoding="utf-8"?>
<!-- Generator: Adobe Illustrator 15.0.0, SVG Export Plug-In . SVG Version: 6.00 Build 0)  -->
<!DOCTYPE svg PUBLIC "-//W3C//DTD SVG 1.0//EN" "http://www.w3.org/TR/2001/REC-SVG-20010904/DTD/svg10.dtd">
<svg version="1.0" id="ƒŒƒCƒ„[_1" xmlns="http://www.w3.org/2000/svg" xmlns:xlink="http://www.w3.org/1999/xlink" x="0px"
	 y="0px" width="100px" height="36px" viewBox="0 0 100 36" enable-background="new 0 0 100 36" xml:space="preserve">
<rect width="100" height="36"/>
<g>
	<path fill="#9D9D9D" d="M6.711,27.594V8.07h5.334c3.638,0,5.457,1.629,5.457,4.887c0,1.516-0.441,2.645-1.322,3.387
		c-0.531,0.445-1.372,0.793-2.521,1.043c1.081,0.211,1.896,0.48,2.446,0.809c1.319,0.781,1.979,2.148,1.979,4.102
		c0,2.414-1.003,4.039-3.01,4.875c-0.675,0.281-1.771,0.422-3.29,0.422H6.711z M9.533,16.145h2.165c1.987,0,2.981-0.895,2.981-2.684
		c0-1.82-0.956-2.73-2.869-2.73H9.533V16.145z M9.533,24.945h2.193c2.35,0,3.525-1.047,3.525-3.141c0-2.07-1.104-3.105-3.31-3.105
		H9.533V24.945z"/>
	<path fill="#9D9D9D" d="M35.361,27.594h-3.057l-1.406-4.547h-7.088l-1.378,4.547h-2.859L25.742,8.07h3.271L35.361,27.594z
		 M30.026,20.188l-2.185-7.359c-0.149-0.508-0.321-1.34-0.516-2.496c-0.193,1.164-0.394,2.102-0.6,2.813l-2.044,7.043H30.026z"/>
	<path fill="#9D9D9D" d="M48.768,24.113l0.122,3.023c-1.313,0.406-2.528,0.609-3.647,0.609c-2.375,0-4.321-0.762-5.841-2.285
		c-1.756-1.75-2.634-4.301-2.634-7.652c0-3.031,0.75-5.43,2.25-7.195c1.524-1.797,3.528-2.695,6.009-2.695
		c1.156,0,2.416,0.281,3.778,0.844l-0.216,2.813c-1.019-0.57-2.1-0.855-3.243-0.855c-1.763,0-3.135,0.629-4.116,1.887
		c-0.949,1.227-1.425,2.898-1.425,5.016c0,2.125,0.503,3.844,1.51,5.156c1.044,1.359,2.431,2.039,4.162,2.039
		C46.546,24.816,47.643,24.582,48.768,24.113z"/>
	<path fill="#9D9D9D" d="M54.063,16.543l0.112-0.141l0.104-0.152l0.666-0.891l5.391-7.289h3.318l-6.797,9.07l7.19,10.453H60.41
		l-5.512-8.098c-0.038-0.063-0.126-0.207-0.263-0.434c-0.15-0.242-0.344-0.535-0.581-0.879l0.009,0.082
		c0.025,0.891,0.038,1.426,0.038,1.605v7.723h-2.822V8.07h2.822v6.703C54.102,15.211,54.089,15.801,54.063,16.543z"/>
	<path fill="#9D9D9D" d="M79.227,16.426v10.313c-1.649,0.672-3.365,1.008-5.146,1.008c-3.325,0-5.672-1.254-7.041-3.762
		c-0.956-1.758-1.434-3.859-1.434-6.305c0-3.07,0.865-5.496,2.597-7.277c1.612-1.656,3.731-2.484,6.356-2.484
		c1.438,0,2.84,0.262,4.209,0.785l-0.169,2.977c-1.274-0.641-2.615-0.961-4.021-0.961c-1.862,0-3.307,0.59-4.331,1.77
		c-1.069,1.219-1.604,2.969-1.604,5.25c0,2.156,0.484,3.875,1.453,5.156c1.031,1.367,2.435,2.051,4.209,2.051
		c0.688,0,1.444-0.152,2.27-0.457v-5.203h-3.441v-2.859H79.227z"/>
	<path fill="#9D9D9D" d="M85.555,27.594h-2.85V8.07h5.466c3.737,0,5.606,1.691,5.606,5.074c0,2.523-1.244,4.074-3.731,4.652
		c0.712,0.258,1.231,0.625,1.556,1.102c0.275,0.406,0.575,1.098,0.9,2.074l2.213,6.621h-3.113l-1.734-5.566
		c-0.35-1.133-0.734-1.883-1.152-2.25c-0.363-0.32-0.95-0.48-1.763-0.48h-1.397V27.594z M85.527,16.648h2.09
		c2.094,0,3.141-1.008,3.141-3.023c0-1.898-0.959-2.848-2.878-2.848h-2.353V16.648z"/>
</g>
<polygon points="98,31.102 10.694,2 2,2 2,4.898 89.306,34 98,34 "/>
<path fill="#9D9D9D" d="M100,36H0V0h100V36z M98,2H2v32h96V2z"/>
<g>
	<g>
		<polygon fill="#9D9D9D" points="99,33.279 2.162,1 1,1 1,2.721 97.839,35 99,35 		"/>
	</g>
	<rect x="1" y="1" fill="none" width="98" height="34"/>
</g>
</svg>
