<?xml version="1.0" encoding="utf-8"?>
<!-- Generator: Adobe Illustrator 15.0.0, SVG Export Plug-In . SVG Version: 6.00 Build 0)  -->
<!DOCTYPE svg PUBLIC "-//W3C//DTD SVG 1.0//EN" "http://www.w3.org/TR/2001/REC-SVG-20010904/DTD/svg10.dtd">
<svg version="1.0" id="ƒŒƒCƒ„[_1" xmlns="http://www.w3.org/2000/svg" xmlns:xlink="http://www.w3.org/1999/xlink" x="0px"
	 y="0px" width="72px" height="34px" viewBox="0 0 72 34" enable-background="new 0 0 72 34" xml:space="preserve">
<rect fill="#47484A" width="72" height="34"/>
<g>
	<path fill="#FFFFFF" d="M25.149,23.956l0.165,3.274c-1.777,0.44-3.423,0.66-4.938,0.66c-3.216,0-5.853-0.824-7.909-2.476
		C10.089,23.52,8.9,20.756,8.9,17.125c0-3.284,1.016-5.882,3.047-7.795c2.065-1.946,4.778-2.92,8.138-2.92
		c1.566,0,3.271,0.305,5.116,0.914l-0.292,3.047c-1.379-0.618-2.844-0.927-4.393-0.927c-2.387,0-4.245,0.682-5.573,2.044
		c-1.287,1.329-1.93,3.14-1.93,5.434c0,2.303,0.681,4.164,2.044,5.586c1.414,1.473,3.292,2.209,5.637,2.209
		C22.14,24.719,23.625,24.464,25.149,23.956z"/>
	<path fill="#FFFFFF" d="M45.525,27.727h-3.821v-9.279h-9.331v9.279h-3.821V6.576h3.821v8.76h9.331v-8.76h3.821V27.727z"/>
	<path fill="#FFFFFF" d="M65.012,24.77v2.957H50.92v-3.25c2.945-2.641,5.23-4.922,6.855-6.843c1.676-1.972,2.514-3.647,2.514-5.027
		c0-2.192-1.236-3.288-3.707-3.288c-1.633,0-3.271,0.508-4.913,1.523l-0.306-3.148c2.294-0.965,4.414-1.447,6.361-1.447
		c1.879,0,3.401,0.474,4.569,1.422c1.379,1.126,2.069,2.599,2.069,4.418c0,1.786-0.846,3.8-2.539,6.043
		c-1.82,2.403-3.91,4.617-6.271,6.64H65.012L65.012,24.77z"/>
</g>
</svg>
