<?xml version="1.0" encoding="utf-8"?>
<!-- Generator: Adobe Illustrator 15.0.0, SVG Export Plug-In . SVG Version: 6.00 Build 0)  -->
<!DOCTYPE svg PUBLIC "-//W3C//DTD SVG 1.0//EN" "http://www.w3.org/TR/2001/REC-SVG-20010904/DTD/svg10.dtd">
<svg version="1.0" id="ƒŒƒCƒ„[_1" xmlns="http://www.w3.org/2000/svg" xmlns:xlink="http://www.w3.org/1999/xlink" x="0px"
	 y="0px" width="46px" height="24px" viewBox="0 0 46 24" enable-background="new 0 0 46 24" xml:space="preserve">
<rect fill="#303030" width="46" height="24"/>
<g>
	<path d="M14.961,18.271l0.12,2.771c-1.293,0.372-2.491,0.56-3.594,0.56c-2.34,0-4.259-0.699-5.755-2.096
		c-1.731-1.604-2.596-3.941-2.596-7.015c0-2.778,0.739-4.978,2.217-6.596c1.502-1.647,3.477-2.471,5.922-2.471
		c1.139,0,2.38,0.258,3.723,0.773l-0.212,2.578c-1.004-0.522-2.069-0.784-3.196-0.784c-1.737,0-3.089,0.576-4.056,1.729
		C6.598,8.844,6.13,10.377,6.13,12.318c0,1.948,0.496,3.523,1.487,4.727c1.029,1.246,2.396,1.869,4.102,1.869
		C12.772,18.915,13.853,18.7,14.961,18.271z"/>
	<path d="M29.789,21.461h-2.781v-7.854h-6.79v7.854h-2.781V3.564h2.781v7.412h6.79V3.564h2.781V21.461z"/>
</g>
<g>
	<path d="M43.221,18.958v2.503H32.488v-2.75c2.244-2.234,3.984-4.164,5.222-5.79c1.276-1.669,1.914-3.087,1.914-4.254
		c0-1.854-0.94-2.782-2.823-2.782c-1.244,0-2.49,0.43-3.74,1.289L32.828,4.51c1.746-0.816,3.361-1.225,4.844-1.225
		c1.43,0,2.59,0.401,3.48,1.203c1.05,0.952,1.574,2.198,1.574,3.738c0,1.511-0.645,3.216-1.934,5.113
		c-1.386,2.034-2.979,3.906-4.775,5.618L43.221,18.958L43.221,18.958z"/>
</g>
</svg>
