<?xml version="1.0" encoding="utf-8"?>
<!-- Generator: Adobe Illustrator 15.0.0, SVG Export Plug-In . SVG Version: 6.00 Build 0)  -->
<!DOCTYPE svg PUBLIC "-//W3C//DTD SVG 1.0//EN" "http://www.w3.org/TR/2001/REC-SVG-20010904/DTD/svg10.dtd">
<svg version="1.0" id="ƒŒƒCƒ„[_1" xmlns="http://www.w3.org/2000/svg" xmlns:xlink="http://www.w3.org/1999/xlink" x="0px"
	 y="0px" width="46px" height="24px" viewBox="0 0 46 24" enable-background="new 0 0 46 24" xml:space="preserve">
<rect fill="#9D9D9D" width="46" height="24"/>
<g>
	<path d="M14.961,18.271l0.12,2.771c-1.293,0.372-2.491,0.56-3.594,0.56c-2.34,0-4.259-0.699-5.755-2.096
		c-1.731-1.604-2.596-3.941-2.596-7.015c0-2.778,0.739-4.978,2.217-6.596c1.502-1.647,3.477-2.471,5.922-2.471
		c1.139,0,2.38,0.258,3.723,0.773l-0.212,2.578c-1.004-0.522-2.069-0.784-3.196-0.784c-1.737,0-3.089,0.576-4.056,1.729
		C6.598,8.844,6.13,10.377,6.13,12.318c0,1.948,0.496,3.523,1.487,4.727c1.029,1.246,2.396,1.869,4.102,1.869
		C12.772,18.915,13.853,18.7,14.961,18.271z"/>
	<path d="M29.789,21.461h-2.781v-7.854h-6.79v7.854h-2.781V3.564h2.781v7.412h6.79V3.564h2.781V21.461z"/>
</g>
<g>
	<path d="M40.514,21.461h-2.871V6.841l-3.026,2.814l-1.431-1.998l4.785-4.093h2.543V21.461L40.514,21.461z"/>
</g>
</svg>
