<?xml version="1.0" encoding="utf-8"?>
<!-- Generator: Adobe Illustrator 15.0.0, SVG Export Plug-In . SVG Version: 6.00 Build 0)  -->
<!DOCTYPE svg PUBLIC "-//W3C//DTD SVG 1.0//EN" "http://www.w3.org/TR/2001/REC-SVG-20010904/DTD/svg10.dtd">
<svg version="1.0" id="ƒŒƒCƒ„[_1" xmlns="http://www.w3.org/2000/svg" xmlns:xlink="http://www.w3.org/1999/xlink" x="0px"
	 y="0px" width="72px" height="34px" viewBox="0 0 72 34" enable-background="new 0 0 72 34" xml:space="preserve">
<rect fill="#47484A" width="72" height="34"/>
<g>
	<path fill="#FFFFFF" d="M25.149,23.956l0.165,3.274c-1.777,0.44-3.423,0.66-4.938,0.66c-3.216,0-5.853-0.824-7.909-2.476
		C10.089,23.52,8.9,20.756,8.9,17.125c0-3.284,1.016-5.882,3.047-7.795c2.065-1.946,4.778-2.92,8.138-2.92
		c1.566,0,3.271,0.305,5.116,0.914l-0.292,3.047c-1.379-0.618-2.844-0.927-4.393-0.927c-2.387,0-4.245,0.682-5.573,2.044
		c-1.287,1.329-1.93,3.14-1.93,5.434c0,2.303,0.681,4.164,2.044,5.586c1.414,1.473,3.292,2.209,5.637,2.209
		C22.14,24.719,23.625,24.464,25.149,23.956z"/>
	<path fill="#FFFFFF" d="M45.525,27.727h-3.821v-9.279h-9.331v9.279h-3.821V6.576h3.821v8.76h9.331v-8.76h3.821V27.727z"/>
	<path fill="#FFFFFF" d="M61.458,27.727h-3.771V10.448l-3.975,3.326l-1.879-2.361l6.284-4.837h3.339L61.458,27.727L61.458,27.727z"
		/>
</g>
</svg>
