<?xml version="1.0" encoding="utf-8"?>
<!-- Generator: Adobe Illustrator 15.0.0, SVG Export Plug-In . SVG Version: 6.00 Build 0)  -->
<!DOCTYPE svg PUBLIC "-//W3C//DTD SVG 1.0//EN" "http://www.w3.org/TR/2001/REC-SVG-20010904/DTD/svg10.dtd">
<svg version="1.0" id="ƒŒƒCƒ„[_1" xmlns="http://www.w3.org/2000/svg" xmlns:xlink="http://www.w3.org/1999/xlink" x="0px"
	 y="0px" width="62px" height="48px" viewBox="0 0 62 48" enable-background="new 0 0 62 48" xml:space="preserve">
<g>
	<g>
		<path d="M19.55,37.258h-3.959l-0.12-2.938c-1.046,2.168-3.013,3.254-5.901,3.254c-5.389,0-8.083-3.604-8.083-10.809
			c0-3.265,0.747-5.844,2.241-7.736c1.414-1.793,3.366-2.689,5.856-2.689c2.699,0,4.612,1.112,5.737,3.337
			c-0.1-2.047-0.149-3.431-0.149-4.15V7.375h4.244v24.089C19.416,33.113,19.461,35.044,19.55,37.258z M10.302,20.275
			c-2.919,0-4.378,2.203-4.378,6.607c0,4.66,1.549,6.989,4.646,6.989c1.613,0,2.834-0.725,3.661-2.176
			c0.677-1.194,1.016-2.717,1.016-4.564C15.247,22.561,13.599,20.275,10.302,20.275z"/>
		<path d="M38.373,32.561l0.09,3.834c-1.982,0.918-4.054,1.379-6.216,1.379c-3.067,0-5.434-0.946-7.097-2.84
			c-1.714-1.959-2.57-4.608-2.57-7.951c0-3.221,0.802-5.821,2.405-7.803c1.624-2.003,3.78-3.005,6.47-3.005
			c2.77,0,4.893,1.074,6.365,3.221c1.275,1.859,1.912,4.156,1.912,6.89c0,0.432-0.035,1.15-0.104,2.158H26.674
			c0.379,3.918,2.361,5.877,5.947,5.877C34.424,34.32,36.341,33.732,38.373,32.561z M35.729,25.255
			c-0.09-3.896-1.543-5.844-4.361-5.844c-2.76,0-4.344,1.948-4.752,5.844H35.729z"/>
		<path d="M55.611,16.755h3.99v18.063c0,7.459-3.162,11.188-9.488,11.188c-1.981,0-4.123-0.459-6.424-1.378l0.343-3.951
			c1.903,0.985,3.756,1.479,5.559,1.479c3.655,0,5.668-2.081,6.036-6.242c0.061-0.676,0.09-1.512,0.09-2.508
			c-1.016,2.58-3.033,3.869-6.051,3.869c-2.75,0-4.781-0.996-6.098-2.988c-1.274-1.926-1.911-4.434-1.911-7.521
			c0-6.938,2.709-10.409,8.128-10.409c2.72,0,4.65,1.151,5.797,3.453L55.611,16.755z M50.518,20.275
			c-2.949,0-4.422,2.136-4.422,6.409c0,4.494,1.518,6.739,4.557,6.739c1.574,0,2.793-0.69,3.66-2.075
			c0.737-1.173,1.105-2.662,1.105-4.466c0-1.991-0.413-3.563-1.24-4.715C53.271,20.906,52.051,20.275,50.518,20.275z"/>
	</g>
</g>
</svg>
