<?xml version="1.0" encoding="utf-8"?>
<!-- Generator: Adobe Illustrator 15.0.0, SVG Export Plug-In . SVG Version: 6.00 Build 0)  -->
<!DOCTYPE svg PUBLIC "-//W3C//DTD SVG 1.0//EN" "http://www.w3.org/TR/2001/REC-SVG-20010904/DTD/svg10.dtd">
<svg version="1.0" id="ƒŒƒCƒ„[_1" xmlns="http://www.w3.org/2000/svg" xmlns:xlink="http://www.w3.org/1999/xlink" x="0px"
	 y="0px" width="62px" height="48px" viewBox="0 0 62 48" enable-background="new 0 0 62 48" xml:space="preserve">
<g>
	<g>
		<path d="M27.86,37.391h-4.192l-0.127-3.111c-1.107,2.298-3.19,3.445-6.249,3.445c-5.706,0-8.559-3.813-8.559-11.443
			c0-3.456,0.791-6.187,2.373-8.19c1.497-1.898,3.564-2.848,6.201-2.848c2.858,0,4.883,1.178,6.075,3.533
			c-0.105-2.168-0.158-3.633-0.158-4.395V5.75h4.493v25.506C27.718,33.002,27.765,35.047,27.86,37.391z M18.067,19.408
			c-3.091,0-4.636,2.332-4.636,6.996c0,4.934,1.64,7.4,4.92,7.4c1.709,0,3.001-0.769,3.876-2.304
			c0.718-1.267,1.076-2.877,1.076-4.834C23.304,21.828,21.558,19.408,18.067,19.408z"/>
		<path d="M33.557,37.391V8.105h9.002c6.137,0,9.207,2.443,9.207,7.33c0,2.273-0.744,3.967-2.23,5.08
			c-0.896,0.668-2.314,1.189-4.256,1.564c1.824,0.316,3.201,0.721,4.129,1.213c2.226,1.172,3.339,3.224,3.339,6.151
			c0,3.621-1.692,6.06-5.079,7.313c-1.139,0.423-2.988,0.634-5.553,0.634H33.557L33.557,37.391z M38.316,20.217h3.654
			c3.354,0,5.031-1.342,5.031-4.025c0-2.73-1.613-4.096-4.841-4.096h-3.845V20.217L38.316,20.217z M38.316,33.418h3.703
			c3.965,0,5.947-1.57,5.947-4.711c0-3.105-1.861-4.658-5.584-4.658h-4.066V33.418z"/>
	</g>
</g>
</svg>
