<?xml version="1.0" encoding="utf-8"?>
<!-- Generator: Adobe Illustrator 15.0.0, SVG Export Plug-In . SVG Version: 6.00 Build 0)  -->
<!DOCTYPE svg PUBLIC "-//W3C//DTD SVG 1.0//EN" "http://www.w3.org/TR/2001/REC-SVG-20010904/DTD/svg10.dtd">
<svg version="1.0" id="ƒŒƒCƒ„[_1" xmlns="http://www.w3.org/2000/svg" xmlns:xlink="http://www.w3.org/1999/xlink" x="0px"
	 y="0px" width="60px" height="30px" viewBox="0 0 60 30" enable-background="new 0 0 60 30" xml:space="preserve">
<g>
	<path fill="#CCCCCC" d="M8.145,25.094V5.57h4.324c3.969,0,6.895,0.629,8.777,1.887c2.391,1.602,3.586,4.172,3.586,7.711
		c0,6.617-3.707,9.926-11.121,9.926H8.145z M11.672,22.434h0.281h0.129h0.27h0.422c5.516,0,8.273-2.363,8.273-7.09
		c0-2.25-0.68-4.008-2.039-5.273c-1.102-1.031-2.742-1.609-4.922-1.734c-0.648-0.039-1.453-0.066-2.414-0.082V22.434z"/>
	<path fill="#CCCCCC" d="M41.156,10.598v8.965l0.082,2.508c0.039,1.75,0.07,2.758,0.094,3.023h-3.094l-0.152-1.957
		c-1.102,1.461-2.656,2.191-4.664,2.191c-2.188,0-3.676-0.68-4.465-2.039c-0.578-1.008-0.867-2.492-0.867-4.453v-8.238h3.316v7.008
		c0,1.625,0.152,2.785,0.457,3.48c0.43,0.977,1.258,1.465,2.484,1.465c2.32,0,3.48-1.703,3.48-5.109v-6.844H41.156z"/>
	<path fill="#CCCCCC" d="M48.516,25.094h-3.316V14.828c0-1.438-0.035-2.848-0.105-4.23h2.953l0.07,3.48
		c0.414-1.008,0.824-1.758,1.23-2.25c0.742-0.898,1.797-1.348,3.164-1.348c0.313,0,0.641,0.039,0.984,0.117v3.117
		c-0.406-0.078-0.742-0.117-1.008-0.117c-2.648,0-3.973,1.898-3.973,5.695V25.094z"/>
</g>
</svg>
