<?xml version="1.0" encoding="utf-8"?>
<!-- Generator: Adobe Illustrator 15.0.0, SVG Export Plug-In . SVG Version: 6.00 Build 0)  -->
<!DOCTYPE svg PUBLIC "-//W3C//DTD SVG 1.0//EN" "http://www.w3.org/TR/2001/REC-SVG-20010904/DTD/svg10.dtd">
<svg version="1.0" id="ƒŒƒCƒ„[_1" xmlns="http://www.w3.org/2000/svg" xmlns:xlink="http://www.w3.org/1999/xlink" x="0px"
	 y="0px" width="62px" height="48px" viewBox="0 0 62 48" enable-background="new 0 0 62 48" xml:space="preserve">
<g>
	<g>
		<path d="M13.78,38.258H9.551V21.275h-3.81v-3.437h3.81v-0.249c0.04-1.527,0.1-2.645,0.18-3.354
			c0.448-3.995,2.52-5.993,6.215-5.993c0.697,0,1.499,0.105,2.406,0.315l-0.269,3.719c-0.369-0.077-0.697-0.116-0.986-0.116
			c-1.853,0-2.909,0.88-3.167,2.64c-0.1,0.697-0.149,1.71-0.149,3.038h4.348v3.437H13.78V38.258z"/>
		<path d="M25.523,46.675h-4.228V23.533c0-0.31-0.01-0.797-0.03-1.461c-0.04-1.073-0.084-2.523-0.134-4.35h4.019l0.09,3.254
			c1.315-2.391,3.322-3.586,6.021-3.586c2.379,0,4.233,0.797,5.557,2.391c1.604,1.915,2.406,4.626,2.406,8.135
			c0,7.128-2.764,10.691-8.292,10.691c-2.61,0-4.438-1.125-5.484-3.371c0.05,2.004,0.075,3.375,0.075,4.117L25.523,46.675
			L25.523,46.675z M30.275,21.325c-3.167,0-4.751,2.297-4.751,6.89c0,4.438,1.549,6.657,4.647,6.657
			c1.425,0,2.545-0.599,3.362-1.793c0.837-1.25,1.255-2.949,1.255-5.097C34.787,23.544,33.283,21.325,30.275,21.325z"/>
		<path d="M42.348,37.71l0.239-3.752c1.604,0.808,3.127,1.212,4.572,1.212c2.5,0,3.75-0.88,3.75-2.641
			c0-0.807-0.349-1.432-1.046-1.875c-0.448-0.276-1.215-0.62-2.301-1.029c-1.076-0.409-1.979-0.841-2.705-1.295
			c-1.645-1.029-2.465-2.59-2.465-4.682c0-2.147,0.836-3.791,2.51-4.931c1.334-0.896,2.963-1.345,4.886-1.345
			c1.435,0,2.993,0.255,4.677,0.764l-0.299,3.387c-1.375-0.465-2.7-0.697-3.975-0.697c-2.42,0-3.631,0.841-3.631,2.523
			c0,0.808,0.398,1.422,1.195,1.842c0.458,0.244,1.29,0.588,2.495,1.029c1.315,0.498,2.251,0.952,2.81,1.361
			c1.424,1.02,2.135,2.54,2.135,4.564c0,2.248-0.826,3.945-2.479,5.098c-1.325,0.93-2.964,1.395-4.916,1.395
			C46.316,38.641,44.5,38.33,42.348,37.71z"/>
	</g>
</g>
</svg>
