<?xml version="1.0" encoding="utf-8"?>
<!-- Generator: Adobe Illustrator 15.0.0, SVG Export Plug-In . SVG Version: 6.00 Build 0)  -->
<!DOCTYPE svg PUBLIC "-//W3C//DTD SVG 1.0//EN" "http://www.w3.org/TR/2001/REC-SVG-20010904/DTD/svg10.dtd">
<svg version="1.0" id="ƒŒƒCƒ„[_1" xmlns="http://www.w3.org/2000/svg" xmlns:xlink="http://www.w3.org/1999/xlink" x="0px"
	 y="0px" width="88px" height="32px" viewBox="0 0 88 32" enable-background="new 0 0 88 32" xml:space="preserve">
<rect fill="#47484A" width="88" height="32"/>
<g>
	<path fill="#FFFFFF" d="M29.749,26.768h-2.737v-9.496H20.33v9.496h-2.737V5.128h2.737v8.962h6.682V5.128h2.737V26.768z"/>
	<path fill="#FFFFFF" d="M36.44,26.768h-2.736V5.128h2.736V26.768z"/>
	<path fill="#FFFFFF" d="M52.878,14.389v11.429c-1.601,0.746-3.265,1.117-4.991,1.117c-3.225,0-5.5-1.39-6.829-4.168
		c-0.927-1.949-1.391-4.277-1.391-6.989c0-3.403,0.839-6.091,2.519-8.066c1.563-1.835,3.619-2.753,6.164-2.753
		c1.395,0,2.756,0.291,4.084,0.87L52.27,9.129c-1.236-0.71-2.537-1.065-3.9-1.065c-1.807,0-3.206,0.654-4.2,1.961
		c-1.037,1.351-1.555,3.291-1.555,5.819c0,2.39,0.47,4.294,1.409,5.714c1,1.516,2.361,2.273,4.083,2.273
		c0.666,0,1.399-0.169,2.199-0.506v-5.768h-3.336V14.39L52.878,14.389L52.878,14.389z"/>
	<path fill="#FFFFFF" d="M68.407,26.768H65.67v-9.496h-6.682v9.496h-2.737V5.128h2.737v8.962h6.682V5.128h2.737V26.768z"/>
</g>
</svg>
