<?xml version="1.0" encoding="utf-8"?>
<!-- Generator: Adobe Illustrator 15.0.0, SVG Export Plug-In . SVG Version: 6.00 Build 0)  -->
<!DOCTYPE svg PUBLIC "-//W3C//DTD SVG 1.0//EN" "http://www.w3.org/TR/2001/REC-SVG-20010904/DTD/svg10.dtd">
<svg version="1.0" id="ƒŒƒCƒ„[_1" xmlns="http://www.w3.org/2000/svg" xmlns:xlink="http://www.w3.org/1999/xlink" x="0px"
	 y="0px" width="68px" height="32px" viewBox="0 0 68 32" enable-background="new 0 0 68 32" xml:space="preserve">
<g>
	<path d="M13.614,27.992H9.205V3.588h4.409V27.992z"/>
	<path d="M18.843,26.396l1.729-3.561c2.441,1.416,4.36,2.124,5.757,2.124c2.666,0,3.999-1.123,3.999-3.369
		c0-1.133-0.43-2.046-1.289-2.739c-0.508-0.42-1.533-0.938-3.076-1.553c-2.842-1.133-4.731-2.368-5.669-3.706
		c-0.674-0.977-1.011-2.153-1.011-3.53c0-2.363,0.898-4.175,2.695-5.435c1.484-1.045,3.379-1.567,5.684-1.567
		c2.334,0,4.492,0.723,6.475,2.168l-1.919,3.237c-1.885-1.338-3.486-2.007-4.805-2.007c-0.938,0-1.768,0.273-2.49,0.82
		c-0.723,0.537-1.084,1.289-1.084,2.256c0,1.064,0.415,1.899,1.245,2.505c0.527,0.391,1.929,1.099,4.204,2.124
		c2.148,0.967,3.618,1.943,4.409,2.93c0.811,1.016,1.216,2.383,1.216,4.102c0,2.529-0.918,4.439-2.754,5.729
		c-1.504,1.064-3.555,1.598-6.152,1.598C23.389,28.52,21.001,27.813,18.843,26.396z"/>
	<path d="M50.557,3.061c3.037,0,5.576,0.82,7.617,2.461c2.9,2.334,4.352,5.742,4.352,10.225c0,4.015-1.147,7.188-3.442,9.521
		c-2.14,2.168-5.015,3.252-8.628,3.252c-3.662,0-6.577-1.162-8.745-3.485c-2.129-2.285-3.192-5.332-3.192-9.141
		c0-4.121,1.133-7.324,3.397-9.609C44.053,4.135,46.934,3.061,50.557,3.061z M50.367,6.415c-1.836,0-3.346,0.61-4.526,1.831
		c-1.719,1.768-2.577,4.282-2.577,7.544c0,2.627,0.575,4.8,1.729,6.519c1.279,1.904,3.125,2.856,5.537,2.856
		c2.354,0,4.18-0.952,5.479-2.856c1.191-1.758,1.787-3.91,1.787-6.459c0-2.637-0.605-4.829-1.816-6.577
		C54.668,7.367,52.798,6.415,50.367,6.415z"/>
</g>
</svg>
