<?xml version="1.0" encoding="utf-8"?>
<!-- Generator: Adobe Illustrator 15.0.0, SVG Export Plug-In . SVG Version: 6.00 Build 0)  -->
<!DOCTYPE svg PUBLIC "-//W3C//DTD SVG 1.0//EN" "http://www.w3.org/TR/2001/REC-SVG-20010904/DTD/svg10.dtd">
<svg version="1.0" id="ƒŒƒCƒ„[_1" xmlns="http://www.w3.org/2000/svg" xmlns:xlink="http://www.w3.org/1999/xlink" x="0px"
	 y="0px" width="100px" height="36px" viewBox="0 0 100 36" enable-background="new 0 0 100 36" xml:space="preserve">
<rect width="100" height="36"/>
<g>
	<path fill="#9D9D9D" d="M12.158,27.594H8.983V8.07h3.175V27.594z"/>
	<path fill="#9D9D9D" d="M31.216,27.594H27.23l-5.938-12c-0.176-0.352-0.852-1.896-2.025-4.629c0.295,2.742,0.443,4.879,0.443,6.41
		v10.219h-2.985V8.07h3.892l6.064,12.012c0.184,0.352,0.826,1.832,1.931,4.441c-0.07-0.883-0.127-1.543-0.169-1.98
		c-0.141-1.602-0.211-2.926-0.211-3.973V8.07h2.984V27.594z"/>
	<path fill="#9D9D9D" d="M41.984,27.594H38.81V10.941h-5.221V8.07h13.605v2.871h-5.21V27.594z"/>
	<path fill="#9D9D9D" d="M52.773,27.594h-3.207V8.07h6.148c4.205,0,6.309,1.691,6.309,5.074c0,2.523-1.399,4.074-4.198,4.652
		c0.802,0.258,1.386,0.625,1.751,1.103c0.311,0.406,0.646,1.098,1.013,2.074l2.489,6.621h-3.502l-1.951-5.566
		c-0.395-1.133-0.826-1.883-1.297-2.25c-0.408-0.32-1.069-0.48-1.982-0.48h-1.572V27.594L52.773,27.594z M52.742,16.648h2.352
		c2.355,0,3.533-1.008,3.533-3.023c0-1.898-1.079-2.848-3.236-2.848h-2.647L52.742,16.648L52.742,16.648z"/>
	<path fill="#9D9D9D" d="M74.132,27.594h-4.05L63.88,8.07h3.354l3.859,12.727c0.141,0.461,0.514,1.777,1.117,3.949
		c0.781-2.813,1.176-4.23,1.182-4.254L77.116,8.07h3.102L74.132,27.594z"/>
	<path fill="#9D9D9D" d="M92.926,24.723v2.871H82.632V8.07h3.175v16.653H92.926L92.926,24.723z"/>
</g>
<path fill="#9D9D9D" d="M100,36H0V0h100V36z M98,2H2v32h96V2z"/>
</svg>
