<?xml version="1.0" encoding="utf-8"?>
<!-- Generator: Adobe Illustrator 21.1.0, SVG Export Plug-In . SVG Version: 6.00 Build 0)  -->
<svg version="1.0" id="ƒŒƒCƒ„[_1" xmlns="http://www.w3.org/2000/svg" xmlns:xlink="http://www.w3.org/1999/xlink" x="0px"
	 y="0px" width="90px" height="56px" viewBox="0 0 90 56" style="enable-background:new 0 0 90 56;" xml:space="preserve">
<style type="text/css">
	.st0{fill:#FFD800;}
	.st1{fill:#777777;}
</style>
<g>
	<rect x="2" y="40" class="st0" width="15" height="14"/>
	<path d="M18.5,55.5h-18v-17h18V55.5z M3.5,52.5h12v-11h-12V52.5z"/>
</g>
<g>
	<rect x="25" y="26" class="st1" width="15" height="28"/>
	<path d="M41.5,55.5h-18v-31h18V55.5z M26.5,52.5h12v-25h-12V52.5z"/>
</g>
<g>
	<rect x="49" y="12" class="st1" width="15" height="42"/>
	<path d="M65.5,55.5h-18v-45h18V55.5z M50.5,52.5h12v-39h-12V52.5z"/>
</g>
<g>
	<rect x="73" y="2" class="st1" width="15" height="52"/>
	<path d="M89.5,55.5h-18v-55h18V55.5z M74.5,52.5h12v-49h-12V52.5z"/>
</g>
</svg>
