<?xml version="1.0" encoding="utf-8"?>
<!-- Generator: Adobe Illustrator 21.1.0, SVG Export Plug-In . SVG Version: 6.00 Build 0)  -->
<svg version="1.0" id="ƒŒƒCƒ„[_1" xmlns="http://www.w3.org/2000/svg" xmlns:xlink="http://www.w3.org/1999/xlink" x="0px"
	 y="0px" width="44px" height="36px" viewBox="0 0 44 36" style="enable-background:new 0 0 44 36;" xml:space="preserve">
<style type="text/css">
	.st0{fill:#FFD800;}
	.st1{fill:#FFFFFF;}
</style>
<g>
	<path class="st0" d="M24,33.5V21.7h4.7v-0.8h-1.6v-0.8h-1.6v0.8h-7.9v-0.8h-0.8v0.8h-1.6v0.8H20v11.8H5.1V21.7h5.5v-0.8H9v-0.8H3.5
		v-4.7H9v-0.8h5.5V2.8h14.9v11.8H35v0.8h5.5v4.7H35v0.8h-1.6v0.8h5.5v11.8H24z M34.2,28.8v-2.4h-5.5v2.4H34.2z M15.3,28.8v-2.4H9.8
		v2.4H15.3z M27.1,15.4v-0.8h-1.6v0.8H27.1z M17.7,15.4v-0.8h-0.8v0.8H17.7z M24.8,9.9V7.5h-5.5v2.4H24.8z"/>
	<path d="M28.3,4v9.4h-5.5v2.4h1.6v0.8h3.9v-0.8h5.5v0.8h5.5v2.4h-5.5v0.8h-1.6v3.1h5.5v9.4H25.1v-9.4h4.7v-3.1h-1.6v-0.8h-3.9v0.8
		h-5.5v-0.8h-3.1v0.8h-1.6v3.1h4.7v9.4H6.3v-9.4h5.5v-3.1h-1.6v-0.8H4.7v-2.4h5.5v-0.8h5.5v0.8h3.1v-0.8h1.6v-2.4h-4.7V4H28.3
		 M18.1,11.1h7.9V6.4h-7.9V11.1 M27.5,29.9h7.9v-4.7h-7.9V29.9 M8.6,29.9h7.9v-4.7H8.6V29.9 M30.6,1.6h-2.4H15.7h-2.4V4v9.4h-3.1
		H7.9v0.8H4.7H2.4v2.4v2.4v2.4h1.6v1.6v9.4v2.4h2.4h12.6h2.4v-2.4v-9.4v-0.8h1.6v0.8v9.4v2.4h2.4h12.6h2.4v-2.4v-9.4v-1.6h1.6v-2.4
		v-2.4v-2.4h-2.4h-3.1v-0.8h-2.4h-3.1V4V1.6L30.6,1.6z M29.9,27.6H33v0L29.9,27.6L29.9,27.6L29.9,27.6z M11,27.6h3.1v0L11,27.6
		L11,27.6L11,27.6z"/>
</g>
<path class="st1" d="M36.7,35.3l-2.1-5.4c-0.1-0.2-0.1-0.3-0.2-0.4v5.9h-6.7V16.6h7.1c6.5,0,7.3,4.1,7.3,5.8c0,0.9-0.2,2.7-1.8,4
	c0.2,0.3,0.3,0.7,0.5,1.1l3.2,7.7h-7.3L36.7,35.3L36.7,35.3z"/>
<g>
	<path d="M32.4,33.3h-2.7V18.6h5.1c3.5,0,5.3,1.3,5.3,3.8c0,1.9-1.2,3.1-3.5,3.5c0.7,0.2,1.2,0.5,1.5,0.8c0.3,0.3,0.5,0.8,0.8,1.6
		l2.1,5h-2.9l-1.6-4.2c-0.3-0.8-0.7-1.4-1.1-1.7c-0.3-0.2-0.9-0.4-1.7-0.4h-1.3L32.4,33.3z M32.3,25.1h2c2,0,2.9-0.8,2.9-2.3
		c0-1.4-0.9-2.1-2.7-2.1h-2.2V25.1z"/>
</g>
</svg>
