<?xml version="1.0" encoding="utf-8"?>
<!-- Generator: Adobe Illustrator 21.1.0, SVG Export Plug-In . SVG Version: 6.00 Build 0)  -->
<svg version="1.0" id="ƒŒƒCƒ„[_1" xmlns="http://www.w3.org/2000/svg" xmlns:xlink="http://www.w3.org/1999/xlink" x="0px"
	 y="0px" width="44px" height="36px" viewBox="0 0 44 36" style="enable-background:new 0 0 44 36;" xml:space="preserve">
<style type="text/css">
	.st0{fill:#9D9D9D;}
	.st1{fill:#FF0000;}
</style>
<g>
	<path class="st0" d="M24,33.5V21.7h4.7v-0.8h-1.6v-0.8h-1.6v0.8h-7.9v-0.8h-0.8v0.8h-1.6v0.8H20v11.8H5.1V21.7h5.5v-0.8H9v-0.8H3.5
		v-4.7H9v-0.8h5.5V2.8h14.9v11.8H35v0.8h5.5v4.7H35v0.8h-1.6v0.8h5.5v11.8H24z M34.2,28.8v-2.4h-5.5v2.4H34.2z M15.3,28.8v-2.4H9.8
		v2.4H15.3z M27.1,15.4v-0.8h-1.6v0.8H27.1z M17.7,15.4v-0.8h-0.8v0.8H17.7z M24.8,9.9V7.5h-5.5v2.4H24.8z"/>
	<path d="M28.3,4v9.4h-5.5v2.4h1.6v0.8h3.9v-0.8h5.5v0.8h5.5v2.4h-5.5v0.8h-1.6v3.1h5.5v9.4H25.1v-9.4h4.7v-3.1h-1.6v-0.8h-3.9v0.8
		h-5.5v-0.8h-3.1v0.8h-1.6v3.1h4.7v9.4H6.3v-9.4h5.5v-3.1h-1.6v-0.8H4.7v-2.4h5.5v-0.8h5.5v0.8h3.1v-0.8h1.6v-2.4h-4.7V4H28.3
		 M18.1,11.1h7.9V6.4h-7.9V11.1 M27.5,29.9h7.9v-4.7h-7.9V29.9 M8.6,29.9h7.9v-4.7H8.6V29.9 M30.6,1.6h-2.4H15.7h-2.4V4v9.4h-3.1
		H7.9v0.8H4.7H2.4v2.4v2.4v2.4h1.6v1.6v9.4v2.4h2.4h12.6h2.4v-2.4v-9.4v-0.8h1.6v0.8v9.4v2.4h2.4h12.6h2.4v-2.4v-9.4v-1.6h1.6v-2.4
		v-2.4v-2.4h-2.4h-3.1v-0.8h-2.4h-3.1V4V1.6L30.6,1.6z M29.9,27.6H33v0L29.9,27.6L29.9,27.6L29.9,27.6z M11,27.6h3.1v0L11,27.6
		L11,27.6L11,27.6z"/>
</g>
<g>
	<polygon class="st1" points="10.9,28.7 5.7,33.9 2.1,30.3 7.3,25.1 2.1,20 5.7,16.4 10.9,21.6 16,16.4 19.6,20 14.4,25.1 
		19.6,30.3 16,33.9 	"/>
	<path d="M16,17.8l2.1,2.1l-5.2,5.2l5.2,5.2L16,32.4l-5.2-5.2l-5.2,5.2l-2.1-2.1l5.2-5.2l-5.2-5.2l2.1-2.1l5.2,5.2L16,17.8 M16,15
		l-1.4,1.4l-3.8,3.8l-3.7-3.8L5.7,15l-1.4,1.4l-2.2,2.1l-1.4,1.4l1.4,1.5l3.8,3.8l-3.8,3.7l-1.4,1.4l1.4,1.5l2.1,2.1l1.4,1.4
		l1.5-1.4l3.8-3.8l3.8,3.8l1.4,1.4l1.4-1.4l2.1-2.1l1.4-1.4l-1.4-1.5l-3.8-3.8l3.8-3.8l1.4-1.4l-1.4-1.4l-2.1-2.1L16,15L16,15z"/>
</g>
</svg>
