<?xml version="1.0" encoding="utf-8"?>
<!-- Generator: Adobe Illustrator 15.0.0, SVG Export Plug-In . SVG Version: 6.00 Build 0)  -->
<!DOCTYPE svg PUBLIC "-//W3C//DTD SVG 1.0//EN" "http://www.w3.org/TR/2001/REC-SVG-20010904/DTD/svg10.dtd">
<svg version="1.0" id="ƒŒƒCƒ„[_1" xmlns="http://www.w3.org/2000/svg" xmlns:xlink="http://www.w3.org/1999/xlink" x="0px"
	 y="0px" width="100px" height="36px" viewBox="0 0 100 36" enable-background="new 0 0 100 36" xml:space="preserve">
<rect width="100" height="36"/>
<g>
	<path fill="#9D9D9D" d="M28.717,24.723v2.871H18.423V8.07h3.175v16.653H28.717L28.717,24.723z"/>
	<path fill="#9D9D9D" d="M39.189,7.648c2.187,0,4.015,0.656,5.484,1.969c2.089,1.867,3.133,4.594,3.133,8.18
		c0,3.211-0.826,5.75-2.479,7.617c-1.54,1.734-3.611,2.602-6.212,2.602c-2.637,0-4.736-0.93-6.297-2.789
		c-1.533-1.828-2.299-4.266-2.299-7.313c0-3.297,0.815-5.859,2.446-7.688C34.507,8.508,36.581,7.648,39.189,7.648z M39.053,10.332
		c-1.322,0-2.408,0.488-3.259,1.465c-1.238,1.414-1.856,3.426-1.856,6.035c0,2.102,0.415,3.84,1.244,5.215
		c0.921,1.523,2.25,2.285,3.987,2.285c1.694,0,3.009-0.762,3.944-2.285c0.857-1.406,1.286-3.129,1.286-5.168
		c0-2.109-0.436-3.863-1.308-5.262C42.149,11.094,40.804,10.332,39.053,10.332z"/>
	<path fill="#9D9D9D" d="M58.943,7.648c2.187,0,4.015,0.656,5.484,1.969c2.088,1.867,3.133,4.594,3.133,8.18
		c0,3.211-0.826,5.75-2.479,7.617c-1.54,1.734-3.61,2.602-6.212,2.602c-2.637,0-4.736-0.93-6.297-2.789
		c-1.533-1.828-2.299-4.266-2.299-7.313c0-3.297,0.815-5.859,2.446-7.688C54.262,8.508,56.335,7.648,58.943,7.648z M58.807,10.332
		c-1.322,0-2.408,0.488-3.259,1.465c-1.237,1.414-1.856,3.426-1.856,6.035c0,2.102,0.416,3.84,1.244,5.215
		c0.922,1.523,2.25,2.285,3.987,2.285c1.694,0,3.009-0.762,3.944-2.285c0.857-1.406,1.285-3.129,1.285-5.168
		c0-2.109-0.436-3.863-1.307-5.262C61.902,11.094,60.559,10.332,58.807,10.332z"/>
	<path fill="#9D9D9D" d="M74.079,20.035v7.559h-3.175V8.07h5.179c2.116,0,3.72,0.414,4.81,1.242
		c1.463,1.109,2.193,2.676,2.193,4.699c0,2.102-0.768,3.734-2.299,4.898c-1.02,0.772-2.43,1.159-4.229,1.159l-0.803-0.012
		l-1.139-0.012h-0.243L74.079,20.035z M74.079,17.34h0.274c1.897-0.016,3.094-0.125,3.586-0.328
		c1.151-0.469,1.729-1.453,1.729-2.953c0-1.508-0.518-2.484-1.551-2.93c-0.569-0.25-1.733-0.387-3.491-0.41h-0.265l-0.283-0.012
		L74.079,17.34L74.079,17.34z"/>
</g>
<path fill="#9D9D9D" d="M100,36H0V0h100V36z M98,2H2v32h96V2z"/>
</svg>
