<?xml version="1.0" encoding="utf-8"?>
<!-- Generator: Adobe Illustrator 15.0.0, SVG Export Plug-In . SVG Version: 6.00 Build 0)  -->
<!DOCTYPE svg PUBLIC "-//W3C//DTD SVG 1.0//EN" "http://www.w3.org/TR/2001/REC-SVG-20010904/DTD/svg10.dtd">
<svg version="1.0" id="ƒŒƒCƒ„[_1" xmlns="http://www.w3.org/2000/svg" xmlns:xlink="http://www.w3.org/1999/xlink" x="0px"
	 y="0px" width="66px" height="54px" viewBox="0 0 66 54" enable-background="new 0 0 66 54" xml:space="preserve">
<path fill="#D4D4D4" d="M9.783,36.369l1.452-3.322c2.051,1.322,3.663,1.982,4.836,1.982c2.239,0,3.359-1.047,3.359-3.145
	c0-1.057-0.361-1.908-1.083-2.557c-0.427-0.391-1.288-0.875-2.584-1.449C13.375,26.822,11.788,25.67,11,24.42
	c-0.566-0.91-0.849-2.01-0.849-3.295c0-2.205,0.754-3.896,2.264-5.072c1.247-0.975,2.838-1.463,4.774-1.463
	c1.96,0,3.773,0.676,5.438,2.023l-1.612,3.021c-1.583-1.248-2.928-1.873-4.036-1.873c-0.788,0-1.485,0.256-2.092,0.766
	c-0.607,0.502-0.911,1.203-0.911,2.105c0,0.994,0.349,1.773,1.046,2.338c0.443,0.365,1.62,1.025,3.531,1.982
	c1.805,0.902,3.04,1.814,3.704,2.734c0.681,0.949,1.021,2.225,1.021,3.828c0,2.361-0.771,4.143-2.313,5.346
	c-1.263,0.994-2.986,1.49-5.168,1.49C13.601,38.352,11.595,37.691,9.783,36.369z"/>
<path fill="#D4D4D4" d="M39.299,34.51v3.35H27.203V15.082h11.973v3.35h-8.269v6.084h7.604v3.35h-7.604v6.645H39.299z"/>
<path fill="#D4D4D4" d="M51.345,37.859h-3.704V18.432H41.55v-3.35h15.873v3.35h-6.079V37.859z"/>
</svg>
