<?xml version="1.0" encoding="utf-8"?>
<!-- Generator: Adobe Illustrator 21.0.0, SVG Export Plug-In . SVG Version: 6.00 Build 0)  -->
<svg version="1.0" id="ƒŒƒCƒ„[_1" xmlns="http://www.w3.org/2000/svg" xmlns:xlink="http://www.w3.org/1999/xlink" x="0px"
	 y="0px" width="44px" height="28px" viewBox="0 0 44 28" style="enable-background:new 0 0 44 28;" xml:space="preserve">
<style type="text/css">
	.st0{fill:#FFFFFF;}
</style>
<g>
	<path class="st0" d="M4.4,12.1l0.1,2.4c0.9-1.8,2.3-2.7,4.1-2.7c1.9,0,3.2,0.9,4,2.7c1.1-1.8,2.6-2.7,4.2-2.7c1.8,0,3,0.7,3.7,2.1
		c0.4,0.9,0.6,2.3,0.6,4.2v8.5h-3v-7.1c0-1.6-0.1-2.7-0.2-3.3c-0.3-1.1-1-1.6-2-1.6c-1.3,0-2.2,0.8-2.7,2.5c-0.2,0.6-0.3,1.6-0.3,3
		v6.5h-3v-7.5c0-1.6-0.1-2.7-0.3-3.2c-0.4-0.9-1-1.3-1.8-1.3c-1.4,0-2.3,0.9-2.8,2.6c-0.2,0.5-0.2,1.3-0.2,2.4v7h-3V15.5
		c0-1,0-2.2-0.1-3.4C1.6,12.1,4.4,12.1,4.4,12.1z"/>
	<path class="st0" d="M27.5,9.1h-3.1V5.9h3.1V9.1z M27.5,26.6h-3V12.1h3V26.6z"/>
	<path class="st0" d="M33.8,12.1l0.1,2.4c0.9-1.7,2.3-2.6,4.3-2.6c1.8,0,3.1,0.6,3.9,1.7c0.6,1,1,2.6,1,4.9v8.2h-3v-7.3
		c0-1.6-0.1-2.7-0.4-3.3c-0.4-0.8-1.1-1.3-2.2-1.3c-2.2,0-3.3,1.7-3.3,5v6.9h-3v-9.3c0-1.6,0-3.3-0.1-5.2L33.8,12.1L33.8,12.1z"/>
</g>
</svg>
