<?xml version="1.0" encoding="utf-8"?>
<!-- Generator: Adobe Illustrator 15.0.0, SVG Export Plug-In . SVG Version: 6.00 Build 0)  -->
<!DOCTYPE svg PUBLIC "-//W3C//DTD SVG 1.0//EN" "http://www.w3.org/TR/2001/REC-SVG-20010904/DTD/svg10.dtd">
<svg version="1.0" id="ƒŒƒCƒ„[_1" xmlns="http://www.w3.org/2000/svg" xmlns:xlink="http://www.w3.org/1999/xlink" x="0px"
	 y="0px" width="56px" height="56px" viewBox="0 0 56 56" enable-background="new 0 0 56 56" xml:space="preserve">
<circle cx="28" cy="28" r="24.8"/>
<g>
	<path fill="#FFFFFF" d="M30.3,25.4v-8l0,0v-1.9c1.3,0.9,3.3,2.4,4.3,3.4c2.101,1.8,3.101,3.7,3.101,5.8c0,1.8-0.8,3.8-2.3,5.8
		L37,32c2.5-2.7,3.9-5.4,3.9-8.1c0.1-4.8-3.801-8.2-5.5-9.8c-1.2-1.2-3.5-3.7-4.7-5c0,0-0.8-1-1-1.2l0,0c-0.2-0.3-0.601-0.5-1-0.5
		c-0.7,0-1.3,0.6-1.3,1.3v13.6L30.3,25.4z"/>
	<path fill="#FFFFFF" d="M27.3,32.2v4.1c-1.1-0.399-2.4-0.6-3.8-0.6c-4.2,0-8,2.1-8.5,4.8s2.5,4.8,6.7,4.8c4.2,0,8.1-2.5,8.6-5.2
		c0-0.199,0-0.399,0-0.6v-4.4L27.3,32.2z"/>
</g>
<path fill="#FF0000" d="M28,1C13.1,1,1,13.1,1,28c0,14.9,12.1,27,27,27c14.9,0,27-12.1,27-27C55,13.1,42.9,1,28,1z M51,28
	c0,5.6-2,10.7-5.3,14.7L13.3,10.3C17.3,7,22.4,5,28,5C40.7,5,51,15.3,51,28z M5,28c0-5.6,2-10.7,5.3-14.7l32.4,32.4
	C38.7,49,33.6,51,28,51C15.3,51,5,40.7,5,28z"/>
</svg>
