<?xml version="1.0" encoding="utf-8"?>
<!-- Generator: Adobe Illustrator 15.0.0, SVG Export Plug-In . SVG Version: 6.00 Build 0)  -->
<!DOCTYPE svg PUBLIC "-//W3C//DTD SVG 1.0//EN" "http://www.w3.org/TR/2001/REC-SVG-20010904/DTD/svg10.dtd">
<svg version="1.0" id="ƒŒƒCƒ„[_1" xmlns="http://www.w3.org/2000/svg" xmlns:xlink="http://www.w3.org/1999/xlink" x="0px"
	 y="0px" width="62px" height="10px" viewBox="0 0 62 10" enable-background="new 0 0 62 10" xml:space="preserve">
<path opacity="0.45" enable-background="new    " d="M62,7V3c0-1.7-1.3-3-3-3H3C1.3,0,0,1.3,0,3v4c0,1.7,1.3,3,3,3h56
	C60.7,10,62,8.7,62,7z"/>
<g opacity="0.75">
	<path fill="#CCCCCC" d="M60,6.5v-3C60,2.7,59.3,2,58.5,2h-55C2.7,2,2,2.7,2,3.5v3C2,7.3,2.7,8,3.5,8h55C59.3,8,60,7.3,60,6.5z"/>
</g>
</svg>
