<?xml version="1.0" encoding="utf-8"?>
<!-- Generator: Adobe Illustrator 15.0.0, SVG Export Plug-In . SVG Version: 6.00 Build 0)  -->
<!DOCTYPE svg PUBLIC "-//W3C//DTD SVG 1.0//EN" "http://www.w3.org/TR/2001/REC-SVG-20010904/DTD/svg10.dtd">
<svg version="1.0" id="ƒŒƒCƒ„[_1" xmlns="http://www.w3.org/2000/svg" xmlns:xlink="http://www.w3.org/1999/xlink" x="0px"
	 y="0px" width="68px" height="32px" viewBox="0 0 68 32" enable-background="new 0 0 68 32" xml:space="preserve">
<rect fill="#47484A" width="68" height="32"/>
<g>
	<path fill="#FFFFFF" d="M14.868,26.768h-2.946L7.535,13.467c-0.13-0.39-0.629-2.1-1.497-5.13c0.218,3.04,0.328,5.408,0.328,7.104
		v11.327H4.161V5.128h2.875l4.481,13.313c0.135,0.39,0.61,2.031,1.426,4.922c-0.052-0.979-0.094-1.711-0.125-2.195
		c-0.104-1.775-0.156-3.243-0.156-4.402V5.128h2.206V26.768z"/>
	<path fill="#FFFFFF" d="M28.963,26.768h-2.541l-1.169-5.041h-5.892l-1.146,5.041h-2.377l5.128-21.64h2.72L28.963,26.768z
		 M24.528,18.559l-1.815-8.157c-0.125-0.563-0.268-1.485-0.429-2.767c-0.161,1.29-0.327,2.329-0.499,3.117l-1.699,7.807H24.528z"/>
	<path fill="#FFFFFF" d="M34.773,26.768h-2.347V8.311H28.57V5.128h10.053V8.31h-3.85V26.768z"/>
	<path fill="#FFFFFF" d="M42.197,26.768h-2.346V5.128h2.346V26.768z"/>
	<path fill="#FFFFFF" d="M51.016,26.768h-2.994l-4.582-21.64h2.479l2.854,14.104c0.104,0.512,0.379,1.971,0.826,4.377
		c0.576-3.116,0.867-4.688,0.873-4.715l2.75-13.768h2.291L51.016,26.768z"/>
	<path fill="#FFFFFF" d="M64.159,23.585v3.183h-7.661V5.128h7.583V8.31h-5.237v5.78h4.816v3.182h-4.816v6.313H64.159z"/>
</g>
</svg>
