<?xml version="1.0" encoding="utf-8"?>
<!-- Generator: Adobe Illustrator 15.0.0, SVG Export Plug-In . SVG Version: 6.00 Build 0)  -->
<!DOCTYPE svg PUBLIC "-//W3C//DTD SVG 1.0//EN" "http://www.w3.org/TR/2001/REC-SVG-20010904/DTD/svg10.dtd">
<svg version="1.0" id="ƒŒƒCƒ„[_1" xmlns="http://www.w3.org/2000/svg" xmlns:xlink="http://www.w3.org/1999/xlink" x="0px"
	 y="0px" width="88px" height="32px" viewBox="0 0 88 32" enable-background="new 0 0 88 32" xml:space="preserve">
<rect fill="#47484A" width="88" height="32"/>
<g>
	<path fill="#FFFFFF" d="M16.608,26.768h-2.946L9.275,13.467c-0.13-0.39-0.629-2.1-1.497-5.13c0.218,3.04,0.328,5.408,0.328,7.104
		v11.327H5.9V5.128h2.875l4.481,13.313c0.135,0.39,0.61,2.031,1.426,4.922c-0.052-0.979-0.094-1.711-0.125-2.195
		c-0.104-1.775-0.156-3.243-0.156-4.402V5.128h2.206L16.608,26.768L16.608,26.768z"/>
	<path fill="#FFFFFF" d="M25.085,4.661c1.616,0,2.967,0.728,4.053,2.182c1.543,2.07,2.314,5.091,2.314,9.066
		c0,3.56-0.611,6.372-1.832,8.442c-1.138,1.922-2.668,2.883-4.59,2.883c-1.948,0-3.499-1.03-4.652-3.092
		c-1.133-2.025-1.699-4.728-1.699-8.104c0-3.654,0.603-6.494,1.808-8.521C21.625,5.613,23.158,4.661,25.085,4.661z M24.984,7.635
		c-0.977,0-1.779,0.541-2.408,1.624c-0.914,1.567-1.372,3.797-1.372,6.689c0,2.33,0.307,4.256,0.92,5.781
		c0.68,1.688,1.662,2.533,2.946,2.533c1.252,0,2.223-0.845,2.915-2.533c0.634-1.56,0.951-3.469,0.951-5.729
		c0-2.338-0.322-4.282-0.966-5.832C27.272,8.479,26.277,7.635,24.984,7.635z"/>
	<path fill="#FFFFFF" d="M35.893,26.768h-2.369V5.128h4.543c3.106,0,4.66,1.875,4.66,5.624c0,2.797-1.034,4.516-3.102,5.156
		c0.592,0.286,1.023,0.693,1.293,1.221c0.229,0.451,0.478,1.217,0.748,2.299l1.839,7.338h-2.587l-1.442-6.168
		c-0.291-1.256-0.61-2.088-0.958-2.494c-0.301-0.355-0.79-0.533-1.465-0.533h-1.161L35.893,26.768L35.893,26.768z M35.869,14.636
		h1.738c1.74,0,2.611-1.117,2.611-3.351c0-2.104-0.798-3.156-2.393-3.156h-1.956V14.636z"/>
	<path fill="#FFFFFF" d="M59.73,26.768h-2.347V14.856l0.031-1.74c0.017-0.9,0.03-2.814,0.047-5.741
		c-0.187,0.944-0.325,1.658-0.413,2.143c-0.176,0.927-0.291,1.52-0.343,1.779l-3.289,15.469H51.25L48.452,13.92
		c-0.046-0.216-0.161-0.796-0.343-1.74c-0.209-1.074-0.549-2.667-1.021-4.78c0.125,3.048,0.188,5.464,0.188,7.248v12.118H45.07
		V5.128h4.005l2.26,11.495l0.499,2.663c0.275,1.315,0.462,2.315,0.561,3c0.114-0.771,0.317-1.853,0.608-3.247l0.272-1.469
		l2.361-12.442h4.092v21.64H59.73z"/>
	<path fill="#FFFFFF" d="M74.254,26.768h-2.541l-1.169-5.041h-5.892l-1.146,5.041h-2.377l5.128-21.64h2.72L74.254,26.768z
		 M69.82,18.559l-1.815-8.157c-0.125-0.563-0.269-1.485-0.429-2.767c-0.161,1.29-0.327,2.329-0.499,3.117l-1.699,7.807H69.82z"/>
	<path fill="#FFFFFF" d="M83.23,23.585v3.183h-7.606V5.128h2.347v18.457H83.23z"/>
</g>
</svg>
