<?xml version="1.0" encoding="utf-8"?>
<!-- Generator: Adobe Illustrator 21.0.0, SVG Export Plug-In . SVG Version: 6.00 Build 0)  -->
<svg version="1.0" id="ƒŒƒCƒ„[_1" xmlns="http://www.w3.org/2000/svg" xmlns:xlink="http://www.w3.org/1999/xlink" x="0px"
	 y="0px" width="108px" height="45px" viewBox="0 0 108 45" style="enable-background:new 0 0 108 45;" xml:space="preserve">
<style type="text/css">
	.st0{fill:#FFFFFF;}
</style>
<g>
	<path d="M107,41H1V1h106V41z M101,7H7v28h94V7z"/>
</g>
<g>
	<path class="st0" d="M103,5v32H5V5H103 M105,3H3v36h102V3L105,3z"/>
</g>
<g>
	<g>
		<g>
			<path d="M15.3,10.3l-0.8,2.8c-1.1-1.2-2.1-1.8-2.8-1.8c-1.5,0-2.2,1.1-2.2,3.4c0,0.9,0.2,1.7,0.7,2.3c0.2,0.3,0.7,0.8,1.4,1.4
				l1.5,1.3c2,1.8,3,4,3,6.8c0,2.2-0.5,3.9-1.5,5.2c-0.8,1.1-1.9,1.6-3.3,1.6s-2.7-0.7-3.9-2.2l0.9-2.9c1.3,1.4,2.4,2,3.2,2
				c0.7,0,1.4-0.3,1.9-0.9s0.7-1.5,0.7-2.7c0-1.1-0.2-2.1-0.7-2.8c-0.3-0.5-0.9-1.1-1.8-1.8l-1.1-0.9c-2-1.6-3-3.7-3-6.5
				c0-2,0.5-3.7,1.4-4.9c0.7-1,1.7-1.5,2.9-1.5C12.8,8.4,14,9,15.3,10.3z"/>
			<path d="M11.2,35.4c-2,0-3.8-1-5.5-2.9L5,31.7l2.2-7.1L9.6,27c1.2,1.3,1.8,1.4,1.8,1.4s0.1,0,0.2-0.2c0.1-0.1,0.3-0.4,0.3-1.4
				c0-0.7-0.1-1.3-0.4-1.7c-0.1-0.2-0.5-0.6-1.4-1.3L9,22.9c-2.5-1.9-3.7-4.7-3.7-8c0-2.5,0.6-4.5,1.7-6.1c1.1-1.5,2.7-2.3,4.6-2.3
				c1.7,0,3.4,0.8,5,2.5l0.8,0.8L15.5,17L13,14.5c-0.9-0.9-1.3-1.1-1.4-1.1c-0.1,0.1-0.2,0.5-0.2,1.4c0,0.5,0.1,0.9,0.3,1.2
				c0,0,0.2,0.3,1.1,1.1l1.5,1.3c2.4,2.2,3.7,4.9,3.7,8.3c0,2.6-0.6,4.8-1.9,6.4C14.9,34.6,13.2,35.4,11.2,35.4z"/>
		</g>
		<g>
			<path d="M20.5,29.1V33h-2.2v-3.9H20.5z"/>
			<rect x="16.3" y="27.1" width="6.2" height="7.9"/>
		</g>
		<g>
			<path d="M30.9,10.3l-0.8,2.8c-1.1-1.2-2.1-1.8-2.8-1.8c-1.5,0-2.2,1.1-2.2,3.4c0,0.9,0.2,1.7,0.7,2.3c0.2,0.3,0.7,0.8,1.4,1.4
				l1.5,1.3c2,1.8,3,4,3,6.8c0,2.2-0.5,3.9-1.5,5.2c-0.8,1.1-1.9,1.6-3.3,1.6s-2.7-0.7-3.9-2.2l0.9-2.9c1.3,1.4,2.4,2,3.2,2
				c0.7,0,1.4-0.3,1.9-0.9s0.7-1.5,0.7-2.7c0-1.1-0.2-2.1-0.7-2.8c-0.3-0.5-0.9-1.1-1.8-1.8l-1.1-0.9c-2-1.6-3-3.7-3-6.5
				c0-2,0.5-3.7,1.4-4.9c0.7-1,1.7-1.5,2.9-1.5C28.4,8.4,29.7,9,30.9,10.3z"/>
			<path d="M26.8,35.4c-2,0-3.8-1-5.5-2.9l-0.7-0.8l2.2-7.1l2.3,2.4c1.2,1.3,1.8,1.4,1.8,1.4s0.1,0,0.2-0.2c0.1-0.1,0.3-0.4,0.3-1.4
				c0-0.7-0.1-1.3-0.4-1.7c-0.1-0.2-0.5-0.6-1.4-1.3l-1.1-0.9c-2.5-1.9-3.7-4.7-3.7-8c0-2.5,0.6-4.5,1.7-6.1
				c1.1-1.5,2.7-2.3,4.6-2.3c1.7,0,3.4,0.8,5,2.5l0.8,0.8L31.1,17l-2.4-2.6c-0.9-0.9-1.3-1.1-1.4-1.1c-0.1,0.1-0.2,0.5-0.2,1.4
				c0,0.5,0.1,0.9,0.3,1.2c0,0,0.2,0.3,1.1,1.1l1.5,1.3c2.4,2.2,3.7,4.9,3.7,8.3c0,2.6-0.6,4.8-1.9,6.4
				C30.5,34.6,28.8,35.4,26.8,35.4z"/>
		</g>
		<g>
			<path d="M36,8.9V30h5.8v3H34V8.9H36z"/>
			<polygon points="43.8,35 32,35 32,6.9 38,6.9 38,28 43.8,28 			"/>
		</g>
		<g>
			<path d="M49.9,8.4c2.4,0,4.1,1.5,5.3,4.6c0.8,2.2,1.2,4.8,1.2,7.9c0,3.6-0.6,6.5-1.7,8.8c-1.2,2.4-2.8,3.6-4.9,3.6
				c-2.6,0-4.5-1.8-5.6-5.3c-0.7-2.2-1-4.6-1-7.2c0-2.4,0.3-4.6,0.9-6.6C45.1,10.4,47.1,8.4,49.9,8.4z M49.8,11.1
				c-1.3,0-2.3,0.8-3.2,2.3c-1,1.8-1.4,4.3-1.4,7.5c0,3.6,0.6,6.3,1.8,8.1c0.8,1.2,1.7,1.8,2.7,1.8c1.5,0,2.7-1.1,3.5-3.3
				c0.7-1.7,1-3.9,1-6.5c0-3.5-0.6-6.2-1.7-8C51.8,11.7,50.9,11.1,49.8,11.1z"/>
			<path d="M49.8,35.4c-2.5,0-5.8-1.2-7.5-6.7c-0.8-2.4-1.1-5-1.1-7.8c0-2.6,0.3-5,0.9-7.2c1.7-6.1,5.2-7.4,7.8-7.4
				c2.2,0,5.3,1,7.2,5.9c0.9,2.4,1.4,5.3,1.4,8.6c0,3.9-0.6,7.1-1.8,9.7C54.7,34.6,51.9,35.4,49.8,35.4z M49.8,13.1
				c-0.2,0-0.7,0-1.4,1.2c-0.8,1.5-1.2,3.7-1.2,6.5c0,3.2,0.5,5.5,1.5,6.9c0.6,0.9,1,0.9,1.1,0.9c0.8,0,1.4-1.3,1.6-2
				c0.6-1.5,0.9-3.4,0.9-5.7c0-3.1-0.5-5.5-1.4-7C50.4,13.1,50,13.1,49.8,13.1z"/>
		</g>
		<g>
			<path d="M74.3,8.9L70.7,33h-2.2l-2.1-15.8c-0.2-1.6-0.4-3.4-0.6-5.5c-0.2,2.4-0.4,4.3-0.6,5.5l-2,15.8H61L57.5,8.9h1.8L61.4,23
				c0.4,2.4,0.6,4.6,0.8,6.7c0.1-1.5,0.4-3.7,0.7-6.8l1.7-14H67L68.9,23c0.2,1.7,0.5,3.9,0.8,6.7c0.2-2.2,0.5-4.4,0.8-6.7l2-14.1
				H74.3z"/>
			<polygon points="72.5,35 66.8,35 65.9,28.1 65.1,35 59.4,35 55.2,6.9 61.1,6.9 62.1,13.7 62.9,6.9 68.9,6.9 69.8,14 70.8,6.9 
				76.6,6.9 			"/>
		</g>
	</g>
	<g>
		<g>
			<path d="M80.1,14.5V33h-1.7V18.5c0-0.7,0-1.1,0-1.2c-0.1,0.3-0.4,0.6-0.7,1L76.5,20l-1-1.7l3-3.8C78.5,14.5,80.1,14.5,80.1,14.5z
				"/>
			<polygon points="82.1,35 76.4,35 76.4,23.4 76.2,23.7 73.1,18.1 77.5,12.5 82.1,12.5 			"/>
		</g>
		<g>
			<path d="M86.9,14.2c2.7,0,4.1,3.2,4.1,9.6s-1.4,9.6-4.1,9.6s-4.1-3.2-4.1-9.7C82.7,17.3,84.1,14.2,86.9,14.2z M86.9,16.3
				c-1.6,0-2.4,2.5-2.4,7.4s0.8,7.4,2.4,7.4s2.4-2.4,2.4-7.2C89.2,18.9,88.4,16.3,86.9,16.3z"/>
			<path d="M86.9,35.4c-4.1,0-6.1-3.9-6.1-11.7c0-7.6,2.1-11.5,6.2-11.5c4,0,6.1,3.9,6.1,11.6C93,31.5,90.9,35.4,86.9,35.4z
				 M86.8,19.3c-0.2,0.8-0.4,2.2-0.4,4.5s0.2,3.7,0.4,4.5c0.2-0.8,0.4-2.1,0.4-4.3C87.2,21.6,87,20.1,86.8,19.3z"/>
		</g>
		<g>
			<path d="M96.7,14.2c2.7,0,4.1,3.2,4.1,9.6s-1.4,9.6-4.1,9.6s-4.1-3.2-4.1-9.7C92.5,17.3,93.9,14.2,96.7,14.2z M96.7,16.3
				c-1.6,0-2.4,2.5-2.4,7.4s0.8,7.4,2.4,7.4s2.4-2.4,2.4-7.2C99.1,18.9,98.3,16.3,96.7,16.3z"/>
			<path d="M96.7,35.4c-4.1,0-6.1-3.9-6.1-11.7c0-7.6,2.1-11.5,6.2-11.5c4,0,6.1,3.9,6.1,11.6C102.8,31.5,100.8,35.4,96.7,35.4z
				 M96.7,19.3c-0.2,0.8-0.4,2.2-0.4,4.5s0.2,3.7,0.4,4.5c0.2-0.8,0.4-2.1,0.4-4.3C97.1,21.6,96.9,20.1,96.7,19.3z"/>
		</g>
	</g>
</g>
<g>
	<g>
		<path class="st0" d="M15.3,10.3l-0.8,2.8c-1.1-1.2-2.1-1.8-2.8-1.8c-1.5,0-2.2,1.1-2.2,3.4c0,0.9,0.2,1.7,0.7,2.3
			c0.2,0.3,0.7,0.8,1.4,1.4l1.5,1.3c2,1.8,3,4,3,6.8c0,2.2-0.5,3.9-1.5,5.2c-0.8,1.1-1.9,1.6-3.3,1.6s-2.7-0.7-3.9-2.2l0.9-2.9
			c1.3,1.4,2.4,2,3.2,2c0.7,0,1.4-0.3,1.9-0.9s0.7-1.5,0.7-2.7c0-1.1-0.2-2.1-0.7-2.8c-0.3-0.5-0.9-1.1-1.8-1.8l-1.1-0.9
			c-2-1.6-3-3.7-3-6.5c0-2,0.5-3.7,1.4-4.9c0.7-1,1.7-1.5,2.9-1.5C12.8,8.4,14,9,15.3,10.3z"/>
		<path class="st0" d="M20.5,29.1V33h-2.2v-3.9H20.5z"/>
		<path class="st0" d="M30.9,10.3l-0.8,2.8c-1.1-1.2-2.1-1.8-2.8-1.8c-1.5,0-2.2,1.1-2.2,3.4c0,0.9,0.2,1.7,0.7,2.3
			c0.2,0.3,0.7,0.8,1.4,1.4l1.5,1.3c2,1.8,3,4,3,6.8c0,2.2-0.5,3.9-1.5,5.2c-0.8,1.1-1.9,1.6-3.3,1.6s-2.7-0.7-3.9-2.2l0.9-2.9
			c1.3,1.4,2.4,2,3.2,2c0.7,0,1.4-0.3,1.9-0.9s0.7-1.5,0.7-2.7c0-1.1-0.2-2.1-0.7-2.8c-0.3-0.5-0.9-1.1-1.8-1.8l-1.1-0.9
			c-2-1.6-3-3.7-3-6.5c0-2,0.5-3.7,1.4-4.9c0.7-1,1.7-1.5,2.9-1.5C28.4,8.4,29.7,9,30.9,10.3z"/>
		<path class="st0" d="M36,8.9V30h5.8v3H34V8.9H36z"/>
		<path class="st0" d="M49.9,8.4c2.4,0,4.1,1.5,5.3,4.6c0.8,2.2,1.2,4.8,1.2,7.9c0,3.6-0.6,6.5-1.7,8.8c-1.2,2.4-2.8,3.6-4.9,3.6
			c-2.6,0-4.5-1.8-5.6-5.3c-0.7-2.2-1-4.6-1-7.2c0-2.4,0.3-4.6,0.9-6.6C45.1,10.4,47.1,8.4,49.9,8.4z M49.8,11.1
			c-1.3,0-2.3,0.8-3.2,2.3c-1,1.8-1.4,4.3-1.4,7.5c0,3.6,0.6,6.3,1.8,8.1c0.8,1.2,1.7,1.8,2.7,1.8c1.5,0,2.7-1.1,3.5-3.3
			c0.7-1.7,1-3.9,1-6.5c0-3.5-0.6-6.2-1.7-8C51.8,11.7,50.9,11.1,49.8,11.1z"/>
		<path class="st0" d="M74.3,8.9L70.7,33h-2.2l-2.1-15.8c-0.2-1.6-0.4-3.4-0.6-5.5c-0.2,2.4-0.4,4.3-0.6,5.5l-2,15.8H61L57.5,8.9
			h1.8L61.4,23c0.4,2.4,0.6,4.6,0.8,6.7c0.1-1.5,0.4-3.7,0.7-6.8l1.7-14H67L68.9,23c0.2,1.7,0.5,3.9,0.8,6.7
			c0.2-2.2,0.5-4.4,0.8-6.7l2-14.1H74.3z"/>
	</g>
	<g>
		<path class="st0" d="M80.1,14.5V33h-1.7V18.5c0-0.7,0-1.1,0-1.2c-0.1,0.3-0.4,0.6-0.7,1L76.5,20l-1-1.7l3-3.8
			C78.5,14.5,80.1,14.5,80.1,14.5z"/>
		<path class="st0" d="M86.9,14.2c2.7,0,4.1,3.2,4.1,9.6s-1.4,9.6-4.1,9.6s-4.1-3.2-4.1-9.7C82.7,17.3,84.1,14.2,86.9,14.2z
			 M86.9,16.3c-1.6,0-2.4,2.5-2.4,7.4s0.8,7.4,2.4,7.4s2.4-2.4,2.4-7.2C89.2,18.9,88.4,16.3,86.9,16.3z"/>
		<path class="st0" d="M96.7,14.2c2.7,0,4.1,3.2,4.1,9.6s-1.4,9.6-4.1,9.6s-4.1-3.2-4.1-9.7C92.5,17.3,93.9,14.2,96.7,14.2z
			 M96.7,16.3c-1.6,0-2.4,2.5-2.4,7.4s0.8,7.4,2.4,7.4s2.4-2.4,2.4-7.2C99.1,18.9,98.3,16.3,96.7,16.3z"/>
	</g>
</g>
</svg>
