<?xml version="1.0" encoding="utf-8"?>
<!-- Generator: Adobe Illustrator 21.0.0, SVG Export Plug-In . SVG Version: 6.00 Build 0)  -->
<svg version="1.0" id="ƒŒƒCƒ„[_1" xmlns="http://www.w3.org/2000/svg" xmlns:xlink="http://www.w3.org/1999/xlink" x="0px"
	 y="0px" width="36px" height="45px" viewBox="0 0 36 45" style="enable-background:new 0 0 36 45;" xml:space="preserve">
<style type="text/css">
	.st0{fill:#FFFFFF;}
	.st1{fill:#9D9D9D;}
	.st2{fill:none;}
</style>
<path d="M34.8,9.9C30.2,6.2,24.3,4,18,4C11.7,4,5.8,6.2,1.2,9.9l12,17.6c-0.7,1-1.2,2.2-1.2,3.5c0,3.3,2.7,6,6,6s6-2.7,6-6
	c0-1.3-0.4-2.6-1.2-3.5L34.8,9.9z"/>
<circle class="st0" cx="18" cy="31" r="4"/>
<g>
	<path class="st1" d="M18,10c4.4,0,8.4,1.3,11.8,3.6l2.3-3.3C28.1,7.6,23.2,6,18,6S7.9,7.6,3.9,10.3l2.3,3.3C9.6,11.3,13.6,10,18,10
		z"/>
	<path class="st1" d="M18,17c2.9,0,5.6,0.9,7.9,2.4l2.3-3.3c-2.9-2-6.4-3.1-10.1-3.1s-7.2,1.2-10.1,3.1l2.3,3.3
		C12.4,17.9,15.1,17,18,17z"/>
	<path class="st0" d="M18,24c1.5,0,2.8,0.4,3.9,1.2l2.3-3.3C22.4,20.7,20.3,20,18,20s-4.4,0.7-6.2,1.9l2.3,3.3
		C15.2,24.4,16.5,24,18,24z"/>
</g>
<g>
	<rect x="35" y="37" class="st2" width="1" height="8"/>
	<g>
		<path d="M35.8,34.2L33.6,29c-0.2-0.4-0.3-0.9-0.5-1.3c1.3-1,1.9-2.5,1.9-4.2c0-1.8-0.7-6-7.6-6H22h-2v2V35v2h2h2.9h2v-2v-4.6
			c0,0,0,0,0,0c0.1,0.1,0.3,0.4,0.4,0.8l1.7,4.5l0.5,1.3h1.4H34h2v-2.4L35.8,34.2z"/>
		<path class="st0" d="M24.9,35H22V19.4h5.4c3.7,0,5.6,1.4,5.6,4c0,2-1.3,3.3-3.7,3.7c0.7,0.2,1.3,0.5,1.6,0.8
			c0.3,0.3,0.5,0.8,0.9,1.7L34,35h-3.1l-1.7-4.5c-0.3-0.8-0.7-1.5-1.2-1.8c-0.3-0.2-1-0.4-1.8-0.4h-1.4V35z M24.8,26.3h2.1
			c2.1,0,3.1-0.9,3.1-2.4c0-1.5-1-2.2-2.9-2.2h-2.3V26.3z"/>
	</g>
</g>
</svg>
