<?xml version="1.0" encoding="utf-8"?>
<!-- Generator: Adobe Illustrator 21.0.0, SVG Export Plug-In . SVG Version: 6.00 Build 0)  -->
<svg version="1.0" id="ƒŒƒCƒ„[_1" xmlns="http://www.w3.org/2000/svg" xmlns:xlink="http://www.w3.org/1999/xlink" x="0px"
	 y="0px" width="36px" height="45px" viewBox="0 0 36 45" style="enable-background:new 0 0 36 45;" xml:space="preserve">
<style type="text/css">
	.st0{fill:#FFFFFF;}
</style>
<polygon points="17.2,7 9,14.1 13.3,20.2 15.5,18 15.5,35.1 23.3,35.1 23.3,7 "/>
<g>
	<path class="st0" d="M21.3,33.1h-3.8V13.4l-4,3.8l-1.9-2.7L18,9h3.3V33.1z"/>
</g>
<g>
	<path d="M35,41H1V1h34V41z M33,3H3v36h30V3z"/>
</g>
<g>
	<path class="st0" d="M33,39H3V3h30V39z M31,5H5v32h26V5z"/>
</g>
<path d="M31,37H5V5h26V37z M29,7H7v28h22V7z"/>
</svg>
