<?xml version="1.0" encoding="utf-8"?>
<!-- Generator: Adobe Illustrator 15.0.0, SVG Export Plug-In . SVG Version: 6.00 Build 0)  -->
<!DOCTYPE svg PUBLIC "-//W3C//DTD SVG 1.0//EN" "http://www.w3.org/TR/2001/REC-SVG-20010904/DTD/svg10.dtd">
<svg version="1.0" id="ƒŒƒCƒ„[_1" xmlns="http://www.w3.org/2000/svg" xmlns:xlink="http://www.w3.org/1999/xlink" x="0px"
	 y="0px" width="24px" height="18px" viewBox="0 0 24 18" enable-background="new 0 0 24 18" xml:space="preserve">
<polygon points="11.57,2.859 6.057,6.168 9.238,9.284 10.307,8.587 10.307,15.178 15.283,15.178 15.283,2.859 "/>
<polygon fill="#FFFFFF" points="11.922,4.06 8.027,6.397 9.41,7.753 11.527,6.371 11.527,13.978 14.104,13.978 14.104,4.06 "/>
<g>
	<path d="M22,18H2V0h20V18z M21,1H3v16h18V1z"/>
</g>
<g>
	<path fill="#FFFFFF" d="M21,17H3V1h18V17z M19.5,2.5h-15v13h15V2.5z"/>
</g>
<g>
	<g>
		<rect x="3" y="1" fill="none" width="18" height="16"/>
	</g>
	<path d="M19.5,15.5h-15v-13h15V15.5z M18.5,3.5h-13v11h13V3.5z"/>
</g>
</svg>
