<?xml version="1.0" encoding="utf-8"?>
<!-- Generator: Adobe Illustrator 15.0.0, SVG Export Plug-In . SVG Version: 6.00 Build 0)  -->
<!DOCTYPE svg PUBLIC "-//W3C//DTD SVG 1.0//EN" "http://www.w3.org/TR/2001/REC-SVG-20010904/DTD/svg10.dtd">
<svg version="1.0" id="ƒŒƒCƒ„[_1" xmlns="http://www.w3.org/2000/svg" xmlns:xlink="http://www.w3.org/1999/xlink" x="0px"
	 y="0px" width="24px" height="18px" viewBox="0 0 24 18" enable-background="new 0 0 24 18" xml:space="preserve">
<g>
	<path d="M19.74,2.09C18.67,1.356,17.229,1,15.335,1H10v16h5.354v-5.018l0.334,0.004c1.631,0,2.967-0.348,3.972-1.033
		c1.541-1.052,2.355-2.607,2.355-4.499C22.015,4.615,21.228,3.105,19.74,2.09z M16.487,6.485c0,0.448-0.11,0.489-0.285,0.553
		c-0.027,0.009-0.221,0.059-0.849,0.095V5.804c0.695,0.047,0.911,0.118,0.946,0.131C16.379,5.966,16.487,6.008,16.487,6.485z"/>
	<g>
		<path fill="#FFFFFF" d="M13.854,10.463V15.5H11.5v-13h3.835c1.565,0,2.752,0.275,3.557,0.827c1.081,0.738,1.623,1.781,1.623,3.127
			c0,1.398-0.567,2.486-1.701,3.261c-0.753,0.514-1.796,0.771-3.126,0.771l-0.594-0.008l-0.842-0.008h-0.179L13.854,10.463z
			 M13.854,8.669h0.203c1.404-0.01,2.288-0.082,2.651-0.219c0.853-0.312,1.279-0.966,1.279-1.965c0-1.004-0.382-1.653-1.146-1.949
			C16.42,4.37,15.56,4.279,14.26,4.263h-0.194l-0.212-0.007V8.669z"/>
	</g>
</g>
</svg>
