<?xml version="1.0" encoding="utf-8"?>
<!-- Generator: Adobe Illustrator 21.0.0, SVG Export Plug-In . SVG Version: 6.00 Build 0)  -->
<svg version="1.0" id="ƒŒƒCƒ„[_1" xmlns="http://www.w3.org/2000/svg" xmlns:xlink="http://www.w3.org/1999/xlink" x="0px"
	 y="0px" width="72px" height="45px" viewBox="0 0 72 45" style="enable-background:new 0 0 72 45;" xml:space="preserve">
<style type="text/css">
	.st0{fill:#FFFFFF;}
</style>
<g>
	<g>
		<g>
			<path d="M7.7,9h4.4c2,0,3.4,0.4,4.2,1.1c1.3,1.1,2,2.8,2,5.1c0,2.9-1.1,4.8-3.4,5.6c2.6,0.6,3.8,2.5,3.8,5.8
				c0,2.5-0.7,4.4-2.2,5.6c-0.8,0.6-2,0.9-3.7,0.9H7.7V9z M10,11.9v7.3h2.3c2.5,0,3.8-1.2,3.8-3.6S14.7,12,11.8,12H10V11.9z M10,22
				v8.1h2.4c2.7,0,4.1-1.3,4.1-3.9c0-2.8-1.5-4.2-4.6-4.2H10z"/>
			<path d="M12.9,35.1H5.7V7h6.4c2.5,0,4.3,0.5,5.5,1.5c1.8,1.5,2.7,3.7,2.7,6.7c0,2.5-0.7,4.2-1.7,5.4c1.2,1.2,2.1,3,2.1,6
				c0,3.2-1,5.6-3,7.2C16.7,34.6,15.1,35.1,12.9,35.1z M12,28.1h0.4c1.8,0,2.1-0.5,2.1-1.9S14.1,24,12,24V28.1z M12,17.2h0.3
				c1.5,0,1.8-0.4,1.8-1.6c0-0.8,0-1.6-2.1-1.6V17.2z"/>
		</g>
		<g>
			<path d="M29.4,9l6.9,24.1h-2.6L32,27h-7.7l-1.6,6.1h-2.4L27,9H29.4z M31.2,24l-1.8-6.7c-0.7-2.4-1.1-4.2-1.3-5.4
				c-0.2,1.2-0.7,3-1.3,5.5L25,24H31.2z"/>
			<path d="M38.9,35.1h-6.7L30.5,29h-4.7l-1.6,6.1h-6.6L25.5,7h5.4L38.9,35.1z M27.6,22h1l-0.5-1.8L27.6,22z"/>
		</g>
		<g>
			<path d="M49.4,9.9l-0.2,3.3c-1.1-0.9-2.2-1.4-3.4-1.4c-2,0-3.5,1-4.7,3.1c-0.9,1.6-1.3,3.6-1.3,6c0,3,0.7,5.3,2.1,7.1
				c1.1,1.5,2.5,2.2,4,2.2c1,0,2.2-0.4,3.4-1.1l0.2,3.3c-1.1,0.5-2.3,0.8-3.6,0.8c-3.1,0-5.5-1.6-7-4.7c-1-2.1-1.5-4.7-1.5-7.6
				c0-4.3,1.1-7.5,3.2-9.8c1.5-1.6,3.2-2.3,5.2-2.3C47.2,8.8,48.4,9.1,49.4,9.9z"/>
			<path d="M46,35.2c-3.9,0-6.9-2-8.8-5.8c-1.2-2.4-1.7-5.2-1.7-8.5c0-4.8,1.3-8.5,3.7-11.2c1.8-2,4.1-2.9,6.6-2.9
				c1.7,0,3.3,0.5,4.7,1.4l0.9,0.6L51,17.2l-3-2.5c-0.7-0.6-1.4-0.9-2.1-0.9c-0.8,0-1.9,0.2-2.9,2.1c-0.7,1.3-1.1,3-1.1,5
				c0,2.5,0.6,4.5,1.6,5.9c1,1.3,1.9,1.4,2.5,1.4c0.7,0,1.5-0.3,2.4-0.8l2.8-1.6l0.4,7.9l-1.2,0.6C49.1,34.9,47.6,35.2,46,35.2z"/>
		</g>
		<g>
			<path d="M54.5,9v8c0,1.2,0,2.2,0,2.9c0.5-0.9,1-1.6,1.3-2.2L61.3,9h3l-7.5,11.4L65,33.1h-3.3l-5.8-9.4c-0.3-0.6-0.8-1.4-1.5-2.5
				c0,0.7,0,1.5,0,2.4v9.5h-2.3V9H54.5z"/>
			<path d="M68.7,35.1h-8.1l-4.1-6.6v6.6h-6.3V7h6.3v5.9L60.2,7H68l-8.8,13.4L68.7,35.1z M54.2,20.3v0.4l0.4-0.1l-0.1-0.2L54.2,20.3
				z"/>
		</g>
	</g>
</g>
<g>
	<path d="M71,41H1V1h70V41z M65,7H7v28h58V7z"/>
</g>
<g>
	<path class="st0" d="M67,5v32H5V5H67 M69,3H3v36h66V3L69,3z"/>
</g>
<g>
	<path class="st0" d="M7.7,9h4.4c2,0,3.4,0.4,4.2,1.1c1.3,1.1,2,2.8,2,5.1c0,2.9-1.1,4.8-3.4,5.6c2.6,0.6,3.8,2.5,3.8,5.8
		c0,2.5-0.7,4.4-2.2,5.6c-0.8,0.6-2,0.9-3.7,0.9H7.7V9z M10,11.9v7.3h2.3c2.5,0,3.8-1.2,3.8-3.6S14.7,12,11.8,12H10V11.9z M10,22
		v8.1h2.4c2.7,0,4.1-1.3,4.1-3.9c0-2.8-1.5-4.2-4.6-4.2H10z"/>
	<path class="st0" d="M29.4,9l6.9,24.1h-2.6L32,27h-7.7l-1.6,6.1h-2.4L27,9H29.4z M31.2,24l-1.8-6.7c-0.7-2.4-1.1-4.2-1.3-5.4
		c-0.2,1.2-0.7,3-1.3,5.5L25,24H31.2z"/>
	<path class="st0" d="M49.4,9.9l-0.2,3.3c-1.1-0.9-2.2-1.4-3.4-1.4c-2,0-3.5,1-4.7,3.1c-0.9,1.6-1.3,3.6-1.3,6c0,3,0.7,5.3,2.1,7.1
		c1.1,1.5,2.5,2.2,4,2.2c1,0,2.2-0.4,3.4-1.1l0.2,3.3c-1.1,0.5-2.3,0.8-3.6,0.8c-3.1,0-5.5-1.6-7-4.7c-1-2.1-1.5-4.7-1.5-7.6
		c0-4.3,1.1-7.5,3.2-9.8c1.5-1.6,3.2-2.3,5.2-2.3C47.2,8.8,48.4,9.1,49.4,9.9z"/>
	<path class="st0" d="M54.5,9v8c0,1.2,0,2.2,0,2.9c0.5-0.9,1-1.6,1.3-2.2L61.3,9h3l-7.5,11.4L65,33.1h-3.3l-5.8-9.4
		c-0.3-0.6-0.8-1.4-1.5-2.5c0,0.7,0,1.5,0,2.4v9.5h-2.3V9H54.5z"/>
</g>
</svg>
