<?xml version="1.0" encoding="utf-8"?>
<!-- Generator: Adobe Illustrator 21.0.0, SVG Export Plug-In . SVG Version: 6.00 Build 0)  -->
<svg version="1.0" id="ƒŒƒCƒ„[_1" xmlns="http://www.w3.org/2000/svg" xmlns:xlink="http://www.w3.org/1999/xlink" x="0px"
	 y="0px" width="36px" height="45px" viewBox="0 0 36 45" style="enable-background:new 0 0 36 45;" xml:space="preserve">
<style type="text/css">
	.st0{fill:#FFFFFF;}
</style>
<g>
	<g>
		<g>
			<path d="M12.1,37c-2.7,0-5.1-1.2-7.2-3.6C3.3,31.7,3,28.8,3,28.2v-11l12.7,12.4V37H12.1z"/>
			<path d="M4,19.6L14.7,30v6c-1.3,0-2.4,0-2.7,0l0,0c-3,0-5.1-1.8-6.5-3.3C4.3,31.3,4,28.6,4,28.2C4,28,4,19.6,4,19.6 M2,14.8v4.7
				v8.6c0,0.8,0.4,4,2.1,5.9c2.3,2.6,5,3.9,8,3.9h2.7h2v-2v-6v-0.8l-0.6-0.6L5.4,18.1L2,14.8L2,14.8z"/>
		</g>
		<g>
			<path d="M15.6,37V24.5c-2.7-0.4-4.7-1.5-6-3.3c-1.6-2.2-1.9-5.5-1-9.4c0.5-2.2,2.2-4.3,2.3-4.4l0.9-1.1l0.8,1.2
				c0,0,1.3,1.9,2.5,3.4c0.1-0.2,0.2-0.4,0.4-0.6c0.6-1.1,1.3-2.1,1.9-2.9L18,6.5l0.7,0.8c0.6,0.7,1.3,1.8,1.9,2.9
				c0.1,0.2,0.3,0.4,0.4,0.6c1.2-1.5,2.5-3.4,2.5-3.4l0.8-1.2l0.9,1.1c0.1,0.1,1.7,2.2,2.3,4.4c0.9,3.9,0.6,7.1-1,9.4
				c-1.3,1.8-3.3,2.9-6,3.3v5L33,17.2v11c0,0.6-0.3,3.5-1.8,5.2C29,35.8,26.6,37,24,37H15.6z"/>
			<path d="M24.3,8c0,0,1.6,2.1,2.1,4c1.2,5.2,0.5,10.9-7,11.5v8.2L32,19.6c0,0,0,8.4,0,8.6c0,0.4-0.3,3.1-1.6,4.6
				C29.1,34.2,27,36,24,36l0,0c-0.4,0-3.9,0-5.9,0c-0.4,0-0.9,0-1.4,0v-7.4l0,0v-5.1c-7.5-0.7-8.3-6.4-7-11.5c0.5-2,2.1-4,2.1-4
				s2,3,3.4,4.5c0.8-1,1.9-3.4,2.9-4.5c1,1.1,2.1,3.5,2.9,4.5C22.3,11,24.3,8,24.3,8 M24.2,4.6l-1.5,2.3c0,0-0.7,1.1-1.5,2.2
				c-0.5-0.9-1.1-1.7-1.6-2.4L18,5l-1.5,1.7c-0.6,0.6-1.1,1.5-1.6,2.4c-0.8-1.1-1.5-2.2-1.5-2.2l-1.5-2.3l-1.7,2.2
				c-0.3,0.2-2,2.4-2.6,4.8c-1,4.2-0.6,7.7,1.2,10.2c1.3,1.8,3.2,3,5.8,3.5v3.3V36v2h2H18h5.9c3,0,5.7-1.3,8-3.9
				c1.7-2,2.1-5.2,2.1-5.9v-8.6v-4.7l-3.4,3.3L27.7,21c1.3-2.4,1.6-5.6,0.6-9.4C27.7,9.3,26,7,25.9,6.8L24.2,4.6L24.2,4.6z
				 M21.4,25.3c1.1-0.2,2-0.6,2.9-1l-2.9,2.8V25.3L21.4,25.3z"/>
		</g>
	</g>
</g>
<g>
	<g>
		<path class="st0" d="M4,19.6c0,0,0,8.4,0,8.6c0,0.4,0.3,3.1,1.6,4.6C6.9,34.2,9,36,12,36l0,0c0.2,0,1.4,0,2.7,0v-6L4,19.6z"/>
		<path class="st0" d="M19.4,31.8v-8.2c7.5-0.7,8.3-6.4,7-11.5c-0.5-2-2.1-4-2.1-4s-2,3-3.4,4.5C20.1,11.5,19,9.1,18,8
			c-1,1.1-2.1,3.5-2.9,4.5C13.7,11,11.7,8,11.7,8s-1.6,2.1-2.1,4c-1.2,5.2-0.5,10.9,7,11.5v5.1l0,0V36c0.5,0,1,0,1.4,0
			c2.1,0,5.5,0,5.9,0l0,0c3,0,5.1-1.8,6.5-3.3c1.3-1.5,1.6-4.2,1.6-4.6c0-0.2,0-8.6,0-8.6L19.4,31.8z"/>
	</g>
</g>
</svg>
