<?xml version="1.0" encoding="utf-8"?>
<!-- Generator: Adobe Illustrator 21.0.0, SVG Export Plug-In . SVG Version: 6.00 Build 0)  -->
<svg version="1.0" id="ƒŒƒCƒ„[_1" xmlns="http://www.w3.org/2000/svg" xmlns:xlink="http://www.w3.org/1999/xlink" x="0px"
	 y="0px" width="36px" height="45px" viewBox="0 0 36 45" style="enable-background:new 0 0 36 45;" xml:space="preserve">
<style type="text/css">
	.st0{fill:#FFFFFF;}
</style>
<path d="M14.9,7L4.4,35.1H12l2.2-6.1h7.5l2.2,6.1h7.7L20.9,7H14.9z M16.6,22l1.3-3.6l1.3,3.6H16.6z"/>
<g>
	<path d="M35,41H1V1h34V41z M33,3H3v36h30V3z"/>
</g>
<g>
	<path class="st0" d="M33,39H3V3h30V39z M31,5H5v32h26V5z"/>
</g>
<path d="M31,37H5V5h26V37z M29,7H7v28h22V7z"/>
<g>
	<g>
		<path class="st0" d="M19.5,9l9.2,24.1h-3.4L23.1,27H12.8l-2.2,6.1H7.3l9-24.1C16.3,9,19.5,9,19.5,9z M22,24l-2.4-6.7
			c-0.9-2.4-1.5-4.2-1.7-5.4c-0.3,1.2-0.9,3-1.7,5.5L13.7,24H22z"/>
	</g>
</g>
</svg>
