<?xml version="1.0" encoding="utf-8"?>
<!-- Generator: Adobe Illustrator 21.0.0, SVG Export Plug-In . SVG Version: 6.00 Build 0)  -->
<svg version="1.0" id="ƒŒƒCƒ„[_1" xmlns="http://www.w3.org/2000/svg" xmlns:xlink="http://www.w3.org/1999/xlink" x="0px"
	 y="0px" width="54px" height="45px" viewBox="0 0 54 45" style="enable-background:new 0 0 54 45;" xml:space="preserve">
<style type="text/css">
	.st0{fill:#FFFFFF;}
</style>
<g>
	<path d="M50,4.2v33.7C42.9,37.3,33.2,37,27,37s-15.9,0.3-23,0.8V4.2C11.1,4.7,20.8,5,27,5S42.9,4.7,50,4.2z M52,2
		c-7.6,0.7-18.1,1-25,1S9.6,2.7,2,2v38c7.6-0.7,18.1-1,25-1s17.4,0.4,25,1V2L52,2z"/>
</g>
<g>
	<g>
		<path d="M44.4,28c-0.3,0-0.6,0-0.9-0.1c-1.6-0.5-2.5-2.1-2-3.7C41.8,23.1,42,22,42,21s-0.2-2.1-0.5-3.1c-0.5-1.6,0.4-3.3,2-3.7
			c1.6-0.5,3.3,0.4,3.7,2c0.5,1.6,0.7,3.3,0.7,4.9s-0.2,3.2-0.7,4.9C46.9,27.2,45.7,28,44.4,28z"/>
		<path d="M9.6,28c-1.3,0-2.5-0.8-2.9-2.1C6.2,24.2,6,22.6,6,21s0.2-3.2,0.7-4.9c0.5-1.6,2.1-2.5,3.7-2c1.6,0.5,2.5,2.1,2,3.7
			C12.2,18.9,12,20,12,21s0.2,2.1,0.5,3.1c0.5,1.6-0.4,3.3-2,3.7C10.2,28,9.9,28,9.6,28z"/>
		<path d="M39.1,30c-0.6,0-1.1-0.2-1.7-0.5c-1.4-0.9-1.8-2.8-0.8-4.2C37.5,24,38,22.5,38,21s-0.5-3-1.4-4.3
			c-0.9-1.4-0.5-3.2,0.8-4.2c1.4-0.9,3.2-0.5,4.2,0.8c1.5,2.3,2.4,5,2.4,7.7s-0.8,5.3-2.4,7.7C41.1,29.5,40.1,30,39.1,30z"/>
		<path d="M14.9,30c-1,0-1.9-0.5-2.5-1.3c-1.5-2.3-2.4-5-2.4-7.7s0.8-5.3,2.4-7.7c0.9-1.4,2.8-1.8,4.2-0.8c1.4,0.9,1.8,2.8,0.8,4.2
			C16.5,18,16,19.5,16,21s0.5,3,1.4,4.3c0.9,1.4,0.5,3.2-0.8,4.2C16,29.8,15.4,30,14.9,30z"/>
	</g>
</g>
<g>
	<path d="M27.1,7c-1.3,0-2.5,0.8-3.1,1.9c-0.3-0.1-0.6-0.1-1-0.1c-1.8,0-3.3,1.5-3.3,3.3v7.6c-0.6-0.6-1.5-0.8-2.5-0.8
		c-2.1,0-3.7,1.5-3.7,3.3c0,0.5,0.1,1,0.3,1.4l0.1,0.2l0.1,0.2l3.1,5.2l0,0l0,0l0,0.1c2.3,3.8,6.1,5.9,10.7,5.9c0.2,0,0.7,0,1.1,0
		c0.3,0,0.5,0,0.6,0c3.1,0,7.2-2.5,8.3-5c0.3-0.7,0.4-1.3,0.5-1.7c0.1-0.6,0.2-1.4,0.2-1.9V14.5c0-1.8-1.6-3.4-3.4-3.4
		c-0.2,0-0.4,0-0.6,0c-0.2-1.7-1.7-3-3.4-3c-0.4,0-0.8,0.1-1.2,0.2C29.2,7.5,28.2,7,27.1,7L27.1,7z"/>
</g>
<g>
	<path class="st0" d="M48,6.3v29.4C41,35.2,32.4,35,27,35s-14,0.2-21,0.7V6.3C13,6.8,21.6,7,27,7S41,6.8,48,6.3 M50,4.2
		C42.9,4.7,33.2,5,27,5S11.1,4.7,4,4.2v33.7c7.1-0.6,16.8-0.8,23-0.8s15.9,0.3,23,0.8V4.2L50,4.2z"/>
</g>
<g>
	<path d="M46,8.5v25.1C39.3,33.2,31.9,33,27,33s-12.3,0.2-19,0.6V8.5C14.7,8.8,22.1,9,27,9S39.3,8.8,46,8.5 M48,6.3
		C41,6.8,32.4,7,27,7S13,6.8,6,6.3v29.4c7-0.5,15.6-0.7,21-0.7s14,0.2,21,0.7V6.3L48,6.3z"/>
</g>
<g>
	<g>
		<path class="st0" d="M44.4,26.3c-0.1,0-0.2,0-0.4-0.1c-0.7-0.2-1-0.9-0.8-1.6c0.4-1.2,0.6-2.5,0.6-3.6s-0.2-2.4-0.6-3.6
			C43,16.7,43.4,16,44,15.8c0.7-0.2,1.4,0.2,1.6,0.8c0.4,1.5,0.7,2.9,0.7,4.4s-0.2,2.9-0.7,4.4C45.4,25.9,44.9,26.3,44.4,26.3z"/>
		<path class="st0" d="M9.6,26.3c-0.5,0-1-0.3-1.2-0.9C8,23.9,7.8,22.4,7.8,21s0.2-2.9,0.7-4.4c0.2-0.7,0.9-1,1.6-0.8
			c0.7,0.2,1,0.9,0.8,1.6c-0.4,1.2-0.6,2.5-0.6,3.6s0.2,2.4,0.6,3.6c0.2,0.7-0.2,1.4-0.8,1.6C9.8,26.2,9.7,26.3,9.6,26.3z"/>
		<path class="st0" d="M39.1,28.3c-0.2,0-0.5-0.1-0.7-0.2c-0.6-0.4-0.7-1.2-0.3-1.7c1.1-1.6,1.6-3.5,1.6-5.3s-0.6-3.7-1.6-5.3
			c-0.4-0.6-0.2-1.4,0.3-1.7c0.6-0.4,1.4-0.2,1.7,0.3c1.4,2,2.1,4.3,2.1,6.7s-0.7,4.7-2.1,6.7C39.9,28.1,39.5,28.3,39.1,28.3z"/>
		<path class="st0" d="M14.9,28.3c-0.4,0-0.8-0.2-1-0.6c-1.4-2-2.1-4.3-2.1-6.7s0.7-4.7,2.1-6.7c0.4-0.6,1.2-0.7,1.7-0.3
			c0.6,0.4,0.7,1.2,0.3,1.7c-1.1,1.6-1.6,3.5-1.6,5.3s0.6,3.7,1.6,5.3c0.4,0.6,0.2,1.4-0.3,1.7C15.3,28.2,15.1,28.3,14.9,28.3z"/>
	</g>
</g>
<g>
	<path class="st0" d="M27.1,9.3c0.4,0,0.9,0.3,1,0.7c0.1,0.2,0.1,0.4,0.1,0.5c0,0.2,0,9.3,0,9.3c0,0.3,0.7,0.6,0.9,0.6
		c0.3,0,0.9-0.3,0.9-0.6c0,0,0-8.6,0-8.7c0-0.1,0-0.3,0.1-0.3c0-0.1,0.1-0.2,0.2-0.2c0,0,0.1,0,0.1-0.1c0.2-0.1,0.4-0.2,0.6-0.2
		c0.6,0,1.1,0.6,1.1,1.2c0,0.1,0,0.2,0,0.2s0,8.6,0,8.6c0,0.3,0.7,0.6,0.9,0.6c0.3,0,0.9-0.3,0.9-0.6c0,0,0-5.9,0-6.1
		c0-0.1,0-0.4,0.1-0.5c0,0,0.1-0.1,0.2-0.2c0.1,0,0.1,0,0.1-0.1c0.1-0.1,0.3-0.1,0.6-0.1c0.6,0,1.1,0.6,1.1,1.1c0,0,0,11.4,0,11.9
		s0,1-0.1,1.4c-0.1,0.3-0.2,0.7-0.4,1.3c-0.7,1.6-3.8,3.5-6.1,3.5c-0.2,0-1.4,0-1.7,0c-2.1,0-6.1-0.5-8.7-4.8l0-0.1L16,22.7
		c-0.1-0.2-0.1-0.4-0.1-0.5c0-0.5,0.6-1,1.3-1c0.5,0,0.9,0.1,1,0.3c0.2,0.2,1.8,2.1,1.8,2.1c0.2,0.3,0.6,0.4,0.9,0.4
		c0.1,0,0.3,0,0.4-0.1c0.5-0.2,0.6-0.7,0.6-1.2V12.1c0-0.5,0.5-1,1-1c0.2,0,0.4,0.1,0.6,0.2c0.1,0.1,0.2,0.1,0.3,0.3
		c0.1,0.2,0.2,0.4,0.2,0.6c0,0.1,0,7.6,0,7.6c0,0.3,0.7,0.6,0.9,0.6c0.3,0,0.9-0.3,0.9-0.6c0,0,0-9,0-9.1c0-0.1,0-0.3,0-0.3
		C26.1,9.8,26.6,9.3,27.1,9.3z"/>
</g>
</svg>
