<?xml version="1.0" encoding="utf-8"?>
<!-- Generator: Adobe Illustrator 15.0.0, SVG Export Plug-In . SVG Version: 6.00 Build 0)  -->
<!DOCTYPE svg PUBLIC "-//W3C//DTD SVG 1.0//EN" "http://www.w3.org/TR/2001/REC-SVG-20010904/DTD/svg10.dtd">
<svg version="1.0" id="ƒŒƒCƒ„[_1" xmlns="http://www.w3.org/2000/svg" xmlns:xlink="http://www.w3.org/1999/xlink" x="0px"
	 y="0px" width="36px" height="18px" viewBox="0 0 36 18" enable-background="new 0 0 36 18" xml:space="preserve">
<g>
	<g>
		<path d="M4.121,14.018V4.013h1.784c1.637,0,2.844,0.322,3.62,0.967c0.986,0.82,1.479,2.138,1.479,3.951
			c0,3.392-1.529,5.087-4.588,5.087H4.121z M5.576,12.654h0.116h0.053h0.111H6.03c2.275,0,3.413-1.211,3.413-3.633
			c0-1.153-0.28-2.055-0.841-2.703C8.147,5.79,7.471,5.494,6.572,5.43c-0.268-0.021-0.6-0.034-0.996-0.042V12.654z"/>
		<path d="M6.417,15.218H2.921V2.813h2.984c1.943,0,3.379,0.407,4.387,1.244c1.27,1.056,1.913,2.695,1.913,4.874
			C12.205,12.984,10.149,15.218,6.417,15.218z M6.776,6.66v4.737c0.922-0.167,1.467-0.75,1.467-2.376
			c0-0.852-0.185-1.497-0.549-1.918C7.616,7.012,7.4,6.762,6.776,6.66z"/>
	</g>
	<g>
		<path d="M16.071,14.018h-1.437V5.844l-1.513,1.574l-0.716-1.117L14.8,4.013h1.271V14.018z"/>
		<polygon points="17.271,15.218 13.435,15.218 13.435,8.824 12.933,9.347 10.862,6.116 14.318,2.813 17.271,2.813 		"/>
	</g>
	<g>
		<path d="M19.012,12.216v1.802h-1.47v-1.802H19.012z"/>
		<rect x="16.342" y="11.016" width="3.87" height="4.202"/>
	</g>
	<g>
		<path d="M26.165,10.601v1.352h-1.083v2.065h-1.436v-2.065h-3.567v-1.58l3.074-6.359h1.929v6.588H26.165z M23.676,10.601
			l0.038-4.042c0.004-0.28,0.044-0.725,0.121-1.333c-0.193,0.484-0.356,0.862-0.488,1.135l-2.011,4.24H23.676z"/>
		<polygon points="26.282,15.218 22.446,15.218 22.446,13.152 18.879,13.152 18.879,10.098 22.4,2.813 26.282,2.813 26.282,9.4 
			27.365,9.4 27.365,13.152 26.282,13.152 		"/>
	</g>
	<g>
		<path d="M32.638,14.018h-1.634L29.896,11.7c-0.016-0.028-0.067-0.133-0.154-0.313c-0.071-0.141-0.145-0.299-0.223-0.475
			c-0.103,0.264-0.227,0.542-0.372,0.835l-1.111,2.27h-1.47l2.088-3.88L26.76,6.589h1.59l1.112,2.192
			c0.09,0.176,0.167,0.36,0.232,0.552c0.051-0.124,0.1-0.235,0.145-0.336c0.074-0.172,0.151-0.343,0.232-0.511l0.933-1.897h1.406
			l-1.827,3.549L32.638,14.018z"/>
		<polygon points="34.631,15.218 30.247,15.218 29.525,13.706 28.785,15.218 24.558,15.218 27.293,10.136 24.759,5.389 
			29.086,5.389 29.681,6.561 30.257,5.389 34.378,5.389 31.937,10.13 		"/>
	</g>
</g>
<g>
	<path d="M36,18H0V0h36V18z M35,1H1v16h34V1z"/>
</g>
<path fill="#FFFFFF" d="M35,17H1V1h34V17z M34,2H2v14h32V2z"/>
<path d="M34,2H2v14h32V2z M33,15H3V3h30V15z"/>
<g>
	<path fill="#FFFFFF" d="M4.121,14.017V4.012h1.784c1.637,0,2.844,0.322,3.62,0.967c0.986,0.82,1.479,2.138,1.479,3.951
		c0,3.392-1.529,5.087-4.588,5.087H4.121z M5.576,12.653h0.116h0.053h0.111H6.03c2.275,0,3.413-1.211,3.413-3.633
		c0-1.153-0.28-2.055-0.841-2.703c-0.455-0.528-1.132-0.824-2.03-0.889c-0.268-0.021-0.6-0.034-0.996-0.042V12.653z"/>
	<path fill="#FFFFFF" d="M16.071,14.017h-1.437V5.843l-1.513,1.574L12.406,6.3L14.8,4.012h1.271V14.017z"/>
	<path fill="#FFFFFF" d="M19.012,12.215v1.802h-1.47v-1.802H19.012z"/>
	<path fill="#FFFFFF" d="M26.165,10.6v1.352h-1.083v2.065h-1.436v-2.065h-3.567v-1.58l3.074-6.359h1.929V10.6H26.165z M23.676,10.6
		l0.038-4.042c0.004-0.28,0.044-0.725,0.121-1.333c-0.193,0.484-0.356,0.862-0.488,1.135l-2.011,4.24H23.676z"/>
	<path fill="#FFFFFF" d="M32.638,14.017h-1.634l-1.107-2.317c-0.016-0.028-0.067-0.133-0.154-0.313
		c-0.071-0.141-0.145-0.299-0.223-0.475c-0.103,0.264-0.227,0.542-0.372,0.835l-1.111,2.27h-1.47l2.088-3.88L26.76,6.588h1.59
		l1.112,2.192c0.09,0.176,0.167,0.36,0.232,0.552c0.051-0.124,0.1-0.235,0.145-0.336c0.074-0.172,0.151-0.343,0.232-0.511
		l0.933-1.897h1.406l-1.827,3.549L32.638,14.017z"/>
</g>
</svg>
