<?xml version="1.0" encoding="utf-8"?>
<!-- Generator: Adobe Illustrator 21.0.0, SVG Export Plug-In . SVG Version: 6.00 Build 0)  -->
<svg version="1.0" id="ƒŒƒCƒ„[_1" xmlns="http://www.w3.org/2000/svg" xmlns:xlink="http://www.w3.org/1999/xlink" x="0px"
	 y="0px" width="54px" height="45px" viewBox="0 0 54 45" style="enable-background:new 0 0 54 45;" xml:space="preserve">
<style type="text/css">
	.st0{fill:#FFFFFF;}
</style>
<g>
	<path d="M53,41H1V1h52V41z M47,7H7v28h40V7z"/>
</g>
<g>
	<path class="st0" d="M49,5v32H5V5H49 M51,3H3v36h48V3L51,3z"/>
</g>
<path d="M48.3,25.6l-2.9,1.7c-0.9,0.5-1.6,0.8-2.2,0.8c-0.5,0-1.4-0.1-2.3-1.4c-1.1-1.4-1.6-3.4-1.6-5.9c0-2,0.3-3.7,1-5
	c1-1.8,1.9-2.1,2.7-2.1c0.6,0,1.2,0.3,1.9,0.9l3.1,2.7l0.5-8.5l-0.9-0.6c-1.4-1-2.9-1.4-4.6-1.4c-2.5,0-4.6,1-6.4,3
	c-1.1,1.2-2,2.7-2.6,4.4c-0.2-2.5-1.1-4.4-2.7-5.7C30,7.5,28.2,7,25.6,7h-5.9H19H5.9v28.1h6.6v-11H19v11h7.4c2.2,0,3.9-0.4,5-1.3
	c1.6-1.2,2.6-2.9,2.9-5.1c0.1,0.3,0.2,0.5,0.3,0.8c2.3,4.9,5.9,5.9,8.5,5.9c1.5,0,3-0.4,4.3-1l1.1-0.6L48.3,25.6z M12.5,17.1v-3.2
	H19v3.2H12.5z M28.1,26.3c0,1.1-0.2,1.9-2.2,1.9h-0.5V24C27.9,24,28.1,25,28.1,26.3z M25.4,17.2v-3.3c2.3,0,2.3,0.9,2.3,1.6
	c0,1-0.1,1.6-2,1.6h-0.3V17.2z M32.3,20.6c0.3-0.3,0.5-0.6,0.7-1c0,0.4,0,0.9,0,1.3c0,0.2,0,0.3,0,0.5
	C32.8,21.1,32.6,20.8,32.3,20.6z"/>
<g>
	<path class="st0" d="M17.7,9v3h-7.2v7.2h7v3h-7v11H7.9V9H17.7z"/>
	<path class="st0" d="M21,9h4.6c2.1,0,3.5,0.4,4.4,1.1c1.4,1.1,2,2.8,2,5.1c0,2.9-1.2,4.8-3.5,5.6c2.7,0.6,4,2.5,4,5.8
		c0,2.5-0.8,4.4-2.3,5.6c-0.8,0.6-2.1,0.9-3.8,0.9H21V9z M23.4,11.9v7.3h2.4c2.6,0,4-1.2,4-3.6S28.3,12,25.4,12h-2V11.9z M23.4,22
		v8.1h2.5c2.8,0,4.2-1.3,4.2-3.9c0-2.8-1.6-4.2-4.8-4.2H23.4z"/>
	<path class="st0" d="M46.5,9.9l-0.2,3.3c-1.1-0.9-2.2-1.4-3.2-1.4c-1.9,0-3.4,1-4.5,3.1c-0.8,1.6-1.3,3.6-1.3,6c0,3,0.7,5.3,2,7.1
		c1.1,1.5,2.4,2.2,3.9,2.2c1,0,2.1-0.4,3.3-1.1l0.2,3.3c-1.1,0.5-2.2,0.8-3.4,0.8c-3,0-5.3-1.6-6.7-4.7c-1-2.1-1.5-4.7-1.5-7.6
		c0-4.3,1-7.5,3.1-9.8c1.4-1.6,3.1-2.3,5-2.3C44.3,8.8,45.4,9.1,46.5,9.9z"/>
</g>
</svg>
