<?xml version="1.0" encoding="utf-8"?>
<!-- Generator: Adobe Illustrator 21.0.0, SVG Export Plug-In . SVG Version: 6.00 Build 0)  -->
<svg version="1.0" id="ƒŒƒCƒ„[_1" xmlns="http://www.w3.org/2000/svg" xmlns:xlink="http://www.w3.org/1999/xlink" x="0px"
	 y="0px" width="108px" height="45px" viewBox="0 0 108 45" style="enable-background:new 0 0 108 45;" xml:space="preserve">
<style type="text/css">
	.st0{fill:#FFFFFF;}
</style>
<g>
	<g>
		<g>
			<g>
				<path d="M10.9,9h4.4c2,0,3.4,0.4,4.2,1.1c1.3,1.1,2,2.8,2,5.1c0,2.9-1.1,4.8-3.4,5.6c2.6,0.6,3.8,2.5,3.8,5.8
					c0,2.5-0.7,4.4-2.2,5.6c-0.8,0.6-2,0.9-3.7,0.9h-5.2V9H10.9z M13.1,11.9v7.3h2.3c2.5,0,3.8-1.2,3.8-3.6S17.8,12,14.9,12h-1.8
					V11.9z M13.1,22v8.1h2.4c2.7,0,4.1-1.3,4.1-3.9c0-2.8-1.5-4.2-4.6-4.2H13.1z"/>
				<path d="M16,35.1H8.9V7h6.4c2.5,0,4.3,0.5,5.5,1.5c1.8,1.5,2.7,3.7,2.7,6.7c0,2.5-0.7,4.2-1.7,5.4c1.2,1.2,2.1,3,2.1,6
					c0,3.2-1,5.6-3,7.2C19.8,34.6,18.2,35.1,16,35.1z M15.1,28.1h0.4c1.8,0,2.1-0.5,2.1-1.9c0-1.2-0.2-2.2-2.5-2.2V28.1z M15.1,17.2
					h0.3c1.5,0,1.8-0.4,1.8-1.6c0-0.8,0-1.6-2.1-1.6V17.2z"/>
			</g>
			<g>
				<path d="M32.5,9l6.9,24.1h-2.6L35.2,27h-7.7l-1.6,6.1h-2.4L30.1,9H32.5z M34.4,24l-1.8-6.7c-0.7-2.4-1.1-4.2-1.3-5.4
					c-0.2,1.2-0.7,3-1.3,5.5L28.2,24H34.4z"/>
				<path d="M42,35.1h-6.7L33.6,29H29l-1.6,6.1h-6.6L28.6,7H34L42,35.1z M30.8,22h1l-0.5-1.8L30.8,22z"/>
			</g>
			<g>
				<path d="M52.6,9.9l-0.2,3.3c-1.1-0.9-2.2-1.4-3.4-1.4c-2,0-3.5,1-4.7,3.1c-0.9,1.6-1.3,3.6-1.3,6c0,3,0.7,5.4,2.1,7.1
					c1.1,1.5,2.5,2.2,4,2.2c1,0,2.2-0.4,3.4-1.1l0.2,3.3c-1.1,0.6-2.3,0.8-3.6,0.8c-3.1,0-5.5-1.6-7-4.7c-1-2.1-1.5-4.7-1.5-7.6
					c0-4.3,1.1-7.5,3.2-9.8C45.3,9.6,47,8.8,49,8.8C50.3,8.8,51.5,9.1,52.6,9.9z"/>
				<path d="M49.2,35.2c-3.9,0-6.9-2-8.8-5.8c-1.2-2.4-1.7-5.2-1.7-8.5c0-4.8,1.3-8.5,3.7-11.1c1.8-2,4.1-2.9,6.6-2.9
					c1.7,0,3.3,0.5,4.7,1.4l0.9,0.6l-0.5,8.4L51,14.7c-0.7-0.6-1.4-0.9-2.1-0.9c-0.8,0-1.9,0.2-2.9,2.1c-0.7,1.3-1.1,3-1.1,5
					c0,2.5,0.6,4.5,1.6,5.9c1,1.3,1.9,1.4,2.5,1.4c0.7,0,1.5-0.3,2.4-0.8l2.8-1.6l0.4,7.9l-1.2,0.6C52.2,34.9,50.7,35.2,49.2,35.2z"
					/>
			</g>
			<g>
				<path d="M57.6,9v8c0,1.2,0,2.2,0,2.9c0.5-0.9,1-1.6,1.3-2.2L64.4,9h3L60,20.4l8.1,12.7h-3.3L59,23.7c-0.3-0.6-0.8-1.4-1.5-2.5
					c0,0.7,0,1.5,0,2.4v9.5h-2.3V9H57.6z"/>
				<path d="M71.8,35.1h-8.1l-4.1-6.6v6.6h-6.3V7h6.3v5.9L63.3,7h7.8l-8.8,13.4L71.8,35.1z M57.4,20.3v0.4l0.4-0.1l-0.1-0.2
					L57.4,20.3z"/>
			</g>
			<g>
				<path d="M82.5,10l-0.2,3.3c-1.3-1-2.6-1.6-4-1.6c-2,0-3.6,1-4.8,2.9c-1,1.7-1.6,3.8-1.6,6.3c0,3.5,0.8,6,2.5,7.7
					c1.1,1.1,2.4,1.7,3.9,1.7c0.7,0,1.4-0.2,2.2-0.5v-7h-3.4v-3h5.6v12.3c-1.5,0.7-3.1,1.1-4.6,1.1c-2.7,0-4.8-1.1-6.3-3.2
					c-1.6-2.2-2.4-5.3-2.4-9.2c0-3.7,0.8-6.7,2.4-8.9c1.6-2.1,3.7-3.2,6.2-3.2C79.6,8.8,81.1,9.2,82.5,10z"/>
				<path d="M78.2,35.2c-3.3,0-6-1.4-7.9-4s-2.8-6.1-2.8-10.4c0-4.2,1-7.6,2.8-10.1c2-2.7,4.6-4,7.8-4c1.8,0,3.6,0.5,5.3,1.4
					l1.1,0.6l-0.4,8.5L81,14.8c-0.9-0.7-1.8-1.1-2.8-1.1c-0.9,0-2,0.2-3.1,2c-0.8,1.3-1.2,3.1-1.2,5.3c0,2.9,0.7,5,1.9,6.3
					c0.8,0.8,1.6,1.2,2.7,1.1v-3.5h-3.4v-7h9.6v15.5l-1.1,0.5C81.8,34.8,80,35.2,78.2,35.2z"/>
			</g>
			<g>
				<path d="M86.7,9h3.8c2.7,0,4.5,0.5,5.4,1.6c1,1.2,1.5,2.8,1.5,4.8c0,3.1-1.1,5-3.4,5.6c0.8,0.6,1.5,1.7,2,3.3l2.7,8.8H96l-2-7.3
					c-0.5-1.8-1-2.8-1.4-3.1c-0.3-0.3-1.1-0.4-2.3-0.4H89v10.8h-2.3C86.7,33.1,86.7,9,86.7,9z M88.9,11.9v7.4h1.4c2,0,3.3-0.3,3.8-1
					c0.6-0.7,0.8-1.6,0.8-2.7c0-1.5-0.4-2.5-1.2-3c-0.6-0.4-1.7-0.7-3.3-0.7H88.9z"/>
				<path d="M101.3,35.1h-6.8L92,26.4c-0.3-1.2-0.6-1.8-0.7-2c-0.1,0-0.2,0-0.4,0v10.7h-6.3V7h5.8c3.4,0,5.7,0.7,6.9,2.3
					c1.3,1.5,1.9,3.6,1.9,6.1c0,3.2-1,5.1-2.3,6.2c0.3,0.6,0.6,1.3,0.9,2.1L101.3,35.1z M90.9,13.9v3.4c1.4-0.1,1.7-0.3,1.7-0.3
					c0.2-0.3,0.3-0.7,0.3-1.4c0-0.9-0.2-1.3-0.3-1.4C92.7,14.2,92.3,13.9,90.9,13.9z"/>
			</g>
		</g>
	</g>
	<g>
		<path class="st0" d="M10.9,9h4.4c2,0,3.4,0.4,4.2,1.1c1.3,1.1,2,2.8,2,5.1c0,2.9-1.1,4.8-3.4,5.6c2.6,0.6,3.8,2.5,3.8,5.8
			c0,2.5-0.7,4.4-2.2,5.6c-0.8,0.6-2,0.9-3.7,0.9h-5.2V9H10.9z M13.1,11.9v7.3h2.3c2.5,0,3.8-1.2,3.8-3.6S17.8,12,14.9,12h-1.8V11.9
			z M13.1,22v8.1h2.4c2.7,0,4.1-1.3,4.1-3.9c0-2.8-1.5-4.2-4.6-4.2H13.1z"/>
		<path class="st0" d="M32.5,9l6.9,24.1h-2.6L35.2,27h-7.7l-1.6,6.1h-2.4L30.1,9H32.5z M34.4,24l-1.8-6.7c-0.7-2.4-1.1-4.2-1.3-5.4
			c-0.2,1.2-0.7,3-1.3,5.5L28.2,24H34.4z"/>
		<path class="st0" d="M52.6,9.9l-0.2,3.3c-1.1-0.9-2.2-1.4-3.4-1.4c-2,0-3.5,1-4.7,3.1c-0.9,1.6-1.3,3.6-1.3,6c0,3,0.7,5.4,2.1,7.1
			c1.1,1.5,2.5,2.2,4,2.2c1,0,2.2-0.4,3.4-1.1l0.2,3.3c-1.1,0.6-2.3,0.8-3.6,0.8c-3.1,0-5.5-1.6-7-4.7c-1-2.1-1.5-4.7-1.5-7.6
			c0-4.3,1.1-7.5,3.2-9.8C45.3,9.6,47,8.8,49,8.8C50.3,8.8,51.5,9.1,52.6,9.9z"/>
		<path class="st0" d="M57.6,9v8c0,1.2,0,2.2,0,2.9c0.5-0.9,1-1.6,1.3-2.2L64.4,9h3L60,20.4l8.1,12.7h-3.3L59,23.7
			c-0.3-0.6-0.8-1.4-1.5-2.5c0,0.7,0,1.5,0,2.4v9.5h-2.3V9H57.6z"/>
		<path class="st0" d="M82.5,10l-0.2,3.3c-1.3-1-2.6-1.6-4-1.6c-2,0-3.6,1-4.8,2.9c-1,1.7-1.6,3.8-1.6,6.3c0,3.5,0.8,6,2.5,7.7
			c1.1,1.1,2.4,1.7,3.9,1.7c0.7,0,1.4-0.2,2.2-0.5v-7h-3.4v-3h5.6v12.3c-1.5,0.7-3.1,1.1-4.6,1.1c-2.7,0-4.8-1.1-6.3-3.2
			c-1.6-2.2-2.4-5.3-2.4-9.2c0-3.7,0.8-6.7,2.4-8.9c1.6-2.1,3.7-3.2,6.2-3.2C79.6,8.8,81.1,9.2,82.5,10z"/>
		<path class="st0" d="M86.7,9h3.8c2.7,0,4.5,0.5,5.4,1.6c1,1.2,1.5,2.8,1.5,4.8c0,3.1-1.1,5-3.4,5.6c0.8,0.6,1.5,1.7,2,3.3l2.7,8.8
			H96l-2-7.3c-0.5-1.8-1-2.8-1.4-3.1c-0.3-0.3-1.1-0.4-2.3-0.4H89v10.8h-2.3C86.7,33.1,86.7,9,86.7,9z M88.9,11.9v7.4h1.4
			c2,0,3.3-0.3,3.8-1c0.6-0.7,0.8-1.6,0.8-2.7c0-1.5-0.4-2.5-1.2-3c-0.6-0.4-1.7-0.7-3.3-0.7H88.9z"/>
	</g>
</g>
<g>
	<path d="M107,41H1V1h106V41z M101,7H7v28h94V7z"/>
</g>
<g>
	<path class="st0" d="M103,5v32H5V5H103 M105,3H3v36h102V3L105,3z"/>
</g>
<g>
	<polygon points="103,35.3 18,5 5,5 5,6.7 90,37 103,37 	"/>
</g>
<g>
	<polygon class="st0" points="12,5 6.1,5 96,37 101.9,37 	"/>
</g>
</svg>
