<?xml version="1.0" encoding="utf-8"?>
<!-- Generator: Adobe Illustrator 21.0.0, SVG Export Plug-In . SVG Version: 6.00 Build 0)  -->
<svg version="1.0" id="ƒŒƒCƒ„[_1" xmlns="http://www.w3.org/2000/svg" xmlns:xlink="http://www.w3.org/1999/xlink" x="0px"
	 y="0px" width="90px" height="45px" viewBox="0 0 90 45" style="enable-background:new 0 0 90 45;" xml:space="preserve">
<style type="text/css">
	.st0{fill:#FFFFFF;}
</style>
<g>
	<path d="M27.8,27.2L21.3,6.9h-5.6L6.8,35h6.9l1.8-6.1h5.7l1.9,6.1h4.6h2.5h4.4v-7.9h-6.9V27.2z M17.6,22l0.8-2.6l0.8,2.6H17.6z"/>
	<path d="M81.5,25.8l-2.7,1.4c-2.7,1.4-4.4,1.1-5.9-0.7c-1.2-1.4-1.8-3.3-1.8-5.8c0-2,0.4-3.7,1.2-4.9c0.9-1.5,2-2.2,3.5-2.2
		c0.8,0,1.7,0.3,2.6,1l3,2.2l0.5-8.2l-1-0.6c-1.5-0.9-3.2-1.4-5-1.4c-2.7,0-5.1,1-7.2,2.9c-2,1.9-3.3,4.4-3.9,7.5v-0.1h-6.8v-3.1
		h7.3v-7H51.3v22.5l-2-5.8c-0.3-0.8-0.6-1.4-0.9-2c1.4-1.1,2.6-3,2.6-6.3c0-2.5-0.7-4.6-2.2-6.2c-1.4-1.5-3.8-2.2-7.5-2.2H35V35h6.5
		V24.3c0.5,0,0.8,0.1,0.9,0.1c0.1,0.2,0.4,0.8,0.8,2L46,35h5.3h1.9h12.2v-7h-7.6v-4.2h6.7c0.3,2.1,0.9,3.9,1.8,5.5
		c2.1,3.8,5.4,5.8,9.6,5.8c1.7,0,3.3-0.3,4.8-1l1.3-0.6L81.5,25.8z M44.4,15.5c0,0.9-0.3,1.3-0.4,1.4c0,0-0.5,0.4-2.4,0.4v-3.4
		c1.9,0,2.4,0.3,2.4,0.3C44.3,14.4,44.4,15.1,44.4,15.5z"/>
</g>
<g>
	<path class="st0" d="M19.8,8.9L27.5,33h-2.9l-1.9-6.1h-8.6L12.3,33H9.6l7.6-24.1H19.8z M21.9,24l-2-6.7c-0.7-2.4-1.2-4.2-1.5-5.4
		c-0.2,1.2-0.7,3-1.5,5.5l-2,6.6H21.9z"/>
	<path class="st0" d="M32.6,29.1V33h-2.9v-3.9H32.6z"/>
	<path class="st0" d="M37,8.9h4.3c3.1,0,5.1,0.5,6,1.6c1.1,1.2,1.7,2.8,1.7,4.8c0,3.1-1.3,5-3.8,5.6c0.9,0.6,1.7,1.7,2.2,3.3l3,8.8
		h-2.9l-2.3-7.2c-0.6-1.8-1.1-2.8-1.6-3.1c-0.4-0.3-1.2-0.4-2.6-0.4h-1.5V33H37V8.9z M39.6,11.8v7.4h1.6c2.2,0,3.7-0.3,4.3-1
		c0.6-0.7,0.9-1.6,0.9-2.7c0-1.5-0.4-2.5-1.3-3c-0.7-0.4-1.9-0.7-3.7-0.7H39.6z"/>
	<path class="st0" d="M63.2,8.9v3h-7.3v7.1h6.8v2.9h-6.8V30h7.6v3H53.3V8.9H63.2z"/>
	<path class="st0" d="M79.7,9.8l-0.2,3.3c-1.3-0.9-2.5-1.4-3.8-1.4c-2.2,0-3.9,1-5.2,3.1c-1,1.6-1.5,3.6-1.5,6c0,3,0.8,5.3,2.3,7.1
		c1.3,1.5,2.8,2.2,4.5,2.2c1.2,0,2.4-0.4,3.8-1.1l0.2,3.3c-1.2,0.5-2.6,0.8-4,0.8c-3.5,0-6.1-1.6-7.8-4.7c-1.2-2.1-1.7-4.7-1.7-7.6
		c0-4.3,1.2-7.5,3.6-9.8c1.6-1.6,3.6-2.3,5.8-2.3C77.2,8.7,78.5,9.1,79.7,9.8z"/>
</g>
<g>
	<path d="M89,41H1V1h88V41z M87,3H3v36h84V3z"/>
	<path class="st0" d="M87,39H3V3h84V39z M85,5H5v32h80V5z"/>
	<path d="M85,5H5v32h80V5z M83,35H7V7h76V35z"/>
	<g>
		<polygon class="st0" points="5.6,5 78.4,37 84.4,37 11.6,5 		"/>
		<polygon points="5.6,5 5,5 5,6.9 72.5,37 78.4,37 		"/>
		<polygon points="84.4,37 85,37 85,35.1 17.5,5 11.6,5 		"/>
	</g>
</g>
</svg>
