<?xml version="1.0" encoding="utf-8"?>
<!-- Generator: Adobe Illustrator 21.0.0, SVG Export Plug-In . SVG Version: 6.00 Build 0)  -->
<svg version="1.0" id="ƒŒƒCƒ„[_1" xmlns="http://www.w3.org/2000/svg" xmlns:xlink="http://www.w3.org/1999/xlink" x="0px"
	 y="0px" width="108px" height="45px" viewBox="0 0 108 45" style="enable-background:new 0 0 108 45;" xml:space="preserve">
<style type="text/css">
	.st0{fill:#FFFFFF;}
</style>
<g>
	<g>
		<g>
			<g>
				<path d="M14.6,9h4.6c3.3,0,5.4,0.5,6.5,1.6c1.2,1.2,1.8,2.8,1.8,4.8c0,3.1-1.3,5-4,5.6c1,0.6,1.8,1.7,2.4,3.3l3.2,8.8H26
					l-2.5-7.2c-0.6-1.8-1.2-2.8-1.7-3.1c-0.4-0.3-1.3-0.4-2.8-0.4h-1.6v10.8h-2.7L14.6,9L14.6,9z M17.3,11.9v7.4H19
					c2.4,0,3.9-0.3,4.6-1s1-1.6,1-2.7c0-1.5-0.5-2.5-1.4-3c-0.7-0.4-2-0.7-3.9-0.7H17.3z"/>
				<path d="M31.8,35.1h-7.4l-2.9-8.6c-0.4-1.3-0.8-1.9-0.9-2.1c-0.2,0-0.5-0.1-1.3-0.1V35h-6.7V7h6.6c3.9,0,6.4,0.7,7.9,2.2
					c1.6,1.6,2.4,3.7,2.4,6.2c0,2.8-1,4.9-2.7,6.3c0.4,0.6,0.7,1.2,0.9,2L31.8,35.1z M19.3,13.9v3.4c2.3,0,2.9-0.4,2.9-0.5
					c0.2-0.2,0.4-0.5,0.4-1.3c0-1.1-0.3-1.2-0.4-1.3C22.2,14.2,21.6,13.9,19.3,13.9z"/>
			</g>
			<g>
				<path d="M42.7,9v3h-7.9v7h7.3v3h-7.3v8.2h8.1v3H32.1V9H42.7z"/>
				<polygon points="44.9,35.1 30.1,35.1 30.1,7 44.7,7 44.7,13.9 36.8,13.9 36.8,17 44.1,17 44.1,24 36.8,24 36.8,28.1 44.9,28.1 
									"/>
			</g>
			<g>
				<path d="M49.8,9v21.2h8v3H47.1V9H49.8z"/>
				<polygon points="59.9,35.1 45.1,35.1 45.1,7 51.8,7 51.8,28.1 59.9,28.1 				"/>
			</g>
			<g>
				<path d="M69.5,9l8.3,24.1h-3.1l-2-6.1h-9.3l-2,6.1h-2.9L66.6,9H69.5z M71.7,24l-2.2-6.7c-0.8-2.4-1.3-4.2-1.6-5.4
					c-0.3,1.2-0.8,3-1.6,5.5l-2,6.6H71.7z"/>
				<path d="M80.5,35.1h-7.3l-2-6.1h-6.4l-2,6.1h-7.2L65.2,7h5.7L80.5,35.1z M67,22h2l-1-3L67,22z M67.9,11.5h0.3L68.1,11L67.9,11.5
					z"/>
			</g>
			<g>
				<path d="M95.7,9l-7.4,13.9v10.2h-2.7V22.9L78,9h3.4l4.7,9c0.4,0.8,0.7,1.4,0.8,1.8c0.2-0.5,0.5-1.1,0.8-1.7L92.4,9H95.7z"/>
				<polygon points="90.3,35.1 83.6,35.1 83.6,23.4 74.7,7 82.6,7 86.9,15.3 91.2,7 99,7 90.3,23.3 				"/>
			</g>
		</g>
	</g>
	<g>
		<path d="M107,41H1V1h106V41z M101,7H7v28h94V7z"/>
	</g>
	<g>
		<path class="st0" d="M103,5v32H5V5H103 M105,3H3v36h102V3L105,3z"/>
	</g>
	<g>
		<path class="st0" d="M14.6,9h4.6c3.3,0,5.4,0.5,6.5,1.6c1.2,1.2,1.8,2.8,1.8,4.8c0,3.1-1.3,5-4,5.6c1,0.6,1.8,1.7,2.4,3.3l3.2,8.8
			H26l-2.5-7.2c-0.6-1.8-1.2-2.8-1.7-3.1c-0.4-0.3-1.3-0.4-2.8-0.4h-1.6v10.8h-2.7L14.6,9L14.6,9z M17.3,11.9v7.4H19
			c2.4,0,3.9-0.3,4.6-1s1-1.6,1-2.7c0-1.5-0.5-2.5-1.4-3c-0.7-0.4-2-0.7-3.9-0.7H17.3z"/>
		<path class="st0" d="M42.7,9v3h-7.9v7h7.3v3h-7.3v8.2h8.1v3H32.1V9H42.7z"/>
		<path class="st0" d="M49.8,9v21.2h8v3H47.1V9H49.8z"/>
		<path class="st0" d="M69.5,9l8.3,24.1h-3.1l-2-6.1h-9.3l-2,6.1h-2.9L66.6,9H69.5z M71.7,24l-2.2-6.7c-0.8-2.4-1.3-4.2-1.6-5.4
			c-0.3,1.2-0.8,3-1.6,5.5l-2,6.6H71.7z"/>
		<path class="st0" d="M95.7,9l-7.4,13.9v10.2h-2.7V22.9L78,9h3.4l4.7,9c0.4,0.8,0.7,1.4,0.8,1.8c0.2-0.5,0.5-1.1,0.8-1.7L92.4,9
			H95.7z"/>
	</g>
</g>
</svg>
