<?xml version="1.0" encoding="utf-8"?>
<!-- Generator: Adobe Illustrator 21.0.0, SVG Export Plug-In . SVG Version: 6.00 Build 0)  -->
<svg version="1.0" id="ƒŒƒCƒ„[_1" xmlns="http://www.w3.org/2000/svg" xmlns:xlink="http://www.w3.org/1999/xlink" x="0px"
	 y="0px" width="54px" height="45px" viewBox="0 0 54 45" style="enable-background:new 0 0 54 45;" xml:space="preserve">
<style type="text/css">
	.st0{fill:#FFFFFF;}
</style>
<g>
	<path d="M53,41H1V1h52V41z M47,7H7v28h40V7z"/>
</g>
<g>
	<path class="st0" d="M49,5v32H5V5H49 M51,3H3v36h48V3L51,3z"/>
</g>
<g>
	<g>
		<path d="M7.6,9h3.2c2.6,0,4.5,0.5,5.8,1.6c2.7,2.2,4,5.8,4,10.6c0,5-1.5,8.6-4.4,10.7c-1.2,0.9-2.9,1.3-5.1,1.3H7.6V9z M9.8,11.9
			v18.2H11c2,0,3.4-0.4,4.4-1.1c1.9-1.6,2.9-4.2,2.9-7.9c0-3.8-1-6.5-3.1-8.1c-0.9-0.7-2.3-1.1-4.2-1.1H9.8z"/>
		<path d="M11.2,35.1H5.6V7h5.2c3.1,0,5.4,0.7,7.1,2c3.1,2.6,4.7,6.7,4.7,12.1c0,5.7-1.8,9.8-5.2,12.3
			C15.9,34.5,13.8,35.1,11.2,35.1z M11.8,13.9V28c1.4-0.1,2-0.4,2.3-0.7c1.4-1.2,2.1-3.3,2.1-6.4c0-3.2-0.8-5.3-2.3-6.5
			C13.7,14.3,13.1,14,11.8,13.9z"/>
	</g>
	<g>
		<path d="M23.7,9h3.7c2.6,0,4.3,0.5,5.2,1.6c0.9,1.2,1.4,2.8,1.4,4.8c0,3.1-1.1,5-3.2,5.6c0.8,0.6,1.4,1.7,1.9,3.3l2.6,8.8h-2.5
			l-2-7.2c-0.5-1.8-0.9-2.8-1.4-3.1c-0.3-0.3-1.1-0.4-2.2-0.4h-1.3v10.8h-2.2C23.7,33.2,23.7,9,23.7,9z M25.9,11.9v7.4h1.3
			c1.9,0,3.2-0.3,3.7-1s0.8-1.6,0.8-2.7c0-1.5-0.4-2.5-1.1-3c-0.6-0.4-1.6-0.7-3.2-0.7H25.9z"/>
		<path d="M37.9,35.1h-6.7l-2.4-8.7c-0.3-1.2-0.6-1.7-0.7-2c-0.1,0-0.1,0-0.2,0v10.7h-6.2V7h5.7c3.3,0,5.5,0.8,6.7,2.3
			s1.9,3.6,1.9,6.1c0,3.2-1,5.1-2.3,6.2c0.3,0.6,0.6,1.3,0.8,2.1L37.9,35.1z M27.9,13.9v3.4c1.2-0.1,1.5-0.3,1.5-0.3
			c0.3-0.3,0.3-1,0.3-1.4c0-0.9-0.2-1.3-0.3-1.4C29.4,14.2,29.1,14,27.9,13.9z"/>
	</g>
	<g>
		<path d="M45.7,10.4l-0.9,2.8c-1.3-1.2-2.3-1.8-3.2-1.8c-1.7,0-2.6,1.1-2.6,3.4c0,0.9,0.2,1.7,0.8,2.3c0.2,0.3,0.8,0.8,1.6,1.4
			l1.7,1.3c2.3,1.8,3.4,4,3.4,6.8c0,2.2-0.6,3.9-1.7,5.2c-0.9,1.1-2.2,1.6-3.7,1.6s-3-0.7-4.5-2.2l1-2.9c1.5,1.4,2.7,2,3.6,2
			c0.8,0,1.5-0.3,2.1-0.9s0.8-1.5,0.8-2.7c0-1.1-0.3-2.1-0.8-2.8c-0.4-0.5-1.1-1.1-2-1.8l-1.2-0.9c-2.2-1.6-3.4-3.7-3.4-6.5
			c0-2,0.5-3.7,1.5-4.9c0.9-1,2-1.5,3.4-1.5C42.9,8.5,44.3,9.1,45.7,10.4z"/>
		<path d="M41.1,35.5c-2.1,0-4.1-0.9-5.9-2.8l-0.9-0.9l2.4-6.9l2.2,2c1.6,1.5,2.3,1.5,2.3,1.5c0.3,0,0.5-0.1,0.6-0.3
			c0.2-0.2,0.3-0.7,0.3-1.3c0-0.7-0.1-1.2-0.5-1.6c-0.1-0.2-0.5-0.6-1.6-1.3L38.9,23c-2.8-1.9-4.2-4.7-4.2-8.1c0-2.5,0.7-4.6,2-6.2
			c1.2-1.5,2.9-2.2,4.9-2.2c1.8,0,3.7,0.8,5.4,2.4l1,0.9l-2.3,7l-2.3-2.2c-1.3-1.2-1.9-1.2-1.9-1.2c-0.2,0-0.3,0-0.3,0l0,0
			c0,0-0.2,0.3-0.2,1.4c0,0.6,0.2,0.9,0.3,1.1c0,0,0.3,0.3,1.3,1.1l1.7,1.3c2.8,2.2,4.2,5,4.2,8.4c0,2.6-0.7,4.8-2.2,6.5
			C45.1,34.7,43.2,35.5,41.1,35.5z"/>
	</g>
</g>
<g>
	<path class="st0" d="M7.6,9h3.2c2.6,0,4.5,0.5,5.8,1.6c2.7,2.2,4,5.8,4,10.6c0,5-1.5,8.6-4.4,10.7c-1.2,0.9-2.9,1.3-5.1,1.3H7.6V9z
		 M9.8,11.9v18.2H11c2,0,3.4-0.4,4.4-1.1c1.9-1.6,2.9-4.2,2.9-7.9c0-3.8-1-6.5-3.1-8.1c-0.9-0.7-2.3-1.1-4.2-1.1H9.8z"/>
	<path class="st0" d="M23.7,9h3.7c2.6,0,4.3,0.5,5.2,1.6c0.9,1.2,1.4,2.8,1.4,4.8c0,3.1-1.1,5-3.2,5.6c0.8,0.6,1.4,1.7,1.9,3.3
		l2.6,8.8h-2.5l-2-7.2c-0.5-1.8-0.9-2.8-1.4-3.1c-0.3-0.3-1.1-0.4-2.2-0.4h-1.3v10.8h-2.2C23.7,33.2,23.7,9,23.7,9z M25.9,11.9v7.4
		h1.3c1.9,0,3.2-0.3,3.7-1s0.8-1.6,0.8-2.7c0-1.5-0.4-2.5-1.1-3c-0.6-0.4-1.6-0.7-3.2-0.7H25.9z"/>
	<path class="st0" d="M45.7,10.4l-0.9,2.8c-1.3-1.2-2.3-1.8-3.2-1.8c-1.7,0-2.6,1.1-2.6,3.4c0,0.9,0.2,1.7,0.8,2.3
		c0.2,0.3,0.8,0.8,1.6,1.4l1.7,1.3c2.3,1.8,3.4,4,3.4,6.8c0,2.2-0.6,3.9-1.7,5.2c-0.9,1.1-2.2,1.6-3.7,1.6s-3-0.7-4.5-2.2l1-2.9
		c1.5,1.4,2.7,2,3.6,2c0.8,0,1.5-0.3,2.1-0.9s0.8-1.5,0.8-2.7c0-1.1-0.3-2.1-0.8-2.8c-0.4-0.5-1.1-1.1-2-1.8l-1.2-0.9
		c-2.2-1.6-3.4-3.7-3.4-6.5c0-2,0.5-3.7,1.5-4.9c0.9-1,2-1.5,3.4-1.5C42.9,8.5,44.3,9.1,45.7,10.4z"/>
</g>
</svg>
