<?xml version="1.0" encoding="utf-8"?>
<!-- Generator: Adobe Illustrator 21.0.0, SVG Export Plug-In . SVG Version: 6.00 Build 0)  -->
<svg version="1.0" id="ƒŒƒCƒ„[_1" xmlns="http://www.w3.org/2000/svg" xmlns:xlink="http://www.w3.org/1999/xlink" x="0px"
	 y="0px" width="36px" height="45px" viewBox="0 0 36 45" style="enable-background:new 0 0 36 45;" xml:space="preserve">
<style type="text/css">
	.st0{fill:#9D9D9D;}
	.st1{fill:#FF0000;}
</style>
<path d="M33,18h-2.5v-1h-2H26v-1V6V4h-2H12h-2v2v10v1H7.5h-2v1H3H1v2v2v2h1v2v10v2h2h12h2h2h12h2v-2V26v-2h1v-2v-2v-2H33z M20,10v2
	h-4v-2H20z M24,32v-2h4v2H24z M8,32v-2h4v2H8z"/>
<path class="st0" d="M28.5,23v-1H33v-2h-4.5v-1h-5v1h-3v-1H19v-3h5V6H12v10h5v3h-1.5v1h-3v-1h-5v1H3v2h4.5v1H9v3H4v10h12V26h-5v-3
	h1.5v-1h3v1h5v-1h3v1H25v3h-5v10h12V26h-5v-3H28.5z M14,8h8v6h-8V8z M14,34H6v-6h8V34z M30,34h-8v-6h8V34z"/>
<g>
	<polygon points="14.8,17.4 13.4,18.8 9.8,22.4 6.2,18.8 4.8,17.4 3.4,18.8 1.4,20.8 0,22.2 1.4,23.6 5,27.2 1.4,30.8 0,32.2 
		1.4,33.6 3.4,35.6 4.8,37 6.2,35.6 9.8,32 13.4,35.6 14.8,37 16.2,35.6 18.2,33.6 19.6,32.2 18.2,30.8 14.6,27.2 18.2,23.6 
		19.6,22.2 18.2,20.8 16.2,18.8 14.8,17.4 	"/>
	<polygon class="st1" points="16.8,22.2 14.8,20.2 9.8,25.2 4.8,20.2 2.8,22.2 7.8,27.2 2.8,32.2 4.8,34.2 9.8,29.2 14.8,34.2 
		16.8,32.2 11.8,27.2 	"/>
	<polyline class="st1" points="14.8,20.2 16.8,22.2 11.8,27.2 16.8,32.2 14.8,34.2 9.8,29.2 4.8,34.2 2.8,32.2 7.8,27.2 2.8,22.2 
		4.8,20.2 9.8,25.2 14.8,20.2 	"/>
</g>
</svg>
