<?xml version="1.0" encoding="utf-8"?>
<!-- Generator: Adobe Illustrator 21.0.0, SVG Export Plug-In . SVG Version: 6.00 Build 0)  -->
<svg version="1.0" id="ƒŒƒCƒ„[_1" xmlns="http://www.w3.org/2000/svg" xmlns:xlink="http://www.w3.org/1999/xlink" x="0px"
	 y="0px" width="36px" height="45px" viewBox="0 0 36 45" style="enable-background:new 0 0 36 45;" xml:space="preserve">
<style type="text/css">
	.st0{fill:#FFFFFF;}
</style>
<g>
	<g>
		<path d="M24.9,29.7v3.4H10.8v-3.7c2.9-3,5.2-5.6,6.9-7.8s2.5-4.2,2.5-5.7c0-2.5-1.2-3.7-3.7-3.7c-1.6,0-3.3,0.6-4.9,1.7l-0.3-3.6
			c2.3-1.1,4.4-1.6,6.4-1.6c1.9,0,3.4,0.5,4.6,1.6c1.4,1.3,2.1,3,2.1,5s-0.8,4.3-2.5,6.9c-1.8,2.7-3.9,5.3-6.3,7.6h9.3V29.7z"/>
		<path d="M26.9,35.1H8.8v-6.5L9.3,28c2.9-2.9,5.1-5.5,6.7-7.6c1.8-2.4,2.1-3.8,2.1-4.5c0-1.4-0.4-1.7-1.7-1.7
			c-1.2,0-2.5,0.4-3.8,1.4l-2.9,2L9.1,9l1.2-0.6c2.6-1.2,5-1.8,7.2-1.8c2.4,0,4.4,0.7,5.9,2.2c1.8,1.7,2.7,3.9,2.7,6.5
			c0,2.4-1,5.1-2.9,8c-1,1.5-2.1,3-3.4,4.5h6.9v7.3H26.9z M20.2,11.2c1.3,1,2,2.6,2,4.6c0,0.1,0,0.3,0,0.4c0.1-0.3,0.1-0.7,0.1-1
			c0-1.5-0.5-2.7-1.4-3.6C20.6,11.5,20.4,11.3,20.2,11.2z"/>
	</g>
</g>
<g>
	<path class="st0" d="M24.9,29.7v3.4H10.8v-3.7c2.9-3,5.2-5.6,6.9-7.8s2.5-4.2,2.5-5.7c0-2.5-1.2-3.7-3.7-3.7
		c-1.6,0-3.3,0.6-4.9,1.7l-0.3-3.6c2.3-1.1,4.4-1.6,6.4-1.6c1.9,0,3.4,0.5,4.6,1.6c1.4,1.3,2.1,3,2.1,5s-0.8,4.3-2.5,6.9
		c-1.8,2.7-3.9,5.3-6.3,7.6h9.3V29.7z"/>
</g>
<g>
	<path d="M35,41H1V1h34V41z M33,3H3v36h30V3z"/>
</g>
<g>
	<path class="st0" d="M33,39H3V3h30V39z M31,5H5v32h26V5z"/>
</g>
<path d="M31,37H5V5h26V37z M29,7H7v28h22V7z"/>
</svg>
