<?xml version="1.0" encoding="utf-8"?>
<!-- Generator: Adobe Illustrator 21.0.0, SVG Export Plug-In . SVG Version: 6.00 Build 0)  -->
<svg version="1.0" id="ƒŒƒCƒ„[_1" xmlns="http://www.w3.org/2000/svg" xmlns:xlink="http://www.w3.org/1999/xlink" x="0px"
	 y="0px" width="36px" height="45px" viewBox="0 0 36 45" style="enable-background:new 0 0 36 45;" xml:space="preserve">
<style type="text/css">
	.st0{fill:#FFFFFF;}
</style>
<g>
	<rect x="1" y="1" width="34" height="40"/>
</g>
<g>
	<rect x="4" y="4" class="st0" width="28" height="34"/>
	<path class="st0" d="M31,5v32H5V5H31 M33,3H3v36h30V3L33,3z"/>
</g>
<g>
	<path d="M25.3,29.7v3.4H11.2v-3.7c2.9-3,5.2-5.6,6.9-7.8s2.5-4.2,2.5-5.7c0-2.5-1.2-3.7-3.7-3.7c-1.6,0-3.3,0.6-4.9,1.7l-0.3-3.6
		c2.3-1.1,4.4-1.6,6.4-1.6c1.9,0,3.4,0.5,4.6,1.6c1.4,1.3,2.1,3,2.1,5s-0.8,4.3-2.5,6.9c-1.8,2.7-3.9,5.3-6.3,7.6h9.3V29.7z"/>
</g>
</svg>
