<?xml version="1.0" encoding="utf-8"?>
<!-- Generator: Adobe Illustrator 21.0.0, SVG Export Plug-In . SVG Version: 6.00 Build 0)  -->
<svg version="1.0" id="ƒŒƒCƒ„[_1" xmlns="http://www.w3.org/2000/svg" xmlns:xlink="http://www.w3.org/1999/xlink" x="0px"
	 y="0px" width="54px" height="45px" viewBox="0 0 54 45" style="enable-background:new 0 0 54 45;" xml:space="preserve">
<style type="text/css">
	.st0{fill:#FFFFFF;}
</style>
<g>
	<rect x="1" y="1" width="52" height="40"/>
</g>
<g>
	<path class="st0" d="M19.3,9v24.1h-2.1V22H10v11.1H7.9V9H10v10.1h7.2V9H19.3z"/>
	<path class="st0" d="M21.7,9h3.1c2.5,0,4.3,0.5,5.5,1.6c2.5,2.2,3.8,5.8,3.8,10.6c0,5-1.4,8.6-4.1,10.7c-1.2,0.9-2.8,1.3-4.8,1.3
		h-3.4V9H21.7z M23.8,11.9v18.2h1.1c1.9,0,3.2-0.4,4.1-1.1c1.8-1.6,2.7-4.2,2.7-7.9c0-3.8-1-6.5-2.9-8.1c-0.9-0.7-2.2-1.1-3.9-1.1
		H23.8z"/>
	<path class="st0" d="M36.1,9h3.6c2.5,0,4.2,0.5,5,1.6c0.9,1.2,1.4,2.8,1.4,4.8c0,3.1-1,5-3.1,5.6c0.8,0.6,1.4,1.7,1.8,3.3l2.5,8.8
		h-2.4L43,25.8c-0.5-1.8-0.9-2.8-1.3-3.1c-0.3-0.3-1-0.4-2.1-0.4h-1.2v10.8h-2.1V9H36.1z M38.2,11.9v7.4h1.3c1.9,0,3.1-0.3,3.6-1
		s0.8-1.6,0.8-2.7c0-1.5-0.4-2.5-1.1-3c-0.5-0.4-1.6-0.7-3.1-0.7H38.2z"/>
</g>
<g>
	<path class="st0" d="M51,39H3V3h48V39z M49,5H5v32h44V5z"/>
</g>
</svg>
