<?xml version="1.0" encoding="utf-8"?>
<!-- Generator: Adobe Illustrator 21.0.0, SVG Export Plug-In . SVG Version: 6.00 Build 0)  -->
<svg version="1.0" id="ƒŒƒCƒ„[_1" xmlns="http://www.w3.org/2000/svg" xmlns:xlink="http://www.w3.org/1999/xlink" x="0px"
	 y="0px" width="54px" height="45px" viewBox="0 0 54 45" style="enable-background:new 0 0 54 45;" xml:space="preserve">
<style type="text/css">
	.st0{fill:#FFFFFF;}
	.st1{opacity:0.25;fill:none;}
</style>
<path d="M39.9,36.1l-11-30L27,1l-1.9,5.1l-11,30l-1,2.7H16h2.7H20l0.5-1.2c1.2-2.5,3.7-4.1,6.5-4.1c2.8,0,5.3,1.6,6.5,4.1l0.5,1.2
	h1.3H38h2.9L39.9,36.1z"/>
<path d="M17.8,17.2c0-1.8,0.5-3.6,1.5-5.2l1-1.7l-1.7-1l-3.5-2.1l-1.7-1l-1,1.7c-1.7,2.8-2.6,6.1-2.6,9.4c0,3.3,0.9,6.6,2.6,9.4
	l1,1.7l1.7-1l3.5-2.1l1.7-1l-1-1.7C18.3,20.8,17.8,19,17.8,17.2z"/>
<path d="M11.8,26.9C10,24,9.1,20.6,9.1,17.2c0-3.4,0.9-6.8,2.7-9.7l1-1.7l-1.7-1L7.6,2.7l-1.7-1l-1,1.7C2.3,7.5,1,12.3,1,17.2
	c0,4.9,1.3,9.7,3.8,13.9l1,1.7l1.7-1l3.5-2.1l1.7-1L11.8,26.9z"/>
<path d="M41.7,7.8l-1-1.7l-1.7,1l-3.5,2.1l-1.7,1l1,1.7c0.9,1.6,1.4,3.4,1.4,5.2c0,1.8-0.5,3.6-1.4,5.2l-1,1.7l1.7,1l3.5,2.1l1.7,1
	l1-1.7c1.7-2.8,2.6-6.1,2.6-9.4C44.3,13.9,43.4,10.6,41.7,7.8z"/>
<path d="M49.2,3.3l-1-1.7l-1.7,1l-3.5,2.1l-1.7,1l1,1.7c1.8,2.9,2.7,6.3,2.7,9.7c0,3.4-0.9,6.8-2.7,9.7l-1,1.7l1.7,1l3.5,2.1l1.7,1
	l1-1.7c2.5-4.2,3.9-9,3.9-13.9C53,12.3,51.7,7.5,49.2,3.3z"/>
<path class="st0" d="M18.7,36.8H16l11-30l11,30h-2.7c-1.4-3.1-4.6-5.2-8.3-5.2C23.3,31.6,20.1,33.8,18.7,36.8z"/>
<g>
	<path class="st0" d="M15.8,17.2c0-2.3,0.6-4.4,1.7-6.2L14,8.9c-1.5,2.4-2.3,5.3-2.3,8.4c0,3.1,0.9,5.9,2.3,8.4l3.5-2.1
		C16.5,21.7,15.8,19.5,15.8,17.2z"/>
	<path class="st0" d="M7.1,17.2c0-3.9,1.1-7.6,3-10.7L6.6,4.4C4.3,8.2,3,12.5,3,17.2c0,4.7,1.3,9.1,3.6,12.8l3.5-2.1
		C8.2,24.8,7.1,21.2,7.1,17.2z"/>
</g>
<g>
	<path class="st0" d="M38.2,17.2c0-2.3-0.6-4.4-1.7-6.2L40,8.9c1.5,2.4,2.3,5.3,2.3,8.4c0,3.1-0.8,5.9-2.3,8.4l-3.5-2.1
		C37.5,21.7,38.2,19.5,38.2,17.2z"/>
	<path class="st0" d="M46.9,17.2c0-3.9-1.1-7.6-3-10.7l3.5-2.1c2.3,3.8,3.6,8.1,3.6,12.8c0,4.7-1.3,9.1-3.6,12.8L43.9,28
		C45.8,24.8,46.9,21.2,46.9,17.2z"/>
</g>
<rect class="st1" width="54" height="45"/>
</svg>
