<?xml version="1.0" encoding="utf-8"?>
<!-- Generator: Adobe Illustrator 21.0.0, SVG Export Plug-In . SVG Version: 6.00 Build 0)  -->
<svg version="1.0" id="ƒŒƒCƒ„[_1" xmlns="http://www.w3.org/2000/svg" xmlns:xlink="http://www.w3.org/1999/xlink" x="0px"
	 y="0px" width="36px" height="45px" viewBox="0 0 36 45" style="enable-background:new 0 0 36 45;" xml:space="preserve">
<style type="text/css">
	.st0{fill:#FFFFFF;}
</style>
<path d="M23.5,5.9C21.8,5.3,19,5,14.5,5H9H7v2v28v2h2h4h2v-2v-9.2h0.3c4.4,0,7.6-0.5,9.6-1.6c3.3-1.7,5-4.8,5-8.9
	C29.9,10.7,27.6,7.4,23.5,5.9z M21.6,15.4c0,0.8-0.2,1.4-0.7,2c-0.2,0.2-1.2,1.1-5.7,1.1H15v-5.9c3.2,0,4.6,0.3,5.1,0.5
	C21.1,13.4,21.6,14.1,21.6,15.4z"/>
<path class="st0" d="M9,7h5.5c4.1,0,6.8,0.3,8.3,0.8c3.4,1.2,5.1,3.8,5.1,7.6c0,3.3-1.3,5.7-3.9,7.1c-1.7,0.9-4.6,1.4-8.7,1.4H13V35
	H9V7z M13,10.4v9.9h2.2c3.8,0,6.2-0.6,7.2-1.7c0.8-0.9,1.2-2,1.2-3.3c0-2.1-0.9-3.5-2.8-4.3c-1.2-0.4-3.2-0.7-6.1-0.7H13V10.4z"/>
</svg>
