<?xml version="1.0" encoding="utf-8"?>
<!-- Generator: Adobe Illustrator 21.0.0, SVG Export Plug-In . SVG Version: 6.00 Build 0)  -->
<svg version="1.0" id="ƒŒƒCƒ„[_1" xmlns="http://www.w3.org/2000/svg" xmlns:xlink="http://www.w3.org/1999/xlink" x="0px"
	 y="0px" width="54px" height="45px" viewBox="0 0 54 45" style="enable-background:new 0 0 54 45;" xml:space="preserve">
<style type="text/css">
	.st0{fill:#FFFFFF;}
	.st1{opacity:0.25;fill:none;}
</style>
<path d="M39.9,36.1l-11-30L27,1l-1.9,5.1l-11,30l-1,2.7H16h2.7H20l0.5-1.2c1.2-2.5,3.7-4.1,6.5-4.1c2.8,0,5.3,1.6,6.5,4.1l0.5,1.2
	h1.3H38h2.9L39.9,36.1z"/>
<g>
	<path class="st0" d="M18.7,36.8H16l11-30l11,30h-2.7c-1.4-3.1-4.6-5.2-8.3-5.2C23.3,31.6,20.1,33.8,18.7,36.8z"/>
</g>
<rect class="st1" width="54" height="45"/>
</svg>
