<?xml version="1.0" encoding="utf-8"?>
<!-- Generator: Adobe Illustrator 21.0.0, SVG Export Plug-In . SVG Version: 6.00 Build 0)  -->
<svg version="1.0" id="ƒŒƒCƒ„[_1" xmlns="http://www.w3.org/2000/svg" xmlns:xlink="http://www.w3.org/1999/xlink" x="0px"
	 y="0px" width="90px" height="45px" viewBox="0 0 90 45" style="enable-background:new 0 0 90 45;" xml:space="preserve">
<style type="text/css">
	.st0{fill:#FFFFFF;}
</style>
<g>
	<path d="M71,41H1V1h70V41z M65,7H7v28h58V7z"/>
</g>
<g>
	<path class="st0" d="M67,5v32H5V5H67 M69,3H3v36h66V3L69,3z"/>
</g>
<g>
	<g>
		<path d="M16.8,9l6.4,24.1h-2.4L19.3,27h-7.2l-1.5,6.1H8.3L14.6,9H16.8z M18.6,24l-1.7-6.7c-0.6-2.4-1-4.2-1.2-5.4
			c-0.2,1.2-0.6,3-1.2,5.5L12.8,24H18.6z"/>
		<path d="M25.9,35.1h-6.5L17.8,29h-4.1l-1.5,6.1H5.7L13.1,7h5.3L25.9,35.1z M15.4,22H16l-0.3-1.3L15.4,22z"/>
	</g>
	<g>
		<path d="M25.3,9h3.6c2.5,0,4.2,0.5,5,1.6c0.9,1.2,1.4,2.8,1.4,4.8c0,3.1-1,5-3.1,5.6c0.8,0.6,1.4,1.7,1.8,3.3l2.5,8.8H34l-1.9-7.2
			c-0.5-1.8-0.9-2.8-1.3-3.1c-0.3-0.3-1-0.4-2.1-0.4h-1.2v10.8h-2.1L25.3,9L25.3,9z M27.4,11.9v7.4h1.3c1.9,0,3.1-0.3,3.6-1
			s0.8-1.6,0.8-2.7c0-1.5-0.4-2.5-1.1-3c-0.5-0.4-1.6-0.7-3.1-0.7H27.4z"/>
		<path d="M39.1,35.1h-6.6l-2.3-8.7c-0.3-1.1-0.5-1.7-0.7-2h-0.1v10.7h-6.1V7h5.6c3.2,0,5.4,0.8,6.6,2.3s1.8,3.6,1.8,6
			c0,3.2-1,5.1-2.2,6.2c0.3,0.6,0.6,1.3,0.8,2.2L39.1,35.1z M29.7,24.4L29.7,24.4L29.7,24.4z M29.4,13.9v3.4
			c1.1-0.1,1.4-0.3,1.4-0.3c0.3-0.3,0.3-1,0.3-1.5c0-1-0.2-1.4-0.3-1.4l0,0C30.7,14.1,30.4,14,29.4,13.9z"/>
	</g>
	<g>
		<path d="M47.1,9v3H41v7h5.7v3H41v8.2h6.3v3h-8.4V9H47.1z"/>
		<polygon points="49.3,35.1 36.8,35.1 36.8,7 49.1,7 49.1,13.9 42.9,13.9 42.9,17 48.6,17 48.6,24 42.9,24 42.9,28.1 49.3,28.1 		
			"/>
	</g>
	<g>
		<path d="M57.3,9l6.4,24.1h-2.4L59.8,27h-7.2L51,33.1h-2.3L55.1,9H57.3z M59,24l-1.7-6.7c-0.6-2.4-1-4.2-1.2-5.4
			c-0.2,1.2-0.6,3-1.2,5.5L53.2,24H59z"/>
		<path d="M66.3,35.1h-6.5L58.2,29h-4.1l-1.5,6.1h-6.4L53.5,7h5.3L66.3,35.1z M55.8,22h0.7l-0.3-1.3L55.8,22z"/>
	</g>
</g>
<g>
	<path class="st0" d="M16.8,9l6.4,24.1h-2.4L19.3,27h-7.2l-1.5,6.1H8.3L14.6,9H16.8z M18.6,24l-1.7-6.7c-0.6-2.4-1-4.2-1.2-5.4
		c-0.2,1.2-0.6,3-1.2,5.5L12.8,24H18.6z"/>
	<path class="st0" d="M25.3,9h3.6c2.5,0,4.2,0.5,5,1.6c0.9,1.2,1.4,2.8,1.4,4.8c0,3.1-1,5-3.1,5.6c0.8,0.6,1.4,1.7,1.8,3.3l2.5,8.8
		H34l-1.9-7.2c-0.5-1.8-0.9-2.8-1.3-3.1c-0.3-0.3-1-0.4-2.1-0.4h-1.2v10.8h-2.1L25.3,9L25.3,9z M27.4,11.9v7.4h1.3
		c1.9,0,3.1-0.3,3.6-1s0.8-1.6,0.8-2.7c0-1.5-0.4-2.5-1.1-3c-0.5-0.4-1.6-0.7-3.1-0.7H27.4z"/>
	<path class="st0" d="M47.1,9v3H41v7h5.7v3H41v8.2h6.3v3h-8.4V9H47.1z"/>
	<path class="st0" d="M57.3,9l6.4,24.1h-2.4L59.8,27h-7.2L51,33.1h-2.3L55.1,9H57.3z M59,24l-1.7-6.7c-0.6-2.4-1-4.2-1.2-5.4
		c-0.2,1.2-0.6,3-1.2,5.5L53.2,24H59z"/>
</g>
</svg>
