<?xml version="1.0" encoding="utf-8"?>
<!-- Generator: Adobe Illustrator 15.0.0, SVG Export Plug-In . SVG Version: 6.00 Build 0)  -->
<!DOCTYPE svg PUBLIC "-//W3C//DTD SVG 1.0//EN" "http://www.w3.org/TR/2001/REC-SVG-20010904/DTD/svg10.dtd">
<svg version="1.0" id="ƒŒƒCƒ„[_1" xmlns="http://www.w3.org/2000/svg" xmlns:xlink="http://www.w3.org/1999/xlink" x="0px"
	 y="0px" width="72px" height="18px" viewBox="0 0 72 18" enable-background="new 0 0 72 18" xml:space="preserve">
<g>
	<path d="M26.119,7.031l0.978,0.605l2.242-3.302l-1.044-0.663c-1.124-0.714-2.364-1.076-3.687-1.076
		c-1.304,0-2.414,0.276-3.297,0.819c-1.204,0.736-1.841,1.861-1.841,3.252c0,0.838,0.247,1.576,0.739,2.198
		c0.588,0.734,1.637,1.356,3.206,1.902c0.893,0.31,1.115,0.46,1.148,0.484c0.097,0.068,0.097,0.087,0.097,0.142
		c0,0.041-0.003,0.069-0.001,0.081c-0.06,0.029-0.248,0.1-0.678,0.1c-0.261,0-0.89-0.096-2.165-0.741l-1.028-0.52l-1.951,3.502
		l1.03,0.589c1.194,0.683,2.528,1.029,3.963,1.029c1.44,0,2.625-0.281,3.519-0.832c1.222-0.749,1.867-1.914,1.867-3.371
		c0-1.011-0.299-1.85-0.889-2.494c-0.502-0.545-1.324-1.038-2.516-1.505c-1.198-0.471-1.599-0.669-1.743-0.754
		c0.121-0.06,0.258-0.088,0.422-0.088C24.711,6.389,25.215,6.472,26.119,7.031z"/>
	<path d="M36.821,9.807c0,0.831-0.083,1.08-0.094,1.109c-0.087,0.238-0.248,0.682-1.357,0.682c-0.949,0-1.464-0.271-1.464-1.701
		V2.812h-4.473v7.266c0,2,0.771,5.356,5.93,5.356c5.1,0,5.861-3.341,5.861-5.332v-7.29h-4.403V9.807z"/>
	<path d="M51.461,8.661c0.514-0.569,0.789-1.305,0.789-2.146c0-1.383-0.677-3.704-5.208-3.704h-5.117v12.405h4.925
		c1.261,0,2.135-0.084,2.752-0.264c2.676-0.779,3.075-2.622,3.075-3.65C52.677,10.206,52.252,9.297,51.461,8.661z M46.788,6.949
		h-0.391V6.575h0.473c0.726,0,0.924,0.154,0.935,0.205C47.803,6.782,47.587,6.949,46.788,6.949z M46.397,10.659h0.569
		c0.562,0,1.23,0.067,1.23,0.391c0,0.371-0.971,0.41-1.389,0.41h-0.411V10.659z"/>
</g>
<g>
	<path d="M72,18H0V0h72V18z M71,1H1v16h70V1z"/>
</g>
<path fill="#FFFFFF" d="M71,17H1V1h70V17z M70,2H2v14h68V2z"/>
<path d="M70,2H2v14h68V2z M69,15H3V3h66V15z"/>
<g>
	<path fill="#FFFFFF" d="M20.463,13.362l0.813-1.459c1.147,0.58,2.05,0.87,2.706,0.87c1.253,0,1.879-0.46,1.879-1.381
		c0-0.465-0.202-0.839-0.605-1.123c-0.238-0.172-0.721-0.385-1.446-0.637c-1.335-0.465-2.224-0.971-2.664-1.52
		c-0.316-0.4-0.475-0.883-0.475-1.447c0-0.969,0.422-1.712,1.267-2.229c0.697-0.429,1.588-0.643,2.671-0.643
		c1.098,0,2.111,0.297,3.043,0.889l-0.901,1.327c-0.886-0.548-1.639-0.822-2.259-0.822c-0.44,0-0.83,0.112-1.17,0.336
		c-0.34,0.221-0.51,0.528-0.51,0.925c0,0.437,0.195,0.779,0.585,1.027c0.248,0.16,0.907,0.45,1.977,0.871
		c1.01,0.396,1.7,0.797,2.072,1.201c0.381,0.416,0.571,0.977,0.571,1.682c0,1.037-0.432,1.819-1.294,2.348
		c-0.707,0.437-1.671,0.655-2.892,0.655C22.6,14.233,21.478,13.942,20.463,13.362z"/>
	<path fill="#FFFFFF" d="M38.021,4.012h2.003v6.09c0,2.754-1.554,4.132-4.661,4.132c-3.153,0-4.729-1.386-4.729-4.156V4.012h2.072
		v5.885c0,1.935,0.889,2.901,2.664,2.901c1.299,0,2.128-0.49,2.485-1.472c0.11-0.3,0.166-0.807,0.166-1.52V4.012z"/>
	<path fill="#FFFFFF" d="M43.124,14.017V4.012h3.917c2.672,0,4.008,0.834,4.008,2.504c0,0.777-0.324,1.355-0.971,1.735
		c-0.391,0.229-1.008,0.407-1.853,0.535c0.794,0.107,1.393,0.246,1.797,0.414c0.969,0.4,1.453,1.102,1.453,2.103
		c0,1.236-0.737,2.069-2.21,2.498c-0.496,0.145-1.302,0.216-2.417,0.216H43.124z M45.196,8.149h1.591
		c1.459,0,2.189-0.459,2.189-1.376c0-0.933-0.703-1.398-2.107-1.398h-1.673V8.149z M45.196,12.66h1.611
		c1.726,0,2.589-0.537,2.589-1.61c0-1.061-0.811-1.591-2.431-1.591h-1.77V12.66z"/>
</g>
<g>
	<polygon points="13.901,2 2,2 2,4.45 58.099,16 70,16 70,13.55 	"/>
</g>
<g>
	<polygon fill="#FFFFFF" points="4.977,2 2,2 2,2.613 67.023,16 70,16 70,15.387 	"/>
</g>
</svg>
