<?xml version="1.0" encoding="utf-8"?>
<!-- Generator: Adobe Illustrator 21.0.0, SVG Export Plug-In . SVG Version: 6.00 Build 0)  -->
<svg version="1.0" id="ƒŒƒCƒ„[_1" xmlns="http://www.w3.org/2000/svg" xmlns:xlink="http://www.w3.org/1999/xlink" x="0px"
	 y="0px" width="36px" height="45px" viewBox="0 0 36 45" style="enable-background:new 0 0 36 45;" xml:space="preserve">
<style type="text/css">
	.st0{fill:#FFFFFF;}
</style>
<g>
	<g>
		<rect x="22" y="10.9" width="5" height="25"/>
		<path d="M26,11.9v23h-3v-23L26,11.9 M28,9.9h-2h-3h-2v2v23v2h2h3h2v-2v-23V9.9L28,9.9z"/>
	</g>
	<g>
		<rect x="16" y="15.9" width="5" height="20"/>
		<path d="M20,16.9v18h-3v-18L20,16.9 M22,14.9h-2h-3h-2v2v18v2h2h3h2v-2v-18V14.9L22,14.9z"/>
	</g>
	<g>
		<rect x="10" y="20.9" width="5" height="15"/>
		<path d="M14,21.9v13h-3v-13L14,21.9 M16,19.9h-2h-3H9v2v13v2h2h3h2v-2v-13V19.9L16,19.9z"/>
	</g>
	<g>
		<rect x="4" y="25.9" width="5" height="10"/>
		<path d="M8,26.9v8H5v-8L8,26.9 M10,24.9H8H5H3v2v8v2h2h3h2v-2v-8V24.9L10,24.9z"/>
	</g>
	<g>
		<rect x="28" y="5.9" width="5" height="30.1"/>
		<path d="M32,6.9V35h-3V6.9H32 M34,4.9h-2h-3h-2v2V35v2h2h3h2v-2V6.9V4.9L34,4.9z"/>
	</g>
	<rect x="23" y="12" class="st0" width="3" height="23"/>
	<rect x="17" y="17" class="st0" width="3" height="18"/>
	<rect x="11" y="22" class="st0" width="3" height="13"/>
	<rect x="5" y="27" class="st0" width="3" height="8"/>
	<rect x="29" y="6.9" class="st0" width="3" height="28.1"/>
</g>
</svg>
