<?xml version="1.0" encoding="utf-8"?>
<!-- Generator: Adobe Illustrator 21.0.0, SVG Export Plug-In . SVG Version: 6.00 Build 0)  -->
<svg version="1.0" id="ƒŒƒCƒ„[_1" xmlns="http://www.w3.org/2000/svg" xmlns:xlink="http://www.w3.org/1999/xlink" x="0px"
	 y="0px" width="26px" height="45px" viewBox="0 0 26 45" style="enable-background:new 0 0 26 45;" xml:space="preserve">
<style type="text/css">
	.st0{fill:#FFFFFF;}
</style>
<g>
	<g>
		<path d="M8.2,15.8l0.1,1.9C7.6,18,7,18.1,6.4,18.1c-1.2,0-2.2-0.5-3-1.4c-0.9-1.1-1.4-2.7-1.4-4.8c0-1.9,0.4-3.4,1.2-4.5
			C4,6.3,5,5.7,6.3,5.7c0.6,0,1.2,0.2,1.9,0.5L8.1,8C7.6,7.6,7.1,7.4,6.5,7.4c-0.9,0-1.6,0.4-2.1,1.2c-0.5,0.8-0.7,1.8-0.7,3.1
			c0,1.3,0.3,2.4,0.8,3.2c0.5,0.8,1.3,1.3,2.1,1.3C7.1,16.3,7.7,16.1,8.2,15.8z"/>
		<path d="M6.3,5.7c0.6,0,1.2,0.2,1.9,0.5L8.1,8C7.6,7.6,7.1,7.4,6.5,7.4c-0.9,0-1.6,0.4-2.1,1.2c-0.5,0.8-0.7,1.8-0.7,3.1
			c0,1.3,0.3,2.4,0.8,3.2c0.5,0.8,1.3,1.3,2.1,1.3c0.6,0,1.1-0.1,1.7-0.4l0.1,1.9C7.6,18,7,18.1,6.4,18.1c-1.2,0-2.2-0.5-3-1.4
			c-0.9-1.1-1.4-2.7-1.4-4.8c0-1.9,0.4-3.4,1.2-4.5C4,6.3,5,5.7,6.3,5.7 M6.3,3.7c-1.9,0-3.6,0.9-4.7,2.5c-1,1.4-1.5,3.3-1.5,5.6
			c0,2.6,0.6,4.6,1.8,6.1c1.2,1.4,2.7,2.2,4.6,2.2c0.8,0,1.7-0.2,2.6-0.5l1.3-0.5l0-1.4l-0.1-1.9l-0.1-3.1L7.3,14
			c-0.3,0.1-0.6,0.2-0.8,0.2c-0.1,0-0.2,0-0.5-0.3c-0.3-0.5-0.5-1.2-0.5-2.2c0-1.2,0.2-1.8,0.4-2.1c0.2-0.2,0.2-0.3,0.4-0.3
			c0.1,0,0.3,0,0.6,0.2l3.1-1.5l0.1-1.8L10.3,5L9.2,4.4C8.2,3.9,7.2,3.7,6.3,3.7L6.3,3.7z"/>
	</g>
	<g>
		<path d="M15.5,18h-1.4v-5.4h-3.3V18H9.5V5.8h1.4v5.1h3.3V5.8h1.4V18z"/>
		<path d="M15.5,5.8V18h-1.4v-5.4h-3.3V18H9.5V5.8h1.4v5.1h3.3V5.8H15.5 M17.5,3.8h-2h-1.4h-1.3h-2H9.5h-2v2V18v2h2h1.4h2h1.3h1.4h2
			v-2V5.8V3.8L17.5,3.8z"/>
	</g>
	<g>
		<path d="M22,18h-1.8V8l-1.9,1.9l-0.9-1.4l3-2.8H22V18z"/>
		<path d="M22,5.8V18h-1.8V8l-1.9,1.9l-0.9-1.4l3-2.8H22 M24,3.8h-2h-1.6h-0.8l-0.6,0.5l-3,2.8l-1.2,1.1l0.9,1.4l0.9,1.4l1.4,2.1
			l0.2-0.2V18v2h2H22h2v-2V5.8V3.8L24,3.8z"/>
	</g>
</g>
<g>
	<g>
		<path d="M8.2,36.8l0.1,1.9C7.6,39,7,39.1,6.4,39.1c-1.2,0-2.2-0.5-3-1.4c-0.9-1.1-1.4-2.7-1.4-4.8c0-1.9,0.4-3.4,1.2-4.5
			C4,27.3,5,26.7,6.3,26.7c0.6,0,1.2,0.2,1.9,0.5L8.1,29c-0.5-0.4-1.1-0.5-1.7-0.5c-0.9,0-1.6,0.4-2.1,1.2c-0.5,0.8-0.7,1.8-0.7,3.1
			c0,1.3,0.3,2.4,0.8,3.2c0.5,0.8,1.3,1.3,2.1,1.3C7.1,37.3,7.7,37.1,8.2,36.8z"/>
		<path d="M6.3,26.7c0.6,0,1.2,0.2,1.9,0.5L8.1,29c-0.5-0.4-1.1-0.5-1.7-0.5c-0.9,0-1.6,0.4-2.1,1.2c-0.5,0.8-0.7,1.8-0.7,3.1
			c0,1.3,0.3,2.4,0.8,3.2c0.5,0.8,1.3,1.3,2.1,1.3c0.6,0,1.1-0.1,1.7-0.4l0.1,1.9C7.6,39,7,39.1,6.4,39.1c-1.2,0-2.2-0.5-3-1.4
			c-0.9-1.1-1.4-2.7-1.4-4.8c0-1.9,0.4-3.4,1.2-4.5C4,27.3,5,26.7,6.3,26.7 M6.3,24.7c-1.9,0-3.6,0.9-4.7,2.5
			c-1,1.4-1.5,3.3-1.5,5.6c0,2.6,0.6,4.6,1.8,6.1c1.2,1.4,2.7,2.2,4.6,2.2c0.8,0,1.7-0.2,2.6-0.5l1.3-0.5l0-1.4l-0.1-1.9l-0.1-3.1
			L7.3,35c-0.3,0.1-0.6,0.2-0.8,0.2c-0.1,0-0.2,0-0.5-0.3c-0.3-0.5-0.5-1.2-0.5-2.2c0-1.2,0.2-1.8,0.4-2.1c0.2-0.2,0.2-0.3,0.4-0.3
			c0.1,0,0.3,0,0.6,0.2l3.1-1.5l0.1-1.8l0.1-1.3l-1.2-0.6C8.2,24.9,7.2,24.7,6.3,24.7L6.3,24.7z"/>
	</g>
	<g>
		<path d="M15.5,39h-1.4v-5.4h-3.3V39H9.5V26.8h1.4v5.1h3.3v-5.1h1.4V39z"/>
		<path d="M15.5,26.8V39h-1.4v-5.4h-3.3V39H9.5V26.8h1.4v5.1h3.3v-5.1H15.5 M17.5,24.8h-2h-1.4h-1.3h-2H9.5h-2v2V39v2h2h1.4h2h1.3
			h1.4h2v-2V26.8V24.8L17.5,24.8z"/>
	</g>
	<g>
		<path d="M23.7,37.3V39h-6.7v-1.9c1.4-1.5,2.5-2.8,3.2-3.9c0.8-1.1,1.2-2.1,1.2-2.9c0-1.3-0.6-1.9-1.8-1.9c-0.8,0-1.5,0.3-2.3,0.9
			l-0.1-1.8c1.1-0.6,2.1-0.8,3-0.8c0.9,0,1.6,0.3,2.2,0.8c0.7,0.6,1,1.5,1,2.5c0,1-0.4,2.2-1.2,3.5c-0.9,1.4-1.9,2.7-3,3.8H23.7z"/>
		<path d="M20.3,26.6c0.9,0,1.6,0.3,2.2,0.8c0.7,0.6,1,1.5,1,2.5c0,1-0.4,2.2-1.2,3.5c-0.9,1.4-1.9,2.7-3,3.8h4.5V39h-6.7v-1.9
			c1.4-1.5,2.5-2.8,3.2-3.9c0.8-1.1,1.2-2.1,1.2-2.9c0-1.3-0.6-1.9-1.8-1.9c-0.8,0-1.5,0.3-2.3,0.9l-0.1-1.8
			C18.4,26.9,19.4,26.6,20.3,26.6 M20.3,24.6c-1.2,0-2.6,0.4-3.9,1.1l-1.2,0.6l0.1,1.3l0.1,1.8l3.2,1.4c0.3-0.2,0.6-0.4,0.9-0.4
			c0,0.2-0.2,0.7-0.8,1.6c-0.7,1-1.8,2.3-3.1,3.7l-0.5,0.6v0.8V39v2h2h6.7h2v-2v-1.7v-2h-2h-0.3c0.2-0.3,0.3-0.5,0.5-0.8
			c1-1.6,1.5-3.1,1.5-4.5c0-1.6-0.5-2.9-1.6-4C22.9,25.1,21.7,24.6,20.3,24.6L20.3,24.6z"/>
	</g>
</g>
<g>
	<path class="st0" d="M8.2,15.8l0.1,1.9C7.6,18,7,18.1,6.4,18.1c-1.2,0-2.2-0.5-3-1.4c-0.9-1.1-1.4-2.7-1.4-4.8
		c0-1.9,0.4-3.4,1.2-4.5C4,6.3,5,5.7,6.3,5.7c0.6,0,1.2,0.2,1.9,0.5L8.1,8C7.6,7.6,7.1,7.4,6.5,7.4c-0.9,0-1.6,0.4-2.1,1.2
		c-0.5,0.8-0.7,1.8-0.7,3.1c0,1.3,0.3,2.4,0.8,3.2c0.5,0.8,1.3,1.3,2.1,1.3C7.1,16.3,7.7,16.1,8.2,15.8z"/>
	<path class="st0" d="M15.5,18h-1.4v-5.4h-3.3V18H9.5V5.8h1.4v5.1h3.3V5.8h1.4V18z"/>
	<path class="st0" d="M22,18h-1.8V8l-1.9,1.9l-0.9-1.4l3-2.8H22V18z"/>
</g>
<g>
	<path class="st0" d="M8.2,36.8l0.1,1.9C7.6,39,7,39.1,6.4,39.1c-1.2,0-2.2-0.5-3-1.4c-0.9-1.1-1.4-2.7-1.4-4.8
		c0-1.9,0.4-3.4,1.2-4.5C4,27.3,5,26.7,6.3,26.7c0.6,0,1.2,0.2,1.9,0.5L8.1,29c-0.5-0.4-1.1-0.5-1.7-0.5c-0.9,0-1.6,0.4-2.1,1.2
		c-0.5,0.8-0.7,1.8-0.7,3.1c0,1.3,0.3,2.4,0.8,3.2c0.5,0.8,1.3,1.3,2.1,1.3C7.1,37.3,7.7,37.1,8.2,36.8z"/>
	<path class="st0" d="M15.5,39h-1.4v-5.4h-3.3V39H9.5V26.8h1.4v5.1h3.3v-5.1h1.4V39z"/>
	<path class="st0" d="M23.7,37.3V39h-6.7v-1.9c1.4-1.5,2.5-2.8,3.2-3.9c0.8-1.1,1.2-2.1,1.2-2.9c0-1.3-0.6-1.9-1.8-1.9
		c-0.8,0-1.5,0.3-2.3,0.9l-0.1-1.8c1.1-0.6,2.1-0.8,3-0.8c0.9,0,1.6,0.3,2.2,0.8c0.7,0.6,1,1.5,1,2.5c0,1-0.4,2.2-1.2,3.5
		c-0.9,1.4-1.9,2.7-3,3.8H23.7z"/>
</g>
</svg>
