<?xml version="1.0" encoding="utf-8"?>
<!-- Generator: Adobe Illustrator 15.0.0, SVG Export Plug-In . SVG Version: 6.00 Build 0)  -->
<!DOCTYPE svg PUBLIC "-//W3C//DTD SVG 1.0//EN" "http://www.w3.org/TR/2001/REC-SVG-20010904/DTD/svg10.dtd">
<svg version="1.0" id="ƒŒƒCƒ„[_1" xmlns="http://www.w3.org/2000/svg" xmlns:xlink="http://www.w3.org/1999/xlink" x="0px"
	 y="0px" width="24px" height="18px" viewBox="0 0 24 18" enable-background="new 0 0 24 18" xml:space="preserve">
<g>
	<g>
		<path d="M3.095,6.646L3.16,8c0.4-0.998,1.09-1.497,2.067-1.497c1.01,0,1.675,0.558,1.996,1.675
			c0.481-1.117,1.22-1.675,2.215-1.675c0.926,0,1.559,0.454,1.897,1.36c0.223,0.598,0.334,1.514,0.334,2.748V15h-1.242v-4.088
			c0-0.953-0.036-1.6-0.109-1.941c-0.156-0.77-0.549-1.155-1.176-1.155c-0.707,0-1.207,0.511-1.498,1.531
			c-0.113,0.383-0.17,1.089-0.17,2.119V15H6.233v-4.3c0-0.848-0.034-1.431-0.104-1.75C5.959,8.193,5.584,7.815,5.009,7.815
			c-0.683,0-1.185,0.462-1.51,1.388c-0.149,0.424-0.224,1.128-0.224,2.112V15H2.033v-4.703c0-1.303-0.029-2.52-0.087-3.65H3.095z"/>
		<path d="M12.67,16H9.428v-5.088c0-1.153-0.055-1.58-0.087-1.731C9.258,8.771,9.205,8.817,9.204,8.817
			c-0.329,0-0.513,0.503-0.598,0.804c-0.042,0.141-0.132,0.581-0.132,1.845V16H5.233v-5.3c0-1.015-0.051-1.399-0.081-1.538
			C5.09,8.883,5.01,8.803,5.01,8.802C4.801,8.815,4.61,9.058,4.442,9.534c-0.063,0.178-0.167,0.645-0.167,1.781V16H1.033v-5.703
			c0-1.273-0.029-2.484-0.086-3.6L0.895,5.646h3.153l0.003,0.065c0.358-0.138,0.753-0.209,1.177-0.209
			c0.839,0,1.543,0.28,2.074,0.813c0.7-0.644,1.495-0.813,2.137-0.813c1.343,0,2.35,0.714,2.834,2.01
			c0.268,0.719,0.397,1.731,0.397,3.099V16z"/>
	</g>
</g>
<g>
	<g>
		<path d="M17.1,6.646l0.061,1.326c0.558-0.98,1.325-1.47,2.303-1.47c1.061,0,1.773,0.501,2.138,1.504
			c0.233,0.638,0.351,1.673,0.351,3.104V15h-1.242v-3.753c0-1.017-0.034-1.704-0.104-2.064c-0.182-0.911-0.667-1.367-1.455-1.367
			c-0.783,0-1.338,0.489-1.662,1.47c-0.146,0.441-0.219,1.326-0.219,2.652V15h-1.241v-4.129c0-1.016-0.027-2.424-0.082-4.225H17.1z"
			/>
		<path d="M22.951,16h-3.242v-4.753c0-1.245-0.054-1.71-0.086-1.876c-0.11-0.556-0.278-0.556-0.473-0.556
			c-0.158,0-0.453,0-0.713,0.783c-0.051,0.153-0.168,0.686-0.168,2.339V16h-3.241v-5.129c0-1.009-0.027-2.406-0.082-4.194
			l-0.031-1.03h3.14l0.007,0.143c0.497-0.219,0.986-0.286,1.401-0.286c1.479,0,2.571,0.768,3.077,2.162
			c0.276,0.755,0.411,1.882,0.411,3.445V16z"/>
	</g>
</g>
<g>
	<g>
		<path d="M14.248,2.941V4.65h-1.356V2.941H14.248z M14.188,6.646V15h-1.241V6.646H14.188z"/>
		<polygon points="15.188,16 11.946,16 11.946,5.65 11.892,5.65 11.892,1.941 15.248,1.941 15.248,5.65 15.188,5.65 		"/>
	</g>
</g>
<g>
	<g>
		<path fill="#FFFFFF" d="M3.095,6.705L3.16,8.059c0.4-0.998,1.09-1.497,2.067-1.497c1.01,0,1.675,0.558,1.996,1.675
			c0.481-1.117,1.22-1.675,2.215-1.675c0.926,0,1.559,0.454,1.897,1.36c0.223,0.598,0.334,1.514,0.334,2.748v4.389h-1.242v-4.088
			c0-0.953-0.036-1.6-0.109-1.941C10.162,8.26,9.77,7.874,9.143,7.874c-0.707,0-1.207,0.511-1.498,1.531
			c-0.113,0.383-0.17,1.089-0.17,2.119v3.534H6.233v-4.3c0-0.848-0.034-1.431-0.104-1.75C5.959,8.252,5.584,7.874,5.009,7.874
			c-0.683,0-1.185,0.462-1.51,1.388C3.35,9.686,3.275,10.39,3.275,11.374v3.685H2.033v-4.703c0-1.303-0.029-2.52-0.087-3.65H3.095z"
			/>
	</g>
	<g>
		<path fill="#FFFFFF" d="M17.1,6.705l0.061,1.326c0.558-0.98,1.325-1.47,2.303-1.47c1.061,0,1.773,0.501,2.138,1.504
			c0.233,0.638,0.351,1.673,0.351,3.104v3.89h-1.242v-3.753c0-1.017-0.034-1.704-0.104-2.064c-0.182-0.911-0.667-1.367-1.455-1.367
			c-0.783,0-1.338,0.489-1.662,1.47c-0.146,0.441-0.219,1.326-0.219,2.652v3.063h-1.241V10.93c0-1.016-0.027-2.424-0.082-4.225H17.1
			z"/>
	</g>
	<g>
		<path fill="#FFFFFF" d="M14.248,3v1.709h-1.356V3H14.248z M14.188,6.705v8.354h-1.241V6.705H14.188z"/>
	</g>
</g>
</svg>
