<?xml version="1.0" encoding="utf-8"?>
<!-- Generator: Adobe Illustrator 21.0.0, SVG Export Plug-In . SVG Version: 6.00 Build 0)  -->
<svg version="1.0" id="ƒŒƒCƒ„[_1" xmlns="http://www.w3.org/2000/svg" xmlns:xlink="http://www.w3.org/1999/xlink" x="0px"
	 y="0px" width="36px" height="45px" viewBox="0 0 36 45" style="enable-background:new 0 0 36 45;" xml:space="preserve">
<style type="text/css">
	.st0{fill:#FFFFFF;}
	.st1{opacity:0.25;fill:none;}
</style>
<path d="M33,18h-2.5v-1h-2H26v-1V6V4h-2H12h-2v2v10v1H7.5h-2v1H3H1v2v2v2h1v2v10v2h2h12h2h2h12h2v-2V26v-2h1v-2v-2v-2H33z M20,10v2
	h-4v-2H20z M24,32v-2h4v2H24z M8,32v-2h4v2H8z"/>
<path class="st0" d="M28.5,23v-1H33v-2h-4.5v-1h-5v1h-3v-1H19v-3h5V6H12v10h5v3h-1.5v1h-3v-1h-5v1H3v2h4.5v1H9v3H4v10h12V26h-5v-3
	h1.5v-1h3v1h5v-1h3v1H25v3h-5v10h12V26h-5v-3H28.5z M14,8h8v6h-8V8z M14,34H6v-6h8V34z M30,34h-8v-6h8V34z"/>
<rect class="st1" width="36" height="45"/>
</svg>
