<?xml version="1.0" encoding="utf-8"?>
<!-- Generator: Adobe Illustrator 21.0.0, SVG Export Plug-In . SVG Version: 6.00 Build 0)  -->
<svg version="1.0" id="ƒŒƒCƒ„[_1" xmlns="http://www.w3.org/2000/svg" xmlns:xlink="http://www.w3.org/1999/xlink" x="0px"
	 y="0px" width="36px" height="45px" viewBox="0 0 36 45" style="enable-background:new 0 0 36 45;" xml:space="preserve">
<style type="text/css">
	.st0{fill:#FFFFFF;}
</style>
<path d="M33,18h-2.5v-1h-2H26v-1V6V4h-2H12h-2v2v10v1H7.5h-2v1H3H1v2v2v2h1v2v10v2h2h12h2h2h12h2v-2V26v-2h1v-2v-2v-2H33z M20,10v2
	h-4v-2H20z M24,32v-2h4v2H24z M8,32v-2h4v2H8z"/>
<path class="st0" d="M28.5,23v-1H33v-2h-4.5v-1h-5v1h-3v-1H19v-3h5V6H12v10h5v3h-1.5v1h-3v-1h-5v1H3v2h4.5v1H9v3H4v10h12V26h-5v-3
	h1.5v-1h3v1h5v-1h3v1H25v3h-5v10h12V26h-5v-3H28.5z M14,8h8v6h-8V8z M14,34H6v-6h8V34z M30,34h-8v-6h8V34z"/>
<g>
	<path d="M35.8,34.2L33.6,29c-0.2-0.4-0.3-0.9-0.5-1.3c1.3-1,1.9-2.5,1.9-4.2c0-1.8-0.7-6-7.6-6H22h-2v2V35v2h2h2.9h2v-2v-4.6
		c0,0,0,0,0,0c0.1,0.1,0.3,0.4,0.4,0.8l1.7,4.5l0.5,1.3h1.4H34h2v-2.4L35.8,34.2z"/>
	<path class="st0" d="M24.9,35H22V19.4h5.4c3.7,0,5.6,1.4,5.6,4c0,2-1.3,3.3-3.7,3.7c0.7,0.2,1.3,0.5,1.6,0.8
		c0.3,0.3,0.5,0.8,0.9,1.7L34,35h-3.1l-1.7-4.5c-0.3-0.8-0.7-1.5-1.2-1.8c-0.3-0.2-1-0.4-1.8-0.4h-1.4V35z M24.8,26.3h2.1
		c2.1,0,3.1-0.9,3.1-2.4c0-1.5-1-2.2-2.9-2.2h-2.3V26.3z"/>
</g>
</svg>
