<?xml version="1.0" encoding="utf-8"?>
<!-- Generator: Adobe Illustrator 21.0.0, SVG Export Plug-In . SVG Version: 6.00 Build 0)  -->
<svg version="1.0" id="ƒŒƒCƒ„[_1" xmlns="http://www.w3.org/2000/svg" xmlns:xlink="http://www.w3.org/1999/xlink" x="0px"
	 y="0px" width="72px" height="45px" viewBox="0 0 72 45" style="enable-background:new 0 0 72 45;" xml:space="preserve">
<style type="text/css">
	.st0{fill:#FFFFFF;}
</style>
<g>
	<g>
		<g>
			<path d="M18.5,10.4l-1,2.8c-1.3-1.2-2.5-1.8-3.4-1.8c-1.8,0-2.7,1.1-2.7,3.4c0,0.9,0.3,1.7,0.8,2.3c0.3,0.3,0.8,0.8,1.7,1.4
				l1.8,1.3c2.4,1.8,3.6,4,3.6,6.8c0,2.2-0.6,3.9-1.8,5.2c-1,1.1-2.3,1.6-3.9,1.6s-3.2-0.7-4.7-2.2l1.1-2.9c1.6,1.4,2.8,2,3.8,2
				c0.9,0,1.6-0.3,2.2-0.9s0.9-1.5,0.9-2.7c0-1.1-0.3-2.1-0.9-2.8c-0.4-0.5-1.1-1.1-2.1-1.8l-1.3-0.9C10.2,19.8,9,17.7,9,14.9
				c0-2,0.5-3.7,1.6-4.9c0.9-1,2.1-1.5,3.5-1.5C15.6,8.5,17,9.1,18.5,10.4z"/>
			<path d="M13.7,35.5c-2.2,0-4.2-0.9-6.1-2.8l-1-0.9L9.1,25l2.2,1.9c1.8,1.5,2.5,1.5,2.5,1.5c0.3,0,0.6-0.1,0.8-0.3
				c0.2-0.2,0.3-0.7,0.3-1.3c0-0.7-0.2-1.2-0.5-1.6c-0.1-0.2-0.6-0.6-1.7-1.4l-1.3-0.9c-2.8-1.8-4.4-4.6-4.4-8
				c0-2.5,0.7-4.6,2.1-6.2c1.3-1.4,3-2.2,5-2.2c1.9,0,3.8,0.8,5.6,2.4l1,0.9l-2.4,6.9l-2.3-2c-1.4-1.2-2-1.3-2.1-1.3
				c-0.4,0-0.7,0-0.7,1.4c0,0.6,0.2,0.9,0.3,1c0,0,0.3,0.3,1.3,1.1l1.8,1.3c2.9,2.2,4.4,5,4.4,8.4c0,2.7-0.8,4.9-2.3,6.6
				C17.8,34.7,15.9,35.5,13.7,35.5z"/>
		</g>
		<g>
			<path d="M22.3,9h3.3c2.4,0,4,0.2,4.9,0.7c2,1.1,3,3.2,3,6.5c0,2.9-0.8,4.9-2.3,6.1c-1,0.8-2.7,1.2-5.1,1.2h-1.3v9.6h-2.3V9H22.3z
				 M24.6,11.9v8.6h1.3c2.2,0,3.6-0.5,4.2-1.5c0.5-0.8,0.7-1.7,0.7-2.8c0-1.8-0.6-3-1.7-3.7c-0.7-0.4-1.9-0.6-3.6-0.6
				C25.5,11.9,24.6,11.9,24.6,11.9z"/>
			<path d="M26.6,35.1h-6.3V7h5.3c2.8,0,4.6,0.3,5.8,0.9c2.7,1.4,4,4.2,4,8.3c0,3.5-1,6.1-3.1,7.7c-1.3,1-3.1,1.5-5.7,1.6
				C26.6,25.5,26.6,35.1,26.6,35.1z M26.6,13.9v4.5c1.3-0.1,1.8-0.4,1.8-0.5c0.3-0.4,0.4-1,0.4-1.8c0-1-0.2-1.7-0.7-1.9
				C28.2,14.2,27.8,14,26.6,13.9z"/>
		</g>
		<g>
			<path d="M42.6,8.5c2.6,0,4.6,1.5,5.9,4.6c0.9,2.2,1.4,4.8,1.4,7.9c0,3.6-0.6,6.5-1.8,8.8c-1.3,2.4-3.1,3.6-5.5,3.6
				c-2.9,0-5-1.8-6.3-5.3c-0.8-2.2-1.2-4.6-1.2-7.2c0-2.4,0.3-4.6,1-6.6C37.3,10.5,39.4,8.5,42.6,8.5z M42.5,11.2
				c-1.4,0-2.6,0.8-3.5,2.3c-1.1,1.8-1.6,4.3-1.6,7.5c0,3.6,0.7,6.3,2,8.1c0.9,1.2,1.9,1.8,3,1.8c1.6,0,2.9-1.1,3.9-3.3
				c0.8-1.7,1.1-3.9,1.1-6.5c0-3.5-0.6-6.2-1.9-8C44.7,11.8,43.7,11.2,42.5,11.2z"/>
			<path d="M42.5,35.5c-2.6,0-6.2-1.1-8.1-6.6c-0.8-2.4-1.3-5-1.3-7.9c0-2.6,0.4-5,1-7.2c1.9-6,5.6-7.3,8.4-7.3c2.4,0,5.7,1,7.7,5.9
				c1,2.4,1.5,5.3,1.5,8.7c0,3.9-0.7,7.2-2.1,9.8C47.7,34.7,44.7,35.5,42.5,35.5z M42.5,13.2c-0.3,0-1,0-1.8,1.3
				c-0.9,1.4-1.3,3.6-1.3,6.4c0,3.1,0.5,5.4,1.6,6.9c0.7,0.9,1.2,0.9,1.4,0.9c0.3,0,1.2,0,2-2.1c0.6-1.5,1-3.4,1-5.7
				c0-3.1-0.5-5.4-1.5-6.9C43.3,13.2,42.7,13.2,42.5,13.2z"/>
		</g>
		<g>
			<path d="M63.8,9v3h-5.2v21.2h-2.3V11.9H51V9H63.8z"/>
			<polygon points="60.7,35.1 54.3,35.1 54.3,13.9 49,13.9 49,7 65.8,7 65.8,13.9 60.7,13.9 			"/>
		</g>
	</g>
</g>
<g>
	<path d="M71,41H1V1h70V41z M65,7H7v28h58V7z"/>
</g>
<g>
	<path class="st0" d="M67,5v32H5V5H67 M69,3H3v36h66V3L69,3z"/>
</g>
<g>
	<path class="st0" d="M18.5,10.4l-1,2.8c-1.3-1.2-2.5-1.8-3.4-1.8c-1.8,0-2.7,1.1-2.7,3.4c0,0.9,0.3,1.7,0.8,2.3
		c0.3,0.3,0.8,0.8,1.7,1.4l1.8,1.3c2.4,1.8,3.6,4,3.6,6.8c0,2.2-0.6,3.9-1.8,5.2c-1,1.1-2.3,1.6-3.9,1.6s-3.2-0.7-4.7-2.2l1.1-2.9
		c1.6,1.4,2.8,2,3.8,2c0.9,0,1.6-0.3,2.2-0.9s0.9-1.5,0.9-2.7c0-1.1-0.3-2.1-0.9-2.8c-0.4-0.5-1.1-1.1-2.1-1.8l-1.3-0.9
		C10.2,19.8,9,17.7,9,14.9c0-2,0.5-3.7,1.6-4.9c0.9-1,2.1-1.5,3.5-1.5C15.6,8.5,17,9.1,18.5,10.4z"/>
	<path class="st0" d="M22.3,9h3.3c2.4,0,4,0.2,4.9,0.7c2,1.1,3,3.2,3,6.5c0,2.9-0.8,4.9-2.3,6.1c-1,0.8-2.7,1.2-5.1,1.2h-1.3v9.6
		h-2.3V9H22.3z M24.6,11.9v8.6h1.3c2.2,0,3.6-0.5,4.2-1.5c0.5-0.8,0.7-1.7,0.7-2.8c0-1.8-0.6-3-1.7-3.7c-0.7-0.4-1.9-0.6-3.6-0.6
		C25.5,11.9,24.6,11.9,24.6,11.9z"/>
	<path class="st0" d="M42.6,8.5c2.6,0,4.6,1.5,5.9,4.6c0.9,2.2,1.4,4.8,1.4,7.9c0,3.6-0.6,6.5-1.8,8.8c-1.3,2.4-3.1,3.6-5.5,3.6
		c-2.9,0-5-1.8-6.3-5.3c-0.8-2.2-1.2-4.6-1.2-7.2c0-2.4,0.3-4.6,1-6.6C37.3,10.5,39.4,8.5,42.6,8.5z M42.5,11.2
		c-1.4,0-2.6,0.8-3.5,2.3c-1.1,1.8-1.6,4.3-1.6,7.5c0,3.6,0.7,6.3,2,8.1c0.9,1.2,1.9,1.8,3,1.8c1.6,0,2.9-1.1,3.9-3.3
		c0.8-1.7,1.1-3.9,1.1-6.5c0-3.5-0.6-6.2-1.9-8C44.7,11.8,43.7,11.2,42.5,11.2z"/>
	<path class="st0" d="M63.8,9v3h-5.2v21.2h-2.3V11.9H51V9H63.8z"/>
</g>
</svg>
