<?xml version="1.0" encoding="utf-8"?>
<!-- Generator: Adobe Illustrator 15.0.0, SVG Export Plug-In . SVG Version: 6.00 Build 0)  -->
<!DOCTYPE svg PUBLIC "-//W3C//DTD SVG 1.0//EN" "http://www.w3.org/TR/2001/REC-SVG-20010904/DTD/svg10.dtd">
<svg version="1.0" id="ƒŒƒCƒ„[_1" xmlns="http://www.w3.org/2000/svg" xmlns:xlink="http://www.w3.org/1999/xlink" x="0px"
	 y="0px" width="278px" height="70px" viewBox="0 0 278 70" enable-background="new 0 0 278 70" xml:space="preserve">
<path fill="#9D9D9D" d="M0,28V2c0-1.104,0.896-2,2-2h274c1.104,0,2,0.896,2,2v26H0z"/>
<rect x="92" y="9" fill="#303030" width="2" height="10"/>
<rect x="184" y="9" fill="#303030" width="2" height="10"/>
<g>
	<path d="M26.583,22.29l1.268-2.61c1.79,1.038,3.197,1.558,4.222,1.558c1.955,0,2.933-0.823,2.933-2.471
		c0-0.831-0.315-1.5-0.945-2.009c-0.372-0.308-1.124-0.688-2.256-1.139c-2.084-0.831-3.47-1.736-4.157-2.718
		c-0.494-0.716-0.741-1.579-0.741-2.589c0-1.733,0.659-3.062,1.977-3.985c1.089-0.767,2.478-1.149,4.168-1.149
		c1.712,0,3.294,0.53,4.748,1.59l-1.407,2.374C35.009,8.16,33.834,7.67,32.867,7.67c-0.688,0-1.296,0.2-1.826,0.602
		c-0.53,0.394-0.795,0.945-0.795,1.654c0,0.78,0.305,1.393,0.913,1.837c0.387,0.286,1.414,0.806,3.083,1.558
		c1.575,0.709,2.653,1.425,3.233,2.148c0.595,0.745,0.892,1.747,0.892,3.008c0,1.854-0.673,3.255-2.02,4.2
		c-1.103,0.78-2.606,1.171-4.512,1.171C29.917,23.848,28.166,23.328,26.583,22.29z"/>
	<path d="M41.901,23.461V5.564h3.964c3.638,0,6.32,0.576,8.046,1.729c2.191,1.468,3.287,3.824,3.287,7.068
		c0,6.065-3.398,9.099-10.194,9.099L41.901,23.461L41.901,23.461z M45.135,21.022h0.258h0.118h0.247h0.387
		c5.056,0,7.584-2.166,7.584-6.499c0-2.063-0.623-3.674-1.869-4.834c-1.01-0.945-2.514-1.476-4.512-1.59
		c-0.595-0.036-1.332-0.061-2.213-0.075V21.022z"/>
	<path d="M64.224,23.461H60.99V5.564h3.233L64.224,23.461L64.224,23.461z"/>
</g>
<g>
	<path d="M120.395,23.461h-3.233v-7.853h-7.896v7.853h-3.233V5.564h3.233v7.412h7.896V5.564h3.233V23.461z"/>
	<path d="M124.691,23.461V5.564h3.964c3.638,0,6.32,0.576,8.046,1.729c2.191,1.468,3.287,3.824,3.287,7.068
		c0,6.065-3.398,9.099-10.194,9.099L124.691,23.461L124.691,23.461z M127.925,21.022h0.258h0.118h0.247h0.387
		c5.056,0,7.584-2.166,7.584-6.499c0-2.063-0.623-3.674-1.869-4.834c-1.01-0.945-2.514-1.476-4.512-1.59
		c-0.595-0.036-1.332-0.061-2.213-0.075V21.022L127.925,21.022z"/>
	<path d="M163.652,23.461h-3.232V13.61l0.043-1.439c0.021-0.745,0.043-2.327,0.064-4.748c-0.258,0.78-0.447,1.371-0.569,1.772
		c-0.243,0.767-0.401,1.257-0.474,1.472l-4.532,12.794h-2.986l-3.856-10.624c-0.063-0.179-0.221-0.659-0.473-1.439
		c-0.285-0.888-0.756-2.206-1.406-3.953c0.172,2.521,0.258,4.519,0.258,5.994v10.022h-3.041V5.564h5.521l3.115,9.507l0.688,2.202
		c0.381,1.089,0.639,1.916,0.773,2.481c0.157-0.638,0.438-1.532,0.838-2.686l0.376-1.214l3.255-10.291h5.641v17.898H163.652z"/>
	<path d="M171.604,23.461h-3.233V5.564h3.233V23.461z"/>
</g>
<g>
	<path d="M219.77,20.829v2.632h-10.483V5.564h3.233v15.265H219.77z"/>
	<path d="M235.421,20.271l0.14,2.771c-1.504,0.372-2.896,0.559-4.179,0.559c-2.722,0-4.952-0.698-6.692-2.095
		c-2.012-1.604-3.019-3.942-3.019-7.015c0-2.778,0.858-4.978,2.578-6.596c1.747-1.647,4.043-2.471,6.886-2.471
		c1.325,0,2.768,0.258,4.329,0.773l-0.247,2.578c-1.167-0.522-2.406-0.784-3.717-0.784c-2.02,0-3.592,0.576-4.716,1.729
		c-1.089,1.124-1.634,2.657-1.634,4.598c0,1.948,0.576,3.523,1.729,4.727c1.196,1.246,2.786,1.869,4.771,1.869
		C232.875,20.915,234.132,20.7,235.421,20.271z"/>
	<path d="M238.3,23.461V5.564h3.964c3.639,0,6.32,0.576,8.047,1.729c2.19,1.468,3.287,3.824,3.287,7.068
		c0,6.065-3.398,9.099-10.195,9.099L238.3,23.461L238.3,23.461z M241.533,21.022h0.258h0.118h0.247h0.387
		c5.057,0,7.584-2.166,7.584-6.499c0-2.063-0.623-3.674-1.869-4.834c-1.01-0.945-2.514-1.476-4.512-1.59
		c-0.596-0.036-1.332-0.061-2.213-0.075V21.022L241.533,21.022z"/>
</g>
<path fill="#9D9D9D" d="M278,26H0v42c0,1.104,0.896,2,2,2h274c1.104,0,2-0.896,2-2V26L278,26z"/>
<polyline points="276,28 276,68 2,68 2,28 276,28 "/>
</svg>
