<?xml version="1.0" encoding="utf-8"?>
<!-- Generator: Adobe Illustrator 21.0.0, SVG Export Plug-In . SVG Version: 6.00 Build 0)  -->
<svg version="1.0" id="ƒŒƒCƒ„[_1" xmlns="http://www.w3.org/2000/svg" xmlns:xlink="http://www.w3.org/1999/xlink" x="0px"
	 y="0px" width="54px" height="45px" viewBox="0 0 54 45" style="enable-background:new 0 0 54 45;" xml:space="preserve">
<style type="text/css">
	.st0{fill:#9D9D9D;}
	.st1{fill:#FF0000;}
</style>
<path d="M39.9,36.1l-11-30L27,1l-1.9,5.1l-11,30l-1,2.7H16h2.7H20l0.5-1.2c1.2-2.5,3.7-4.1,6.5-4.1c2.8,0,5.3,1.6,6.5,4.1l0.5,1.2
	h1.3H38h2.9L39.9,36.1z"/>
<g>
	<path class="st0" d="M18.7,36.8H16l11-30l11,30h-2.7c-1.4-3.1-4.6-5.2-8.3-5.2C23.3,31.6,20.1,33.8,18.7,36.8z"/>
</g>
<g>
	<polygon points="16.2,17.4 14.8,18.8 11.2,22.4 7.6,18.8 6.2,17.4 4.8,18.8 2.8,20.8 1.4,22.2 2.8,23.6 6.4,27.2 2.8,30.8 
		1.4,32.2 2.8,33.6 4.8,35.6 6.2,37 7.6,35.6 11.2,32 14.8,35.6 16.2,37 17.6,35.6 19.6,33.6 21,32.2 19.6,30.8 16,27.2 19.6,23.6 
		21,22.2 19.6,20.8 17.6,18.8 16.2,17.4 	"/>
	<polygon class="st1" points="18.2,22.2 16.2,20.2 11.2,25.2 6.2,20.2 4.2,22.2 9.2,27.2 4.2,32.2 6.2,34.2 11.2,29.2 16.2,34.2 
		18.2,32.2 13.2,27.2 	"/>
	<polyline class="st1" points="16.2,20.2 18.2,22.2 13.2,27.2 18.2,32.2 16.2,34.2 11.2,29.2 6.2,34.2 4.2,32.2 9.2,27.2 4.2,22.2 
		6.2,20.2 11.2,25.2 16.2,20.2 	"/>
</g>
</svg>
