<?xml version="1.0" encoding="utf-8"?>
<!-- Generator: Adobe Illustrator 15.0.0, SVG Export Plug-In . SVG Version: 6.00 Build 0)  -->
<!DOCTYPE svg PUBLIC "-//W3C//DTD SVG 1.0//EN" "http://www.w3.org/TR/2001/REC-SVG-20010904/DTD/svg10.dtd">
<svg version="1.0" id="ƒŒƒCƒ„[_1" xmlns="http://www.w3.org/2000/svg" xmlns:xlink="http://www.w3.org/1999/xlink" x="0px"
	 y="0px" width="24px" height="18px" viewBox="0 0 24 18" enable-background="new 0 0 24 18" xml:space="preserve">
<g>
	<rect x="2" width="20" height="18"/>
</g>
<rect x="3" y="1" fill="#FFFFFF" width="18" height="16"/>
<path d="M10.944,12.672c1.335-0.938,2.544-1.961,3.597-3.048c1.139-1.176,1.717-2.259,1.717-3.22c0-0.997-0.486-1.813-1.445-2.423
	c-0.793-0.501-1.834-0.756-3.096-0.756c-1.287,0-2.708,0.252-4.221,0.748L7.34,4.025l0.254,2.046l0.25-0.122
	c1.041-0.502,2.094-0.757,3.127-0.757c1.496,0,2.223,0.482,2.223,1.477c0,0.643-0.53,1.455-1.578,2.417
	c-1.051,0.97-2.553,2.138-4.462,3.473l-0.085,0.06v1.963h9.613v-1.909H10.944z"/>
</svg>
