<?xml version="1.0" encoding="utf-8"?>
<!-- Generator: Adobe Illustrator 21.0.0, SVG Export Plug-In . SVG Version: 6.00 Build 0)  -->
<svg version="1.0" id="ƒŒƒCƒ„[_1" xmlns="http://www.w3.org/2000/svg" xmlns:xlink="http://www.w3.org/1999/xlink" x="0px"
	 y="0px" width="108px" height="45px" viewBox="0 0 108 45" style="enable-background:new 0 0 108 45;" xml:space="preserve">
<style type="text/css">
	.st0{fill:#FFFFFF;}
</style>
<g>
	<g>
		<g>
			<g>
				<path d="M25.6,10.4l-1.1,2.8c-1.5-1.2-2.9-1.8-3.9-1.8c-2.1,0-3.1,1.1-3.1,3.4c0,0.9,0.3,1.7,0.9,2.3c0.3,0.3,1,0.8,2,1.4
					l2.1,1.3c2.8,1.8,4.2,4,4.2,6.8c0,2.2-0.7,3.9-2.1,5.2c-1.1,1.1-2.6,1.6-4.5,1.6s-3.7-0.7-5.5-2.2l1.2-2.9c1.8,1.4,3.3,2,4.4,2
					c1,0,1.9-0.3,2.6-0.9s1-1.5,1-2.7c0-1.1-0.3-2.1-1-2.8c-0.5-0.5-1.3-1.1-2.5-1.8l-1.5-0.9c-2.7-1.6-4.1-3.7-4.1-6.5
					c0-2,0.6-3.7,1.9-4.9c1-1,2.4-1.5,4.1-1.5C22.2,8.5,23.8,9.1,25.6,10.4z"/>
				<path d="M19.9,35.5c-2.3,0-4.6-0.9-6.7-2.7l-1.2-1l2.8-6.6l2,1.5c2,1.5,3,1.6,3.2,1.6c0.5,0,0.9-0.1,1.2-0.4
					c0.2-0.2,0.4-0.6,0.4-1.2s-0.2-1.1-0.5-1.5c-0.2-0.2-0.7-0.7-2-1.4l-1.5-0.9c-3.3-1.9-5.1-4.7-5.1-8.2c0-2.6,0.8-4.7,2.5-6.3
					c1.4-1.4,3.3-2.1,5.5-2.1c2,0,4.1,0.8,6.2,2.3L28,9.7l-2.6,6.7l-2.1-1.6c-1.6-1.2-2.4-1.4-2.7-1.4c-0.7,0-1.1,0-1.1,1.4
					c0,0.4,0.1,0.7,0.4,0.9c0,0,0.3,0.3,1.6,1.1l2.1,1.3c3.4,2.1,5.1,5,5.1,8.5c0,2.7-0.9,5-2.7,6.7C24.4,34.8,22.4,35.5,19.9,35.5z
					"/>
			</g>
			<g>
				<path d="M32.8,9v24.1h-2.7V9H32.8z"/>
				<rect x="28.1" y="7" width="6.7" height="28.1"/>
			</g>
			<g>
				<path d="M58.8,9v24.1h-2.7V19.3c0-0.5,0-1.9,0-4.3v-2.2c0-0.4,0-0.8,0-1.3c0-0.2,0-0.4,0-0.5s0-0.3,0-0.4v0.1
					c-0.1,0.5-0.3,1.3-0.6,2.4c-0.5,1.9-1.2,4.6-2.4,8.3l-3.6,11.7H47l-3.6-11.7l-0.7-2L42,16.8c-0.8-2.6-1.2-4.2-1.3-4.7
					c-0.2-0.7-0.3-1.2-0.4-1.6c0,0,0,0.2,0,0.5c0,0.1,0,0.6,0.1,1.6c0,0.4,0,0.9,0,1.4c0,0.2,0,0.4,0,0.6c0,0.1,0,0.5,0,1
					c0,0.6,0,1.2,0.1,1.9c0,0.9,0,1.6,0,2V33h-2.7V9h4.5l3.9,12.1l0.6,2c0.9,2.9,1.4,4.9,1.6,6.1c0.3-1.5,1.1-4.3,2.3-8.1L54.3,9
					H58.8z"/>
				<path d="M60.8,35.1h-6.7v-9.8l-3,9.8h-5.6l-3-9.8v9.8h-6.7V7h7.9l4.6,14.6c0.1-0.4,0.2-0.8,0.4-1.2L52.8,7h8V35.1z M48,29.5
					l0.3,1l0.3-1H48z"/>
			</g>
			<g>
				<path d="M78.4,9v13.6c0,3.2-0.4,5.6-1.1,7.1c-1.2,2.6-3.3,3.8-6.2,3.8c-3,0-5.1-1.3-6.3-4c-0.8-1.7-1.1-4.2-1.1-7.5V9h2.7v12.6
					c0,3,0.3,5.2,0.8,6.4c0.8,1.8,2.1,2.6,3.9,2.6c2.2,0,3.6-1.2,4.2-3.6c0.3-1.1,0.4-2.8,0.4-5.2V9H78.4z"/>
				<path d="M71.1,35.5c-3.8,0-6.6-1.8-8.1-5.1c-0.9-2-1.3-4.7-1.3-8.3V7h6.7v14.6c0,3.6,0.4,5,0.6,5.6c0.5,1.2,1.2,1.4,2.1,1.4
					c0.8,0,1.8-0.2,2.3-2.1c0.2-0.6,0.4-2,0.4-4.7V7h6.7v15.6c0,3.5-0.4,6.2-1.3,8C77.5,33.8,74.8,35.5,71.1,35.5z"/>
			</g>
			<g>
				<path d="M86,9v21.2h8v3H83.3V9H86z"/>
				<polygon points="96.1,35.1 81.3,35.1 81.3,7 88,7 88,28.1 96.1,28.1 				"/>
			</g>
		</g>
	</g>
	<g>
		<path d="M107,41H1V1h106V41z M101,7H7v28h94V7z"/>
	</g>
	<g>
		<path class="st0" d="M103,5v32H5V5H103 M105,3H3v36h102V3L105,3z"/>
	</g>
	<g>
		<path class="st0" d="M25.6,10.4l-1.1,2.8c-1.5-1.2-2.9-1.8-3.9-1.8c-2.1,0-3.1,1.1-3.1,3.4c0,0.9,0.3,1.7,0.9,2.3
			c0.3,0.3,1,0.8,2,1.4l2.1,1.3c2.8,1.8,4.2,4,4.2,6.8c0,2.2-0.7,3.9-2.1,5.2c-1.1,1.1-2.6,1.6-4.5,1.6s-3.7-0.7-5.5-2.2l1.2-2.9
			c1.8,1.4,3.3,2,4.4,2c1,0,1.9-0.3,2.6-0.9s1-1.5,1-2.7c0-1.1-0.3-2.1-1-2.8c-0.5-0.5-1.3-1.1-2.5-1.8l-1.5-0.9
			c-2.7-1.6-4.1-3.7-4.1-6.5c0-2,0.6-3.7,1.9-4.9c1-1,2.4-1.5,4.1-1.5C22.2,8.5,23.8,9.1,25.6,10.4z"/>
		<path class="st0" d="M32.8,9v24.1h-2.7V9H32.8z"/>
		<path class="st0" d="M58.8,9v24.1h-2.7V19.3c0-0.5,0-1.9,0-4.3v-2.2c0-0.4,0-0.8,0-1.3c0-0.2,0-0.4,0-0.5s0-0.3,0-0.4v0.1
			c-0.1,0.5-0.3,1.3-0.6,2.4c-0.5,1.9-1.2,4.6-2.4,8.3l-3.6,11.7H47l-3.6-11.7l-0.7-2L42,16.8c-0.8-2.6-1.2-4.2-1.3-4.7
			c-0.2-0.7-0.3-1.2-0.4-1.6c0,0,0,0.2,0,0.5c0,0.1,0,0.6,0.1,1.6c0,0.4,0,0.9,0,1.4c0,0.2,0,0.4,0,0.6c0,0.1,0,0.5,0,1
			c0,0.6,0,1.2,0.1,1.9c0,0.9,0,1.6,0,2V33h-2.7V9h4.5l3.9,12.1l0.6,2c0.9,2.9,1.4,4.9,1.6,6.1c0.3-1.5,1.1-4.3,2.3-8.1L54.3,9H58.8
			z"/>
		<path class="st0" d="M78.4,9v13.6c0,3.2-0.4,5.6-1.1,7.1c-1.2,2.6-3.3,3.8-6.2,3.8c-3,0-5.1-1.3-6.3-4c-0.8-1.7-1.1-4.2-1.1-7.5V9
			h2.7v12.6c0,3,0.3,5.2,0.8,6.4c0.8,1.8,2.1,2.6,3.9,2.6c2.2,0,3.6-1.2,4.2-3.6c0.3-1.1,0.4-2.8,0.4-5.2V9H78.4z"/>
		<path class="st0" d="M86,9v21.2h8v3H83.3V9H86z"/>
	</g>
</g>
</svg>
