<?xml version="1.0" encoding="utf-8"?>
<!-- Generator: Adobe Illustrator 21.0.0, SVG Export Plug-In . SVG Version: 6.00 Build 0)  -->
<svg version="1.0" id="ƒŒƒCƒ„[_1" xmlns="http://www.w3.org/2000/svg" xmlns:xlink="http://www.w3.org/1999/xlink" x="0px"
	 y="0px" width="18px" height="45px" viewBox="0 0 18 45" style="enable-background:new 0 0 18 45;" xml:space="preserve">
<style type="text/css">
	.st0{fill:#FFFFFF;}
</style>
<polygon points="15,16 14,16 14,9 14,7 12,7 6,7 4,7 4,9 4,16 3,16 1,16 1,18 1,24 1,26 3,26 4,26 4,33 4,35 6,35 12,35 14,35 
	14,33 14,26 15,26 17,26 17,24 17,18 17,16 "/>
<polygon class="st0" points="15,18 12,18 12,9 6,9 6,18 3,18 3,24 6,24 6,33 12,33 12,24 15,24 "/>
</svg>
