<?xml version="1.0" encoding="utf-8"?>
<!-- Generator: Adobe Illustrator 21.0.0, SVG Export Plug-In . SVG Version: 6.00 Build 0)  -->
<svg version="1.0" id="ƒŒƒCƒ„[_1" xmlns="http://www.w3.org/2000/svg" xmlns:xlink="http://www.w3.org/1999/xlink" x="0px"
	 y="0px" width="36px" height="45px" viewBox="0 0 36 45" style="enable-background:new 0 0 36 45;" xml:space="preserve">
<style type="text/css">
	.st0{fill:#FFFFFF;}
</style>
<path d="M33,16.1h-3.2l2.2-2.2l1.4-1.4L32.1,11L28,6.9l-1.4-1.4l-1.4,1.4L23,9.1V6V4h-2h-5.8h-2v2v3.2L11,7L9.4,5.5L8,6.9L3.9,11
	l-1.4,1.4l1.4,1.4L6.1,16H3H1v2v5.8v2h2h3.2L4,28l-1.4,1.4L3.9,31L8,35.1l1.4,1.4l1.4-1.4l2.2-2.2V36v2h2h5.8h2v-2v-3.2L25,35
	l1.4,1.4l1.4-1.4l4.1-4.1l1.4-1.4l-1.4-1.4l-2.2-2.2H33h2v-2v-5.8v-2C35,16.1,33,16.1,33,16.1z M14.6,21c0-1.9,1.5-3.4,3.4-3.4
	s3.4,1.5,3.4,3.4s-1.5,3.4-3.4,3.4S14.6,22.9,14.6,21z"/>
<path class="st0" d="M27.7,23.9l-0.8,1.9l3.7,3.7l-4.1,4.1l-3.7-3.7l-1.9,0.8V36h-5.8v-5.3l-1.9-0.8l-3.7,3.7l-4.1-4.1l3.7-3.7
	l-0.8-1.9H3v-5.8h5.3l0.8-1.9l-3.7-3.7l4.1-4.1l3.7,3.7l1.9-0.8V6h5.8v5.3l1.9,0.8l3.7-3.7l4.1,4.1l-3.7,3.7l0.8,1.9H33v5.8
	C33,23.9,27.7,23.9,27.7,23.9z M18,15.6c-3,0-5.4,2.4-5.4,5.4s2.4,5.4,5.4,5.4s5.4-2.4,5.4-5.4S21,15.6,18,15.6z"/>
</svg>
