<?xml version="1.0" encoding="utf-8"?>
<!-- Generator: Adobe Illustrator 15.0.0, SVG Export Plug-In . SVG Version: 6.00 Build 0)  -->
<!DOCTYPE svg PUBLIC "-//W3C//DTD SVG 1.0//EN" "http://www.w3.org/TR/2001/REC-SVG-20010904/DTD/svg10.dtd">
<svg version="1.0" id="ƒŒƒCƒ„[_1" xmlns="http://www.w3.org/2000/svg" xmlns:xlink="http://www.w3.org/1999/xlink" x="0px"
	 y="0px" width="36px" height="18px" viewBox="0 0 36 18" enable-background="new 0 0 36 18" xml:space="preserve">
<g>
	<g>
		<path d="M13.244,12.545v1.471h-7.2V4.011h7.126v1.471H8.248v2.673h4.527v1.472H8.248v2.919H13.244z"/>
		<polygon points="14.444,15.216 4.844,15.216 4.844,2.811 14.37,2.811 14.37,6.682 9.448,6.682 9.448,6.954 13.976,6.954 
			13.976,10.826 9.448,10.826 9.448,11.345 14.444,11.345 		"/>
	</g>
	<g>
		<path d="M19.076,14.016h-2.205V4.011h2.205V14.016z"/>
		<rect x="15.671" y="2.811" width="4.605" height="12.405"/>
	</g>
	<g>
		<path d="M22.441,13.361l0.865-1.459c1.22,0.58,2.18,0.87,2.878,0.87c1.333,0,1.999-0.46,1.999-1.381
			c0-0.465-0.215-0.839-0.645-1.123c-0.254-0.172-0.767-0.385-1.537-0.637c-1.422-0.465-2.366-0.971-2.835-1.52
			c-0.337-0.4-0.505-0.883-0.505-1.447c0-0.969,0.448-1.712,1.348-2.229c0.741-0.429,1.688-0.643,2.842-0.643
			c1.166,0,2.245,0.297,3.236,0.889L29.129,6.01c-0.942-0.548-1.743-0.822-2.402-0.822c-0.469,0-0.884,0.112-1.245,0.336
			c-0.361,0.221-0.542,0.528-0.542,0.925c0,0.437,0.207,0.779,0.623,1.027c0.264,0.16,0.964,0.45,2.102,0.871
			c1.074,0.396,1.809,0.797,2.205,1.201c0.404,0.416,0.607,0.977,0.607,1.682c0,1.037-0.459,1.819-1.377,2.348
			c-0.752,0.437-1.777,0.655-3.076,0.655C24.715,14.232,23.521,13.941,22.441,13.361z"/>
		<path d="M26.023,15.433c-1.502,0-2.898-0.342-4.15-1.015l-1.103-0.592l2.063-3.478l0.989,0.47
			c1.379,0.656,2.072,0.754,2.362,0.754c0.637,0,0.818-0.133,0.82-0.135c-0.023-0.078-0.044-0.112-0.128-0.168
			c-0.035-0.024-0.282-0.182-1.248-0.497c-1.674-0.547-2.746-1.145-3.374-1.881c-0.528-0.627-0.793-1.374-0.793-2.227
			c0-1.406,0.675-2.536,1.95-3.27c0.919-0.531,2.077-0.802,3.439-0.802c1.38,0,2.675,0.356,3.852,1.059l1.125,0.672l-2.363,3.27
			l-0.939-0.547c-0.938-0.545-1.496-0.659-1.799-0.659c-0.19,0-0.354,0.031-0.499,0.096c0.178,0.08,0.625,0.283,1.853,0.738
			c1.253,0.462,2.118,0.948,2.646,1.486c0.633,0.65,0.951,1.497,0.951,2.521c0,1.472-0.685,2.643-1.979,3.388
			C28.755,15.165,27.551,15.433,26.023,15.433z"/>
	</g>
</g>
<g>
	<path d="M36,18H0V0h36V18z M35,1H1v16h34V1z"/>
</g>
<path fill="#FFFFFF" d="M35,17H1V1h34V17z M34,2H2v14h32V2z"/>
<path d="M34,2H2v14h32V2z M33,15H3V3h30V15z"/>
<g>
	<path fill="#FFFFFF" d="M13.244,12.546v1.471h-7.2V4.012h7.126v1.471H8.248v2.673h4.527v1.472H8.248v2.919H13.244z"/>
	<path fill="#FFFFFF" d="M19.076,14.017h-2.205V4.012h2.205V14.017z"/>
	<path fill="#FFFFFF" d="M22.441,13.362l0.865-1.459c1.22,0.58,2.18,0.87,2.878,0.87c1.333,0,1.999-0.46,1.999-1.381
		c0-0.465-0.215-0.839-0.645-1.123c-0.254-0.172-0.767-0.385-1.537-0.637c-1.422-0.465-2.366-0.971-2.835-1.52
		c-0.337-0.4-0.505-0.883-0.505-1.447c0-0.969,0.448-1.712,1.348-2.229c0.741-0.429,1.688-0.643,2.842-0.643
		c1.166,0,2.245,0.297,3.236,0.889l-0.959,1.327c-0.942-0.548-1.743-0.822-2.402-0.822c-0.469,0-0.884,0.112-1.245,0.336
		c-0.361,0.221-0.542,0.528-0.542,0.925c0,0.437,0.207,0.779,0.623,1.027c0.264,0.16,0.964,0.45,2.102,0.871
		c1.074,0.396,1.809,0.797,2.205,1.201c0.404,0.416,0.607,0.977,0.607,1.682c0,1.037-0.459,1.819-1.377,2.348
		c-0.752,0.437-1.777,0.655-3.076,0.655C24.715,14.233,23.521,13.942,22.441,13.362z"/>
</g>
</svg>
