<?xml version="1.0" encoding="utf-8"?>
<!-- Generator: Adobe Illustrator 21.0.0, SVG Export Plug-In . SVG Version: 6.00 Build 0)  -->
<svg version="1.0" id="ƒŒƒCƒ„[_1" xmlns="http://www.w3.org/2000/svg" xmlns:xlink="http://www.w3.org/1999/xlink" x="0px"
	 y="0px" width="66px" height="54px" viewBox="0 0 66 54" style="enable-background:new 0 0 66 54;" xml:space="preserve">
<style type="text/css">
	.st0{fill:#D4D4D4;}
</style>
<g>
	<g>
		<path class="st0" d="M32.8,38c-4.8,0-8.7-3.9-8.7-8.7c0-4.8,3.9-8.7,8.7-8.7c4.8,0,8.7,3.9,8.7,8.7S37.6,38,32.8,38z M52.7,44
			c1.3,0,2.3-1,2.3-2.3V18.3c0-1.3-1-2.3-2.3-2.3h-10l-3.1-4.2C38.8,10.7,37.4,10,36,10h-6c-1.4,0-2.8,0.7-3.6,1.8L23.3,16h-10
			C12,16,11,17,11,18.3v23.5c0,1.2,1,2.3,2.3,2.3L52.7,44L52.7,44z"/>
	</g>
</g>
</svg>
