<?xml version="1.0" encoding="utf-8"?>
<!-- Generator: Adobe Illustrator 21.0.0, SVG Export Plug-In . SVG Version: 6.00 Build 0)  -->
<svg version="1.0" id="ƒŒƒCƒ„[_1" xmlns="http://www.w3.org/2000/svg" xmlns:xlink="http://www.w3.org/1999/xlink" x="0px"
	 y="0px" width="108px" height="45px" viewBox="0 0 108 45" style="enable-background:new 0 0 108 45;" xml:space="preserve">
<style type="text/css">
	.st0{fill:#FFFFFF;}
</style>
<g>
	<path d="M107,41H1V1h106V41z M101,7H7v28h94V7z"/>
</g>
<g>
	<path class="st0" d="M103,5v32H5V5H103 M105,3H3v36h102V3L105,3z"/>
</g>
<path d="M96.7,12.2c-2.3,0-4,1.2-5,3.7c-0.2-0.4-0.4-0.8-0.6-1.1c-1.9-2.7-5.3-3.3-9-1.1l0,0v-1.2h-4.6l-2.2,2.7l1.2-8.4h-5.8
	l-1,7.2l-0.9-7.2h-6L62,13.6l-1-6.8h-5.9l0.4,2.6c-1.8-2.5-4-3.1-5.7-3.1c-2.6,0-6.1,1.3-7.8,7.4c-0.6,2.2-0.9,4.6-0.9,7.2
	s0.3,4.9,0.9,7.1h-4V6.9h-6v1.7c-1.5-1.5-3.1-2.2-4.7-2.2c-1.9,0-3.4,0.8-4.6,2.3c-1.2,1.6-1.7,3.6-1.7,6.1c0,3.4,1.2,6.1,3.7,8
	l1.1,0.9c0.9,0.7,1.2,1.1,1.4,1.3c0.3,0.4,0.4,1,0.4,1.7c0,1-0.2,1.3-0.3,1.4c-0.2,0.2-0.2,0.2-0.2,0.2s-0.6-0.1-1.8-1.4L23,24.5
	L22.2,27H18c0-0.2,0-0.3,0-0.5c0-3.3-1.2-6.1-3.7-8.3L12.8,17c-0.9-0.8-1.1-1-1.1-1.1c-0.2-0.3-0.3-0.7-0.3-1.2
	c0-0.9,0.1-1.3,0.2-1.4c0.1,0,0.5,0.2,1.4,1.1l2.4,2.6l2.1-7.3l-0.8-0.8c-1.6-1.7-3.3-2.5-5-2.5c-1.9,0-3.4,0.8-4.6,2.3
	c-1.2,1.6-1.7,3.6-1.7,6.1c0,3.4,1.2,6.1,3.7,8l1.1,0.9c0.9,0.7,1.2,1.1,1.4,1.3c0.3,0.4,0.4,1,0.4,1.7c0,1-0.2,1.3-0.3,1.4
	c-0.2,0.2-0.2,0.2-0.2,0.2s-0.6-0.1-1.8-1.4l-2.3-2.4L5,31.7l0.7,0.8c1.7,1.9,3.5,2.9,5.5,2.9s3.7-0.8,4.9-2.4
	c0.1-0.1,0.1-0.2,0.2-0.3V35h6.2v-1.3c1.4,1.2,2.8,1.8,4.4,1.8c2,0,3.7-0.8,4.9-2.4c0.1-0.1,0.2-0.3,0.3-0.4V35h11.8v-3
	c1.8,2.7,4.2,3.4,6,3.4c2,0,4.9-0.8,6.7-4.7c0.7-1.4,1.2-3,1.5-4.9l1.4,9.2h5.7l0.8-6.8l0.9,6.8h5.6l2.1-14.3l1.7,3l0.2-0.2V35H81
	h1.2h10.6v-1.6c1,1.3,2.3,2,4,2c4.1,0,6.1-3.9,6.1-11.6C102.8,16.1,100.8,12.2,96.7,12.2z M48.7,27.8c-1-1.5-1.5-3.8-1.5-6.9
	c0-2.9,0.4-5.1,1.2-6.5c0.7-1.2,1.2-1.2,1.4-1.2c0.1,0,0.5,0,1.1,0.9c0.9,1.5,1.4,3.8,1.4,7c0,2.3-0.3,4.2-0.9,5.7
	c-0.3,0.7-0.9,2-1.6,2C49.7,28.7,49.3,28.7,48.7,27.8z M29.9,18.3L28.4,17c-0.9-0.8-1.1-1-1.1-1.1c-0.2-0.3-0.3-0.7-0.3-1.2
	c0-0.9,0.1-1.3,0.2-1.4c0.1,0,0.5,0.2,1.4,1.1L31,17l0.9-3.3v7.1C31.5,19.9,30.8,19.1,29.9,18.3z M96.7,19.3
	c0.2,0.8,0.4,2.3,0.4,4.7c0,2.2-0.2,3.6-0.4,4.3c-0.2-0.8-0.4-2.2-0.4-4.5C96.3,21.5,96.5,20.1,96.7,19.3z M82.1,18.2l2.6,1
	c0.9-0.8,1.4-0.8,1.5-0.8c0,0,0,0,0.1,0.1c0.2,0.2,0.2,0.5,0.2,0.9c0,1-0.6,3.3-4.4,8.5C82.1,27.9,82.1,18.2,82.1,18.2z M88.7,28.8
	c0.7-1.1,1.4-2.2,1.9-3.2c0.1,1.2,0.2,2.2,0.3,3.2H88.7z"/>
<g>
	<g>
		<path class="st0" d="M15.3,10.3l-0.8,2.8c-1.1-1.2-2.1-1.8-2.8-1.8c-1.5,0-2.2,1.1-2.2,3.4c0,0.9,0.2,1.7,0.7,2.3
			c0.2,0.3,0.7,0.8,1.4,1.4l1.5,1.3c2,1.8,3,4,3,6.8c0,2.2-0.5,3.9-1.5,5.2c-0.8,1.1-1.9,1.6-3.3,1.6s-2.7-0.7-3.9-2.2l0.9-2.9
			c1.3,1.4,2.4,2,3.2,2c0.7,0,1.4-0.3,1.9-0.9s0.7-1.5,0.7-2.7c0-1.1-0.2-2.1-0.7-2.8c-0.3-0.5-0.9-1.1-1.8-1.8l-1.1-0.9
			c-2-1.6-3-3.7-3-6.5c0-2,0.5-3.7,1.4-4.9c0.7-1,1.7-1.5,2.9-1.5C12.8,8.4,14,9,15.3,10.3z"/>
		<path class="st0" d="M20.5,29.1V33h-2.2v-3.9H20.5z"/>
		<path class="st0" d="M30.9,10.3l-0.8,2.8c-1.1-1.2-2.1-1.8-2.8-1.8c-1.5,0-2.2,1.1-2.2,3.4c0,0.9,0.2,1.7,0.7,2.3
			c0.2,0.3,0.7,0.8,1.4,1.4l1.5,1.3c2,1.8,3,4,3,6.8c0,2.2-0.5,3.9-1.5,5.2c-0.8,1.1-1.9,1.6-3.3,1.6s-2.7-0.7-3.9-2.2l0.9-2.9
			c1.3,1.4,2.4,2,3.2,2c0.7,0,1.4-0.3,1.9-0.9s0.7-1.5,0.7-2.7c0-1.1-0.2-2.1-0.7-2.8c-0.3-0.5-0.9-1.1-1.8-1.8l-1.1-0.9
			c-2-1.6-3-3.7-3-6.5c0-2,0.5-3.7,1.4-4.9c0.7-1,1.7-1.5,2.9-1.5C28.4,8.4,29.7,9,30.9,10.3z"/>
		<path class="st0" d="M36,8.9V30h5.8v3H34V8.9H36z"/>
		<path class="st0" d="M49.9,8.4c2.4,0,4.1,1.5,5.3,4.6c0.8,2.2,1.2,4.8,1.2,7.9c0,3.6-0.6,6.5-1.7,8.8c-1.2,2.4-2.8,3.6-4.9,3.6
			c-2.6,0-4.5-1.8-5.6-5.3c-0.7-2.2-1-4.6-1-7.2c0-2.4,0.3-4.6,0.9-6.6C45.1,10.4,47.1,8.4,49.9,8.4z M49.8,11.1
			c-1.3,0-2.3,0.8-3.2,2.3c-1,1.8-1.4,4.3-1.4,7.5c0,3.6,0.6,6.3,1.8,8.1c0.8,1.2,1.7,1.8,2.7,1.8c1.5,0,2.7-1.1,3.5-3.3
			c0.7-1.7,1-3.9,1-6.5c0-3.5-0.6-6.2-1.7-8C51.8,11.7,50.9,11.1,49.8,11.1z"/>
		<path class="st0" d="M74.3,8.9L70.7,33h-2.2l-2.1-15.8c-0.2-1.6-0.4-3.4-0.6-5.5c-0.2,2.4-0.4,4.3-0.6,5.5l-2,15.8H61L57.5,8.9
			h1.8L61.4,23c0.4,2.4,0.6,4.6,0.8,6.7c0.1-1.5,0.4-3.7,0.7-6.8l1.7-14H67L68.9,23c0.2,1.7,0.5,3.9,0.8,6.7
			c0.2-2.2,0.5-4.4,0.8-6.7l2-14.1H74.3z"/>
	</g>
	<g>
		<path class="st0" d="M80.1,14.5V33h-1.7V18.5c0-0.7,0-1.1,0-1.2c-0.1,0.3-0.4,0.6-0.7,1L76.5,20l-1-1.7l3-3.8
			C78.5,14.5,80.1,14.5,80.1,14.5z"/>
		<path class="st0" d="M83.2,15.3c1.2-0.7,2.2-1.1,3.2-1.1c1.3,0,2.3,0.5,3.1,1.6c0.6,0.9,1,2.1,1,3.5c0,2.3-1.2,5.2-3.6,8.6
			c-0.8,1.2-1.5,2.1-2.3,3c0.3-0.1,0.7-0.1,1.3-0.1h4.8V33h-7.8v-2.8c3.8-4.9,5.6-8.5,5.6-10.8c0-0.9-0.3-1.7-0.8-2.2
			c-0.4-0.5-1-0.7-1.6-0.7c-0.9,0-1.8,0.4-2.8,1.3L83.2,15.3z"/>
		<path class="st0" d="M96.7,14.2c2.7,0,4.1,3.2,4.1,9.6s-1.4,9.6-4.1,9.6c-2.8,0-4.1-3.2-4.1-9.7C92.5,17.3,93.9,14.2,96.7,14.2z
			 M96.7,16.3c-1.6,0-2.4,2.5-2.4,7.4s0.8,7.4,2.4,7.4s2.4-2.4,2.4-7.2C99.1,18.9,98.3,16.3,96.7,16.3z"/>
	</g>
</g>
</svg>
