<?xml version="1.0" encoding="utf-8"?>
<!-- Generator: Adobe Illustrator 21.0.0, SVG Export Plug-In . SVG Version: 6.00 Build 0)  -->
<svg version="1.0" id="ƒŒƒCƒ„[_1" xmlns="http://www.w3.org/2000/svg" xmlns:xlink="http://www.w3.org/1999/xlink" x="0px"
	 y="0px" width="54px" height="45px" viewBox="0 0 54 45" style="enable-background:new 0 0 54 45;" xml:space="preserve">
<style type="text/css">
	.st0{fill:#FFFFFF;}
</style>
<path d="M42,36H23c-6.7,0-12.5-4.6-14.1-11H1v-7h7.9C10.5,11.6,16.3,7,23,7h19v5h10v7H42v5h10v7H42V36z M23,14
	c-4.1,0-7.5,3.4-7.5,7.5S18.9,29,23,29h12V14H23z"/>
<g>
	<path class="st0" d="M50,17v-3H40v-2V9H23c-6.4,0-11.7,4.8-12.4,11H3v3h7.6c0.7,6.2,6,11,12.4,11h17v-3v-2h10v-3H40v-9H50z M23,31
		c-5.2,0-9.5-4.3-9.5-9.5S17.8,12,23,12h14v19H23z"/>
</g>
</svg>
