<?xml version="1.0" encoding="utf-8"?>
<!-- Generator: Adobe Illustrator 15.0.0, SVG Export Plug-In . SVG Version: 6.00 Build 0)  -->
<!DOCTYPE svg PUBLIC "-//W3C//DTD SVG 1.0//EN" "http://www.w3.org/TR/2001/REC-SVG-20010904/DTD/svg10.dtd">
<svg version="1.0" id="ƒŒƒCƒ„[_1" xmlns="http://www.w3.org/2000/svg" xmlns:xlink="http://www.w3.org/1999/xlink" x="0px"
	 y="0px" width="24px" height="18px" viewBox="0 0 24 18" enable-background="new 0 0 24 18" xml:space="preserve">
<path d="M14.533,11.046c0.213-0.202,0.42-0.407,0.621-0.614c1.234-1.274,1.859-2.518,1.859-3.693c0-0.911-0.32-2.199-1.846-3.171
	c-1.721-1.087-4.453-1.133-7.494-0.135L6.582,3.794l0.559,4.5l1.758-0.854c0.75-0.362,1.5-0.546,2.225-0.546
	c0.41,0,0.631,0.054,0.732,0.091c-0.031,0.1-0.193,0.488-0.992,1.222c-0.889,0.818-2.17,1.814-3.805,2.958l-0.602,0.418v3.596h10.93
	v-4.132H14.533z"/>
<path fill="#FFFFFF" d="M11.143,12.246c1.154-0.816,2.201-1.705,3.117-2.649c1.01-1.043,1.521-2.005,1.521-2.858
	c0-0.888-0.434-1.613-1.287-2.156c-1.422-0.898-3.822-0.88-6.475-0.011L7.863,4.623l0.23,1.857l0.25-0.122
	c0.916-0.441,1.84-0.665,2.748-0.665c1.938,0,1.938,0.963,1.938,1.279c0,0.56-0.465,1.271-1.385,2.115
	c-0.928,0.854-2.25,1.885-3.934,3.063l-0.086,0.06v1.768h8.529v-1.731H11.143z"/>
<g>
	<path d="M22,18H2V0h20V18z M21,1H3v16h18V1z"/>
</g>
<g>
	<path fill="#FFFFFF" d="M21,17H3V1h18V17z M19.5,2.5h-15v13h15V2.5z"/>
</g>
<g>
	<g>
		<rect x="3" y="1" fill="none" width="18" height="16"/>
	</g>
	<path d="M19.5,15.5h-15v-13h15V15.5z M18.5,3.5h-13v11h13V3.5z"/>
</g>
</svg>
