<?xml version="1.0" encoding="utf-8"?>
<!-- Generator: Adobe Illustrator 21.0.0, SVG Export Plug-In . SVG Version: 6.00 Build 0)  -->
<svg version="1.0" id="ƒŒƒCƒ„[_1" xmlns="http://www.w3.org/2000/svg" xmlns:xlink="http://www.w3.org/1999/xlink" x="0px"
	 y="0px" width="90px" height="45px" viewBox="0 0 90 45" style="enable-background:new 0 0 90 45;" xml:space="preserve">
<style type="text/css">
	.st0{fill:#FFFFFF;}
</style>
<g>
	<path d="M89,41H1V1h88V41z M83,7H7v28h76V7z"/>
</g>
<g>
	<path class="st0" d="M85,5v32H5V5H85 M87,3H3v36h84V3L87,3z"/>
</g>
<path d="M78.5,7h-5.1l-3.6,16.1v-6h-4.9V14h5.2V7h-11v3.6c-0.2-0.4-0.4-0.8-0.6-1.1c-1.1-1.6-3.1-2.5-6-2.5h-5v15.9L43.8,7h-5.1
	l-3.1,13.8h-5v-3.7h-4.7v-3.2h4.9V7H20.1v15.9L16.5,7h-5.1L5.1,35.1h6.1l1.3-6.1h3l1.3,6.1h3.4H23h3v-11h1.9v3.4h6.3l-1.7,7.6h6.1
	l1.3-6.1h3l1.3,6.1h3.4h2.8h3v-9.2c0,0.1,0.1,0.2,0.1,0.4l2,8.8h3.7h2.5h5.5h3.2h2.8l1.3-6.1h3l1.3,6.1H85L78.5,7z M75.9,22L75.9,22
	L75.9,22L75.9,22z M68.7,28.1H65V24h4.7L68.7,28.1z M53.3,17.3v-3.4c0.4,0,0.6,0.1,0.6,0.1s0.3,0.4,0.3,1.5c0,0.7-0.1,1.2-0.3,1.6
	C53.8,17.2,53.6,17.2,53.3,17.3z M41.3,22L41.3,22L41.3,22L41.3,22z M13.9,22L13.9,22L13.9,22L13.9,22z M58.8,23.8
	c-0.2-0.9-0.5-1.6-0.8-2.3c0.4-0.4,0.7-0.9,1-1.5v4.9L58.8,23.8z"/>
<g>
	<path class="st0" d="M14.9,9l5.5,24.1h-2L17,27h-6.2l-1.3,6.1h-2L13,9H14.9z M16.4,24l-1.5-6.7c-0.5-2.4-0.9-4.2-1-5.4
		c-0.2,1.2-0.5,3-1,5.5L11.4,24H16.4z"/>
	<path class="st0" d="M28.9,9v3H24v7.2h4.7v3H24v11h-1.8V9H28.9z"/>
	<path class="st0" d="M34.6,22.8v2.7h-4.8v-2.7H34.6z"/>
	<path class="st0" d="M42.2,9l5.5,24.1h-2L44.4,27h-6.2l-1.3,6.1h-2L40.3,9H42.2z M43.7,24l-1.5-6.7c-0.5-2.4-0.9-4.2-1-5.4
		c-0.2,1.2-0.5,3-1,5.5L38.8,24H43.7z"/>
	<path class="st0" d="M49.5,9h3c2.2,0,3.6,0.5,4.3,1.6c0.8,1.2,1.2,2.8,1.2,4.8c0,3.1-0.9,5-2.7,5.6c0.7,0.6,1.2,1.7,1.6,3.3
		l2.1,8.8h-2l-1.6-7.2c-0.4-1.8-0.8-2.8-1.2-3.1c-0.3-0.3-0.9-0.4-1.8-0.4h-1.1v10.8h-1.8C49.5,33.2,49.5,9,49.5,9z M51.3,11.9v7.4
		h1.1c1.6,0,2.6-0.3,3.1-1c0.4-0.7,0.7-1.6,0.7-2.7c0-1.5-0.3-2.5-0.9-3c-0.5-0.4-1.3-0.7-2.6-0.7H51.3z"/>
	<path class="st0" d="M68.2,9v3H63v7h4.9v3H63v8.2h5.4v3h-7.2V9H68.2z"/>
	<path class="st0" d="M76.9,9l5.5,24.1h-2L79,27h-6.2l-1.3,6.1h-2L75,9H76.9z M78.4,24l-1.5-6.7c-0.5-2.4-0.9-4.2-1-5.4
		c-0.2,1.2-0.5,3-1,5.5L73.4,24H78.4z"/>
</g>
</svg>
