<?xml version="1.0" encoding="utf-8"?>
<!-- Generator: Adobe Illustrator 21.0.0, SVG Export Plug-In . SVG Version: 6.00 Build 0)  -->
<svg version="1.0" id="ƒŒƒCƒ„[_1" xmlns="http://www.w3.org/2000/svg" xmlns:xlink="http://www.w3.org/1999/xlink" x="0px"
	 y="0px" width="36px" height="45px" viewBox="0 0 36 45" style="enable-background:new 0 0 36 45;" xml:space="preserve">
<style type="text/css">
	.st0{fill:#9D9D9D;}
	.st1{fill:#FF0000;}
</style>
<path d="M34.8,9.9C30.2,6.2,24.3,4,18,4C11.7,4,5.8,6.2,1.2,9.9l12,17.6c-0.7,1-1.2,2.2-1.2,3.5c0,3.3,2.7,6,6,6s6-2.7,6-6
	c0-1.3-0.4-2.6-1.2-3.5L34.8,9.9z"/>
<circle class="st0" cx="18" cy="31" r="4"/>
<g>
	<path class="st0" d="M18,10c4.4,0,8.4,1.3,11.8,3.6l2.3-3.3C28.1,7.6,23.2,6,18,6S7.9,7.6,3.9,10.3l2.3,3.3C9.6,11.3,13.6,10,18,10
		z"/>
	<path class="st0" d="M18,17c2.9,0,5.6,0.9,7.9,2.4l2.3-3.3c-2.9-2-6.4-3.1-10.1-3.1s-7.2,1.2-10.1,3.1l2.3,3.3
		C12.4,17.9,15.1,17,18,17z"/>
	<path class="st0" d="M18,24c1.5,0,2.8,0.4,3.9,1.2l2.3-3.3C22.4,20.7,20.3,20,18,20s-4.4,0.7-6.2,1.9l2.3,3.3
		C15.2,24.4,16.5,24,18,24z"/>
</g>
<g>
	<polygon points="14.8,17.4 13.4,18.8 9.8,22.4 6.2,18.8 4.8,17.4 3.4,18.8 1.4,20.8 0,22.2 1.4,23.6 5,27.2 1.4,30.8 0,32.2 
		1.4,33.6 3.4,35.6 4.8,37 6.2,35.6 9.8,32 13.4,35.6 14.8,37 16.2,35.6 18.2,33.6 19.6,32.2 18.2,30.8 14.6,27.2 18.2,23.6 
		19.6,22.2 18.2,20.8 16.2,18.8 14.8,17.4 	"/>
	<polygon class="st1" points="16.8,22.2 14.8,20.2 9.8,25.2 4.8,20.2 2.8,22.2 7.8,27.2 2.8,32.2 4.8,34.2 9.8,29.2 14.8,34.2 
		16.8,32.2 11.8,27.2 	"/>
	<polyline class="st1" points="14.8,20.2 16.8,22.2 11.8,27.2 16.8,32.2 14.8,34.2 9.8,29.2 4.8,34.2 2.8,32.2 7.8,27.2 2.8,22.2 
		4.8,20.2 9.8,25.2 14.8,20.2 	"/>
</g>
</svg>
