<?xml version="1.0" encoding="utf-8"?>
<!-- Generator: Adobe Illustrator 21.0.0, SVG Export Plug-In . SVG Version: 6.00 Build 0)  -->
<svg version="1.0" id="ƒŒƒCƒ„[_1" xmlns="http://www.w3.org/2000/svg" xmlns:xlink="http://www.w3.org/1999/xlink" x="0px"
	 y="0px" width="54px" height="45px" viewBox="0 0 54 45" style="enable-background:new 0 0 54 45;" xml:space="preserve">
<style type="text/css">
	.st0{fill:#FFFFFF;}
</style>
<polygon points="27,0 21.8,6 32.2,6 "/>
<polygon points="0,21 6,26.2 6,15.8 "/>
<polygon points="54,21 48,26.2 48,15.8 "/>
<polygon points="27,42 21.8,36 32.2,36 "/>
<path d="M48,5.2v31.7C40.9,36.3,33.2,36,27,36s-13.9,0.3-21,0.8V5.2C13.1,5.7,20.8,6,27,6S40.9,5.7,48,5.2 M50,3
	c-7.6,0.7-16.1,1-23,1S11.6,3.7,4,3v36c7.6-0.7,16.1-1,23-1s15.4,0.4,23,1V3L50,3z"/>
<g>
	<path class="st0" d="M46,7.3v27.3C39.7,34.2,32.6,34,27,34s-12.7,0.2-19,0.7V7.3C14.3,7.8,21.4,8,27,8S39.7,7.8,46,7.3 M48,23.6
		l2.9-2.6L48,18.4V5.2C41.9,5.7,35,5.9,29.5,6L27,3.1L24.5,6C19,5.9,12.1,5.7,6,5.2v13.3L3.1,21L6,23.6v13.3
		c6.1-0.5,13-0.7,18.5-0.8l2.5,2.9l2.5-2.9c5.5,0.1,12.3,0.3,18.5,0.8V23.6z"/>
</g>
<g>
	<path d="M44,9.5v23.1C38.4,32.2,32,32,27,32s-11.4,0.2-17,0.5V9.5C15.6,9.8,22,10,27,10S38.4,9.8,44,9.5 M46,7.3
		C39.7,7.8,32.6,8,27,8S14.3,7.8,8,7.3v27.3c6.3-0.5,13.4-0.7,19-0.7s12.7,0.2,19,0.7V7.3L46,7.3z"/>
</g>
<g>
	<g>
		<path d="M41.9,28c-0.3,0-0.6,0-0.9-0.1c-1.6-0.5-2.5-2.1-2-3.7c0.3-1.1,0.5-2.1,0.5-3.1s-0.2-2.1-0.5-3.1c-0.5-1.6,0.4-3.3,2-3.7
			c1.6-0.5,3.3,0.4,3.7,2c0.5,1.6,0.7,3.3,0.7,4.9s-0.2,3.2-0.7,4.9C44.4,27.2,43.2,28,41.9,28z"/>
		<path d="M12.1,28c-1.3,0-2.5-0.8-2.9-2.1c-0.5-1.6-0.7-3.3-0.7-4.9s0.2-3.2,0.7-4.9c0.5-1.6,2.1-2.5,3.7-2c1.6,0.5,2.5,2.1,2,3.7
			c-0.3,1.1-0.5,2.1-0.5,3.1s0.2,2.1,0.5,3.1c0.5,1.6-0.4,3.3-2,3.7C12.7,28,12.4,28,12.1,28z"/>
		<path d="M37.1,30c-0.6,0-1.1-0.2-1.7-0.5c-1.4-0.9-1.8-2.8-0.8-4.2C35.5,24,36,22.5,36,21s-0.5-3-1.4-4.3
			c-0.9-1.4-0.5-3.2,0.8-4.2c1.4-0.9,3.2-0.5,4.2,0.8c1.5,2.3,2.4,5,2.4,7.7s-0.8,5.3-2.4,7.7C39.1,29.5,38.1,30,37.1,30z"/>
		<path d="M16.9,30c-1,0-1.9-0.5-2.5-1.3c-1.5-2.3-2.4-5-2.4-7.7s0.8-5.3,2.4-7.7c0.9-1.4,2.8-1.8,4.2-0.8c1.4,0.9,1.8,2.8,0.8,4.2
			C18.5,18,18,19.5,18,21s0.5,3,1.4,4.3c0.9,1.4,0.5,3.2-0.8,4.2C18,29.8,17.4,30,16.9,30z"/>
	</g>
</g>
<g>
	<path d="M27,9c-1.1,0-2.1,0.7-2.6,1.6c-0.3-0.1-0.6-0.1-0.8-0.1c-1.6,0-2.9,1.3-2.9,2.8v6.5c-0.5-0.5-1.3-0.7-2.2-0.7
		c-1.8,0-3.1,1.3-3.1,2.8c0,0.4,0.1,0.8,0.2,1.2l0.1,0.1l0.1,0.1l2.7,4.4l0,0l0,0l0,0.1c2,3.2,5.2,5,9.1,5c0.2,0,0.6,0,0.9,0
		c0.2,0,0.5,0,0.5,0c2.7,0,6.2-2.1,7.1-4.3c0.3-0.6,0.4-1.1,0.5-1.5c0.1-0.5,0.2-1.2,0.2-1.6V15.5c0-1.6-1.4-2.9-2.9-2.9
		c-0.2,0-0.4,0-0.5,0C33,11.1,31.8,10,30.3,10c-0.4,0-0.7,0.1-1,0.2C28.7,9.4,27.9,9,27,9L27,9z"/>
</g>
<g>
	<g>
		<path class="st0" d="M41.9,26c-0.1,0-0.2,0-0.3,0c-0.5-0.2-0.8-0.7-0.7-1.2c0.4-1.2,0.6-2.5,0.6-3.7s-0.2-2.5-0.6-3.7
			c-0.2-0.5,0.1-1.1,0.7-1.2c0.5-0.2,1.1,0.1,1.2,0.7c0.4,1.4,0.6,2.9,0.6,4.3s-0.2,2.9-0.6,4.3C42.7,25.7,42.3,26,41.9,26z"/>
		<path class="st0" d="M12.1,26c-0.4,0-0.8-0.3-1-0.7c-0.4-1.4-0.6-2.9-0.6-4.3s0.2-2.9,0.6-4.3c0.2-0.5,0.7-0.8,1.2-0.7
			c0.5,0.2,0.8,0.7,0.7,1.2c-0.4,1.2-0.6,2.5-0.6,3.7s0.2,2.5,0.6,3.7c0.2,0.5-0.1,1.1-0.7,1.2C12.3,26,12.2,26,12.1,26z"/>
		<path class="st0" d="M37.1,28c-0.2,0-0.4-0.1-0.6-0.2c-0.5-0.3-0.6-0.9-0.3-1.4c1.1-1.7,1.7-3.5,1.7-5.4s-0.6-3.8-1.7-5.4
			c-0.3-0.5-0.2-1.1,0.3-1.4c0.5-0.3,1.1-0.2,1.4,0.3c1.3,2,2,4.3,2,6.6s-0.7,4.6-2,6.6C37.8,27.8,37.5,28,37.1,28z"/>
		<path class="st0" d="M16.9,28c-0.3,0-0.6-0.2-0.8-0.4c-1.3-2-2-4.3-2-6.6s0.7-4.6,2-6.6c0.3-0.5,0.9-0.6,1.4-0.3
			c0.5,0.3,0.6,0.9,0.3,1.4C16.6,17.2,16,19.1,16,21s0.6,3.8,1.7,5.4c0.3,0.5,0.2,1.1-0.3,1.4C17.2,27.9,17,28,16.9,28z"/>
	</g>
</g>
<g>
	<path class="st0" d="M27,11c0.4,0,0.7,0.2,0.9,0.6c0.1,0.2,0.1,0.3,0.1,0.5c0,0.2,0,8,0,8c0,0.3,0.6,0.5,0.8,0.5
		c0.2,0,0.8-0.2,0.8-0.5c0,0,0-7.3,0-7.4c0-0.1,0-0.2,0-0.3c0-0.1,0.1-0.1,0.1-0.2c0,0,0,0,0.1-0.1c0.2-0.1,0.3-0.2,0.5-0.2
		c0.5,0,0.9,0.5,1,1c0,0.1,0,0.2,0,0.2s0,7.4,0,7.4c0,0.3,0.6,0.5,0.8,0.5c0.2,0,0.8-0.2,0.8-0.5c0,0,0-5,0-5.3c0-0.1,0-0.3,0.1-0.4
		c0,0,0.1-0.1,0.1-0.1c0.1,0,0.1,0,0.1-0.1c0.1,0,0.3-0.1,0.5-0.1c0.5,0,0.9,0.5,0.9,0.9c0,0,0,9.8,0,10.2s0,0.9-0.1,1.2
		c-0.1,0.3-0.1,0.6-0.3,1.1c-0.6,1.3-3.3,3-5.2,3c-0.1,0-1.2,0-1.4,0c-1.8,0-5.2-0.5-7.4-4.1l0-0.1l-2.7-4.4
		c-0.1-0.1-0.1-0.3-0.1-0.4c0-0.4,0.5-0.8,1.1-0.8c0.4,0,0.7,0.1,0.9,0.2c0.2,0.2,1.6,1.8,1.6,1.8c0.2,0.2,0.5,0.4,0.8,0.4
		c0.1,0,0.3,0,0.4-0.1c0.4-0.2,0.6-0.6,0.6-1v-9.1c0-0.4,0.4-0.8,0.9-0.8c0.2,0,0.4,0.1,0.5,0.2c0.1,0,0.2,0.1,0.2,0.2
		c0.1,0.1,0.1,0.3,0.1,0.5c0,0.1,0,6.5,0,6.5c0,0.3,0.6,0.5,0.8,0.5c0.2,0,0.8-0.2,0.8-0.5c0,0,0-7.8,0-7.8c0-0.1,0-0.2,0-0.3
		C26.1,11.4,26.5,11,27,11z"/>
</g>
</svg>
