<?xml version="1.0" encoding="utf-8"?>
<!-- Generator: Adobe Illustrator 15.0.0, SVG Export Plug-In . SVG Version: 6.00 Build 0)  -->
<!DOCTYPE svg PUBLIC "-//W3C//DTD SVG 1.0//EN" "http://www.w3.org/TR/2001/REC-SVG-20010904/DTD/svg10.dtd">
<svg version="1.0" id="ƒŒƒCƒ„[_1" xmlns="http://www.w3.org/2000/svg" xmlns:xlink="http://www.w3.org/1999/xlink" x="0px"
	 y="0px" width="22px" height="30px" viewBox="0 0 22 30" enable-background="new 0 0 22 30" xml:space="preserve">
<g>
	<path fill="#9D9D9D" d="M5.42,18.385V30H0V0h8.841c3.614,0,6.351,0.636,8.211,1.908c2.497,1.705,3.746,4.112,3.746,7.221
		c0,3.229-1.31,5.738-3.926,7.527c-1.741,1.188-4.147,1.783-7.221,1.783l-1.369-0.02l-1.945-0.018H5.924L5.42,18.385z M5.42,14.243
		h0.468c3.241-0.023,5.282-0.191,6.124-0.504c1.969-0.721,2.952-2.233,2.952-4.538c0-2.316-0.882-3.817-2.647-4.502
		c-0.971-0.384-2.958-0.594-5.959-0.63h-0.45L5.42,4.052V14.243z"/>
</g>
</svg>
