<?xml version="1.0" encoding="utf-8"?>
<!-- Generator: Adobe Illustrator 15.0.0, SVG Export Plug-In . SVG Version: 6.00 Build 0)  -->
<!DOCTYPE svg PUBLIC "-//W3C//DTD SVG 1.0//EN" "http://www.w3.org/TR/2001/REC-SVG-20010904/DTD/svg10.dtd">
<svg version="1.0" id="ƒŒƒCƒ„[_1" xmlns="http://www.w3.org/2000/svg" xmlns:xlink="http://www.w3.org/1999/xlink" x="0px"
	 y="0px" width="100px" height="36px" viewBox="0 0 100 36" enable-background="new 0 0 100 36" xml:space="preserve">
<rect width="100" height="36"/>
<g>
	<path fill="#9D9D9D" d="M16.112,27.594h-3.206V8.07h6.148c4.205,0,6.308,1.691,6.308,5.074c0,2.523-1.399,4.074-4.198,4.652
		c0.802,0.258,1.386,0.625,1.751,1.103c0.31,0.406,0.647,1.098,1.013,2.074l2.489,6.621h-3.502l-1.951-5.566
		c-0.394-1.133-0.826-1.883-1.297-2.25c-0.408-0.32-1.069-0.48-1.983-0.48h-1.571L16.112,27.594L16.112,27.594z M16.081,16.648
		h2.352c2.355,0,3.533-1.008,3.533-3.023c0-1.898-1.079-2.848-3.237-2.848h-2.647L16.081,16.648L16.081,16.648z"/>
	<path fill="#9D9D9D" d="M39.399,24.723v2.871H29.032V8.07h10.262v2.871h-7.087v5.215h6.518v2.872h-6.518v5.695H39.399
		L39.399,24.723z"/>
	<path fill="#9D9D9D" d="M53.471,24.723v2.871H43.176V8.07h3.175v16.653H53.471L53.471,24.723z"/>
	<path fill="#9D9D9D" d="M72.085,27.594h-3.438l-1.582-4.547h-7.974l-1.55,4.547h-3.217L61.264,8.07h3.682L72.085,27.594z
		 M66.084,20.188l-2.458-7.358c-0.169-0.508-0.362-1.34-0.58-2.496c-0.218,1.164-0.442,2.102-0.675,2.813l-2.299,7.043h6.012V20.188
		z"/>
	<path fill="#9D9D9D" d="M82.42,27.594h-3.174v-7.887L72.76,8.07h3.648l3.882,7.371c0.169,0.32,0.38,0.832,0.633,1.535
		c0.231-0.633,0.442-1.129,0.634-1.488l3.976-7.418h3.28L82.42,19.625V27.594z"/>
</g>
<path fill="#9D9D9D" d="M100,36H0V0h100V36z M98,2H2v32h96V2z"/>
</svg>
