<?xml version="1.0" encoding="utf-8"?>
<!-- Generator: Adobe Illustrator 15.0.0, SVG Export Plug-In . SVG Version: 6.00 Build 0)  -->
<!DOCTYPE svg PUBLIC "-//W3C//DTD SVG 1.0//EN" "http://www.w3.org/TR/2001/REC-SVG-20010904/DTD/svg10.dtd">
<svg version="1.0" id="ƒŒƒCƒ„[_1" xmlns="http://www.w3.org/2000/svg" xmlns:xlink="http://www.w3.org/1999/xlink" x="0px"
	 y="0px" width="32px" height="30px" viewBox="0 0 32 30" enable-background="new 0 0 32 30" xml:space="preserve">
<g>
	<rect x="2" y="24" fill="#CCCCCC" width="15" height="4"/>
	<path fill="#CCCCCC" d="M30,15c0,7.18-5.82,13-13,13C9.82,28,4,22.18,4,15C4,7.82,9.82,2,17,2C24.18,2,30,7.82,30,15"/>
	<path d="M18.625,15c0,0.898-0.729,1.625-1.625,1.625c-0.897,0-1.625-0.727-1.625-1.625c0-0.898,0.728-1.625,1.625-1.625
		C17.896,13.375,18.625,14.102,18.625,15"/>
	<path d="M20.25,7.958c0,1.796-1.455,3.25-3.25,3.25c-1.796,0-3.25-1.454-3.25-3.25c0-1.795,1.454-3.25,3.25-3.25
		C18.795,4.708,20.25,6.163,20.25,7.958"/>
	<path d="M20.25,22.042c0,1.795-1.455,3.25-3.25,3.25c-1.796,0-3.25-1.455-3.25-3.25c0-1.796,1.454-3.25,3.25-3.25
		C18.795,18.792,20.25,20.246,20.25,22.042"/>
	<path d="M24.041,18.25c-1.795,0-3.25-1.455-3.25-3.25s1.455-3.25,3.25-3.25c1.796,0,3.25,1.455,3.25,3.25
		S25.837,18.25,24.041,18.25"/>
	<path d="M9.958,18.25c-1.795,0-3.25-1.455-3.25-3.25s1.455-3.25,3.25-3.25s3.25,1.455,3.25,3.25S11.753,18.25,9.958,18.25"/>
</g>
</svg>
