<?xml version="1.0" encoding="utf-8"?>
<!-- Generator: Adobe Illustrator 15.0.0, SVG Export Plug-In . SVG Version: 6.00 Build 0)  -->
<!DOCTYPE svg PUBLIC "-//W3C//DTD SVG 1.0//EN" "http://www.w3.org/TR/2001/REC-SVG-20010904/DTD/svg10.dtd">
<svg version="1.0" id="ƒŒƒCƒ„[_1" xmlns="http://www.w3.org/2000/svg" xmlns:xlink="http://www.w3.org/1999/xlink" x="0px"
	 y="0px" width="100px" height="36px" viewBox="0 0 100 36" enable-background="new 0 0 100 36" xml:space="preserve">
<rect width="100" height="36"/>
<g>
	<path fill="#9D9D9D" d="M26.738,26.316l1.245-2.848c1.758,1.133,3.139,1.698,4.145,1.698c1.92,0,2.88-0.897,2.88-2.694
		c0-0.906-0.31-1.638-0.929-2.191c-0.365-0.336-1.104-0.75-2.215-1.242c-2.046-0.906-3.406-1.895-4.081-2.965
		c-0.485-0.781-0.729-1.723-0.729-2.824c0-1.891,0.647-3.34,1.941-4.348c1.068-0.836,2.433-1.254,4.092-1.254
		c1.681,0,3.234,0.578,4.662,1.734l-1.382,2.59c-1.357-1.07-2.511-1.605-3.46-1.605c-0.675,0-1.272,0.219-1.793,0.656
		c-0.521,0.43-0.78,1.031-0.78,1.805c0,0.852,0.299,1.52,0.896,2.004c0.38,0.313,1.389,0.879,3.027,1.699
		c1.547,0.773,2.604,1.555,3.175,2.344c0.583,0.813,0.875,1.906,0.875,3.281c0,2.023-0.661,3.551-1.982,4.582
		c-1.083,0.852-2.56,1.277-4.43,1.277C30.012,28.016,28.293,27.449,26.738,26.316z"/>
	<path fill="#9D9D9D" d="M53.096,8.07h3.068v11.883c0,5.375-2.38,8.063-7.14,8.063c-4.831,0-7.246-2.703-7.246-8.109V8.07h3.175
		v11.485c0,3.772,1.36,5.659,4.081,5.659c1.989,0,3.26-0.957,3.808-2.87c0.17-0.587,0.254-1.574,0.254-2.966V8.07z"/>
	<path fill="#9D9D9D" d="M60.373,27.594V8.07h6.001c4.093,0,6.14,1.629,6.14,4.887c0,1.516-0.496,2.645-1.488,3.387
		c-0.598,0.445-1.543,0.793-2.836,1.043c1.215,0.211,2.134,0.48,2.752,0.809c1.483,0.781,2.226,2.148,2.226,4.102
		c0,2.414-1.128,4.039-3.385,4.875c-0.761,0.281-1.994,0.423-3.702,0.423h-5.707V27.594z M63.548,16.145h2.437
		c2.236,0,3.354-0.895,3.354-2.684c0-1.82-1.075-2.73-3.228-2.73h-2.563V16.145z M63.548,24.945h2.468
		c2.645,0,3.967-1.047,3.967-3.141c0-2.07-1.241-3.105-3.725-3.105h-2.71V24.945z"/>
</g>
<path fill="#9D9D9D" d="M100,36H0V0h100V36z M98,2H2v32h96V2z"/>
</svg>
