<?xml version="1.0" encoding="utf-8"?>
<!-- Generator: Adobe Illustrator 15.0.0, SVG Export Plug-In . SVG Version: 6.00 Build 0)  -->
<!DOCTYPE svg PUBLIC "-//W3C//DTD SVG 1.0//EN" "http://www.w3.org/TR/2001/REC-SVG-20010904/DTD/svg10.dtd">
<svg version="1.0" id="ƒŒƒCƒ„[_1" xmlns="http://www.w3.org/2000/svg" xmlns:xlink="http://www.w3.org/1999/xlink" x="0px"
	 y="0px" width="62px" height="48px" viewBox="0 0 62 48" enable-background="new 0 0 62 48" xml:space="preserve">
<g>
	<g>
		<path d="M6.578,36.71l0.238-3.752c1.604,0.808,3.128,1.212,4.572,1.212c2.5,0,3.751-0.88,3.751-2.641
			c0-0.807-0.35-1.432-1.046-1.875c-0.448-0.276-1.216-0.62-2.302-1.029c-1.075-0.409-1.977-0.841-2.704-1.295
			c-1.644-1.029-2.465-2.59-2.465-4.682c0-2.147,0.836-3.791,2.51-4.931c1.335-0.896,2.963-1.345,4.886-1.345
			c1.435,0,2.993,0.255,4.677,0.764l-0.299,3.387c-1.375-0.465-2.699-0.697-3.975-0.697c-2.42,0-3.631,0.841-3.631,2.523
			c0,0.808,0.398,1.422,1.195,1.843c0.458,0.244,1.29,0.587,2.495,1.029c1.315,0.498,2.251,0.952,2.81,1.361
			c1.424,1.02,2.137,2.54,2.137,4.564c0,2.248-0.827,3.945-2.48,5.098c-1.325,0.93-2.964,1.395-4.916,1.395
			C10.547,37.641,8.729,37.33,6.578,36.71z"/>
		<path d="M38.193,32.561l0.09,3.834c-1.982,0.918-4.055,1.379-6.217,1.379c-3.066,0-5.434-0.946-7.096-2.84
			c-1.714-1.959-2.57-4.608-2.57-7.951c0-3.221,0.802-5.821,2.405-7.803c1.624-2.003,3.78-3.005,6.47-3.005
			c2.77,0,4.892,1.074,6.366,3.221c1.274,1.859,1.912,4.156,1.912,6.89c0,0.432-0.035,1.15-0.104,2.158H26.494
			c0.379,3.918,2.361,5.877,5.947,5.877C34.244,34.32,36.161,33.732,38.193,32.561z M35.549,25.255
			c-0.09-3.896-1.544-5.844-4.362-5.844c-2.76,0-4.344,1.948-4.752,5.844H35.549z"/>
		<path d="M55.824,32.859l0.21,3.834c-1.675,0.488-3.083,0.73-4.229,0.73c-2.738,0-4.99-0.945-6.754-2.839
			c-1.724-1.837-2.585-4.394-2.585-7.67c0-3.885,1.271-6.74,3.812-8.566c1.662-1.195,3.521-1.793,5.572-1.793
			c1.057,0,2.312,0.205,3.766,0.614l-0.328,3.636c-0.986-0.321-1.848-0.481-2.585-0.481c-1.923,0-3.397,0.664-4.423,1.992
			c-0.918,1.185-1.375,2.729-1.375,4.632c0,2.092,0.559,3.725,1.674,4.896c1.025,1.096,2.415,1.645,4.169,1.645
			C53.613,33.49,54.641,33.279,55.824,32.859z"/>
	</g>
</g>
</svg>
