<?xml version="1.0" encoding="utf-8"?>
<!-- Generator: Adobe Illustrator 15.0.0, SVG Export Plug-In . SVG Version: 6.00 Build 0)  -->
<!DOCTYPE svg PUBLIC "-//W3C//DTD SVG 1.0//EN" "http://www.w3.org/TR/2001/REC-SVG-20010904/DTD/svg10.dtd">
<svg version="1.0" id="ƒŒƒCƒ„[_1" xmlns="http://www.w3.org/2000/svg" xmlns:xlink="http://www.w3.org/1999/xlink" x="0px"
	 y="0px" width="40px" height="50px" viewBox="0 0 40 50" enable-background="new 0 0 40 50" xml:space="preserve">
<polygon points="1.5,48.5 1.5,1.5 26.586,1.5 38.5,13.344 38.5,48.5 "/>
<path fill="#9D9D9D" d="M26,3l11,11v33H3V3H26z M27.172,0H0v50h40V12.686L27.172,0z"/>
<g>
	<path fill="#9D9D9D" d="M27.911,33.579v3.413h-16.26v-3.75c3.398-3.047,6.035-5.68,7.91-7.896c1.934-2.275,2.9-4.209,2.9-5.801
		c0-2.529-1.426-3.794-4.277-3.794c-1.885,0-3.774,0.586-5.669,1.758l-0.352-3.633c2.646-1.113,5.093-1.67,7.339-1.67
		c2.168,0,3.926,0.547,5.273,1.641c1.592,1.299,2.388,2.998,2.388,5.098c0,2.061-0.978,4.385-2.931,6.973
		c-2.1,2.773-4.511,5.327-7.235,7.661H27.911z"/>
</g>
</svg>
