<?xml version="1.0" encoding="utf-8"?>
<!-- Generator: Adobe Illustrator 15.0.0, SVG Export Plug-In . SVG Version: 6.00 Build 0)  -->
<!DOCTYPE svg PUBLIC "-//W3C//DTD SVG 1.0//EN" "http://www.w3.org/TR/2001/REC-SVG-20010904/DTD/svg10.dtd">
<svg version="1.0" id="ƒŒƒCƒ„[_1" xmlns="http://www.w3.org/2000/svg" xmlns:xlink="http://www.w3.org/1999/xlink" x="0px"
	 y="0px" width="100px" height="36px" viewBox="0 0 100 36" enable-background="new 0 0 100 36" xml:space="preserve">
<rect width="100" height="36"/>
<g>
	<path fill="#9D9D9D" d="M12.269,26.316l1.245-2.848c1.758,1.133,3.139,1.699,4.145,1.699c1.92,0,2.88-0.898,2.88-2.695
		c0-0.906-0.31-1.637-0.929-2.191c-0.365-0.336-1.104-0.75-2.215-1.242c-2.046-0.906-3.406-1.895-4.081-2.965
		c-0.485-0.781-0.729-1.723-0.729-2.824c0-1.891,0.647-3.34,1.941-4.348c1.068-0.836,2.433-1.254,4.092-1.254
		c1.681,0,3.234,0.578,4.662,1.734l-1.382,2.59c-1.357-1.07-2.511-1.605-3.46-1.605c-0.675,0-1.272,0.219-1.793,0.656
		c-0.521,0.43-0.78,1.031-0.78,1.805c0,0.852,0.299,1.52,0.896,2.004c0.38,0.313,1.389,0.879,3.027,1.699
		c1.547,0.773,2.604,1.555,3.175,2.344c0.583,0.813,0.875,1.906,0.875,3.281c0,2.023-0.661,3.551-1.982,4.582
		c-1.083,0.852-2.56,1.277-4.43,1.277C15.542,28.016,13.823,27.449,12.269,26.316z"/>
	<path fill="#9D9D9D" d="M30.853,27.594h-3.175V8.07h3.175V27.594z"/>
	<path fill="#9D9D9D" d="M55.311,27.594h-3.175V16.848l0.042-1.57c0.021-0.813,0.043-2.539,0.063-5.18
		c-0.253,0.852-0.439,1.496-0.559,1.934c-0.239,0.836-0.395,1.371-0.464,1.605l-4.451,13.957h-2.932l-3.787-11.59
		c-0.063-0.195-0.218-0.719-0.464-1.57c-0.281-0.969-0.742-2.406-1.382-4.313c0.169,2.75,0.254,4.93,0.254,6.539v10.934h-2.985V8.07
		h5.421l3.059,10.371l0.676,2.402c0.372,1.188,0.625,2.09,0.759,2.707c0.154-0.695,0.429-1.672,0.823-2.93l0.369-1.324L49.773,8.07
		h5.537V27.594z"/>
	<path fill="#9D9D9D" d="M70.888,8.07h3.069v11.883c0,5.375-2.38,8.063-7.14,8.063c-4.831,0-7.246-2.703-7.246-8.109V8.07h3.175
		v11.484c0,3.773,1.36,5.66,4.081,5.66c1.99,0,3.26-0.957,3.808-2.871c0.169-0.586,0.253-1.574,0.253-2.965V8.07z"/>
	<path fill="#9D9D9D" d="M88.46,24.723v2.871H78.166V8.07h3.175v16.652H88.46z"/>
</g>
<polygon points="98,31.102 10.694,2 2,2 2,4.898 89.306,34 98,34 "/>
<path fill="#9D9D9D" d="M100,36H0V0h100V36z M98,2H2v32h96V2z"/>
<g>
	<g>
		<polygon fill="#9D9D9D" points="99,33.279 2.162,1 1,1 1,2.721 97.839,35 99,35 		"/>
	</g>
	<rect x="1" y="1" fill="none" width="98" height="34"/>
</g>
</svg>
