<?xml version="1.0" encoding="utf-8"?>
<!-- Generator: Adobe Illustrator 15.0.0, SVG Export Plug-In . SVG Version: 6.00 Build 0)  -->
<!DOCTYPE svg PUBLIC "-//W3C//DTD SVG 1.0//EN" "http://www.w3.org/TR/2001/REC-SVG-20010904/DTD/svg10.dtd">
<svg version="1.0" id="ƒŒƒCƒ„[_1" xmlns="http://www.w3.org/2000/svg" xmlns:xlink="http://www.w3.org/1999/xlink" x="0px"
	 y="0px" width="42px" height="24px" viewBox="0 0 42 24" enable-background="new 0 0 42 24" xml:space="preserve">
<polygon points="1.375,1.168 1.375,22.832 18.225,12 "/>
<polygon fill="#FFFFFF" points="2.375,21 2.375,3 16.375,12 "/>
<path d="M29.925,1.3c-5.9,0-10.7,4.801-10.7,10.701c0,5.898,4.8,10.699,10.7,10.699c5.899,0,10.7-4.801,10.7-10.699
	C40.625,6.101,35.824,1.3,29.925,1.3z M24.936,10.546l6.443,6.443c-0.472,0.139-0.961,0.211-1.454,0.211
	c-2.867,0-5.2-2.332-5.2-5.199C24.725,11.507,24.796,11.017,24.936,10.546z M34.914,13.454l-6.443-6.443
	C28.942,6.87,29.432,6.8,29.925,6.8c2.867,0,5.2,2.332,5.2,5.201C35.125,12.493,35.054,12.983,34.914,13.454z"/>
<path fill="#FF0000" d="M29.925,2.3c-5.357,0-9.7,4.344-9.7,9.701s4.343,9.699,9.7,9.699s9.7-4.342,9.7-9.699S35.282,2.3,29.925,2.3
	z M36.125,12.001c0,1.168-0.329,2.256-0.891,3.188L26.736,6.69C27.669,6.128,28.757,5.8,29.925,5.8
	C33.349,5.8,36.125,8.577,36.125,12.001z M23.725,12.001c0-1.168,0.329-2.258,0.891-3.189l8.498,8.498
	c-0.933,0.561-2.021,0.891-3.188,0.891C26.5,18.2,23.725,15.425,23.725,12.001z"/>
</svg>
