<?xml version="1.0" encoding="utf-8"?>
<!-- Generator: Adobe Illustrator 15.0.0, SVG Export Plug-In . SVG Version: 6.00 Build 0)  -->
<!DOCTYPE svg PUBLIC "-//W3C//DTD SVG 1.0//EN" "http://www.w3.org/TR/2001/REC-SVG-20010904/DTD/svg10.dtd">
<svg version="1.0" id="ƒŒƒCƒ„[_1" xmlns="http://www.w3.org/2000/svg" xmlns:xlink="http://www.w3.org/1999/xlink" x="0px"
	 y="0px" width="60px" height="30px" viewBox="0 0 60 30" enable-background="new 0 0 60 30" xml:space="preserve">
<rect fill="#CCCCCC" width="60" height="30"/>
<g>
	<path d="M14.633,25.094h-3.175V8.441H6.238V5.57h13.605v2.871h-5.21V25.094z"/>
	<path d="M34.904,21.613l0.137,3.023c-1.477,0.406-2.844,0.609-4.103,0.609c-2.672,0-4.862-0.762-6.571-2.285
		c-1.976-1.75-2.963-4.301-2.963-7.652c0-3.031,0.844-5.43,2.531-7.195c1.715-1.797,3.969-2.695,6.76-2.695
		c1.301,0,2.718,0.281,4.25,0.844l-0.243,2.813c-1.146-0.57-2.362-0.855-3.649-0.855c-1.983,0-3.526,0.629-4.63,1.887
		c-1.069,1.227-1.603,2.898-1.603,5.016c0,2.125,0.566,3.844,1.698,5.156c1.174,1.359,2.735,2.039,4.683,2.039
		C32.405,22.316,33.639,22.082,34.904,21.613z"/>
	<path d="M52.222,13.926v10.313c-1.856,0.672-3.786,1.008-5.79,1.008c-3.741,0-6.381-1.254-7.921-3.762
		c-1.076-1.758-1.613-3.859-1.613-6.305c0-3.07,0.974-5.496,2.921-7.277c1.814-1.656,4.198-2.484,7.151-2.484
		c1.617,0,3.195,0.262,4.735,0.785l-0.19,2.977c-1.434-0.641-2.942-0.961-4.524-0.961c-2.096,0-3.72,0.59-4.873,1.77
		c-1.203,1.219-1.804,2.969-1.804,5.25c0,2.156,0.545,3.875,1.635,5.156c1.16,1.367,2.739,2.051,4.735,2.051
		c0.773,0,1.625-0.152,2.553-0.457v-5.203h-3.871v-2.859H52.222z"/>
</g>
</svg>
