<?xml version="1.0" encoding="utf-8"?>
<!-- Generator: Adobe Illustrator 21.1.0, SVG Export Plug-In . SVG Version: 6.00 Build 0)  -->
<svg version="1.0" id="ƒŒƒCƒ„[_1" xmlns="http://www.w3.org/2000/svg" xmlns:xlink="http://www.w3.org/1999/xlink" x="0px"
	 y="0px" width="102px" height="24px" viewBox="0 0 102 24" style="enable-background:new 0 0 102 24;" xml:space="preserve">
<style type="text/css">
	.st0{fill:#FFFFFF;}
</style>
<g>
	<path class="st0" d="M17,19.2h-2.3l-1.1-3.4H8.2l-1.1,3.4H4.9L9.6,4.6h2.5L17,19.2z M12.9,13.6l-1.7-5.5c-0.1-0.4-0.2-1-0.4-1.9
		c-0.1,0.9-0.3,1.6-0.5,2.1l-1.6,5.3H12.9z"/>
	<path class="st0" d="M24.4,19.2h-2.8L17.4,4.6h2.3l2.6,9.5c0.1,0.3,0.4,1.3,0.8,3c0.5-2.1,0.8-3.2,0.8-3.2l2.5-9.3h2.1L24.4,19.2z"
		/>
	<path class="st0" d="M38.9,16.6l0.1,2.3c-1,0.3-1.9,0.5-2.8,0.5c-1.8,0-3.3-0.6-4.5-1.7c-1.4-1.3-2-3.2-2-5.7
		c0-2.3,0.6-4.1,1.7-5.4c1.2-1.3,2.7-2,4.6-2c0.9,0,1.9,0.2,2.9,0.6l-0.2,2.1c-0.8-0.4-1.6-0.6-2.5-0.6c-1.4,0-2.4,0.5-3.2,1.4
		c-0.7,0.9-1.1,2.2-1.1,3.8c0,1.6,0.4,2.9,1.2,3.9c0.8,1,1.9,1.5,3.2,1.5C37.2,17.1,38.1,16.9,38.9,16.6z"/>
	<path class="st0" d="M50.5,19.2h-2.2v-6.4H43v6.4h-2.2V4.6H43v6.1h5.3V4.6h2.2V19.2z"/>
	<path class="st0" d="M53.4,19.2V4.6H56c2.4,0,4.2,0.5,5.4,1.4c1.5,1.2,2.2,3.1,2.2,5.8c0,5-2.3,7.4-6.8,7.4H53.4z M55.5,17.2h0.2
		h0.1H56h0.3c3.4,0,5.1-1.8,5.1-5.3c0-1.7-0.4-3-1.3-4c-0.7-0.8-1.7-1.2-3-1.3c-0.4,0-0.9,0-1.5-0.1V17.2z"/>
</g>
<path class="st0" d="M98,1c1.7,0,3,1.3,3,3v16c0,1.7-1.3,3-3,3H4c-1.7,0-3-1.3-3-3V4c0-1.7,1.3-3,3-3H98 M98,0H4C1.8,0,0,1.8,0,4v16
	c0,2.2,1.8,4,4,4h94c2.2,0,4-1.8,4-4V4C102,1.8,100.2,0,98,0"/>
<g>
	<path class="st0" d="M83.9,19.2h-2.2v-6.4h-5.3v6.4h-2.2V4.6h2.2v6.1h5.3V4.6h2.2V19.2z"/>
	<path class="st0" d="M97.5,19.2h-2.3l-1.1-3.4h-5.4l-1.1,3.4h-2.2l4.7-14.6h2.5L97.5,19.2z M93.4,13.6l-1.7-5.5
		c-0.1-0.4-0.2-1-0.4-1.9c-0.1,0.9-0.3,1.6-0.5,2.1l-1.6,5.3H93.4z"/>
</g>
</svg>
