<?xml version="1.0" encoding="utf-8"?>
<!-- Generator: Adobe Illustrator 15.0.0, SVG Export Plug-In . SVG Version: 6.00 Build 0)  -->
<!DOCTYPE svg PUBLIC "-//W3C//DTD SVG 1.0//EN" "http://www.w3.org/TR/2001/REC-SVG-20010904/DTD/svg10.dtd">
<svg version="1.0" id="ƒŒƒCƒ„[_1" xmlns="http://www.w3.org/2000/svg" xmlns:xlink="http://www.w3.org/1999/xlink" x="0px"
	 y="0px" width="80px" height="30px" viewBox="0 0 80 30" enable-background="new 0 0 80 30" xml:space="preserve">
<path fill="#B0B0B0" d="M76,1.5c1.4,0,2.6,1.1,2.6,2.6v22c0,1.4-1.1,2.601-2.6,2.601H4c-1.4,0-2.6-1.101-2.6-2.601V4
	c0-1.4,1.1-2.6,2.6-2.6h72 M76,0H4C1.8,0,0,1.8,0,4v22c0,2.2,1.8,4,4,4h72c2.2,0,4-1.8,4-4V4C80,1.8,78.2,0,76,0"/>
<g>
	<path fill="#B4B4B4" d="M20.2,23.1h-2.7l-1.3-3.8H9.9l-1.2,3.8H6.1l5.5-16.3h2.9L20.2,23.1z M15.5,17l-2-6.1
		c-0.1-0.4-0.3-1.1-0.5-2.1c-0.2,1-0.4,1.8-0.5,2.3L10.7,17H15.5z"/>
	<path fill="#B4B4B4" d="M28.7,23.1h-3.2l-5-16.2h2.7l3.1,10.6c0.1,0.4,0.4,1.5,0.9,3.3l0.9-3.6l3-10.4h2.5L28.7,23.1z"/>
	<path fill="#B4B4B4" d="M45.4,20.2l0.1,2.5c-1.2,0.3-2.3,0.5-3.3,0.5c-2.1,0-3.9-0.601-5.2-1.9c-1.6-1.5-2.4-3.6-2.4-6.4
		c0-2.6,0.7-4.6,2.1-6.1C38,7.4,39.8,6.6,42,6.6c1,0,2.2,0.2,3.4,0.7l-0.2,2.3c-0.9-0.5-1.9-0.7-2.9-0.7c-1.6,0-2.8,0.5-3.6,1.5
		c-0.8,1-1.3,2.4-1.3,4.2s0.5,3.3,1.4,4.4c0.9,1.1,2.2,1.6,3.7,1.6C43.4,20.8,44.4,20.6,45.4,20.2z"/>
	<path fill="#B4B4B4" d="M58.7,23.1h-2.5V16H50v7.1h-2.5V6.9H50v6.7h6.2V6.9h2.5V23.1z"/>
	<path fill="#B4B4B4" d="M61.9,23.1V6.9H65c2.8,0,4.9,0.5,6.3,1.6C73,9.8,73.9,12,73.9,14.9c0,5.5-2.7,8.3-8,8.3h-4V23.1z
		 M64.5,20.9h0.8c4,0,5.9-2,5.9-5.9c0-1.9-0.5-3.3-1.5-4.4c-0.8-0.9-2-1.3-3.5-1.4c-0.5,0-1.101,0-1.7-0.1V20.9z"/>
</g>
</svg>
