<?xml version="1.0" encoding="utf-8"?>
<!-- Generator: Adobe Illustrator 15.0.0, SVG Export Plug-In . SVG Version: 6.00 Build 0)  -->
<!DOCTYPE svg PUBLIC "-//W3C//DTD SVG 1.0//EN" "http://www.w3.org/TR/2001/REC-SVG-20010904/DTD/svg10.dtd">
<svg version="1.0" id="ƒŒƒCƒ„[_1" xmlns="http://www.w3.org/2000/svg" xmlns:xlink="http://www.w3.org/1999/xlink" x="0px"
	 y="0px" width="80px" height="30px" viewBox="0 0 80 30" enable-background="new 0 0 80 30" xml:space="preserve">
<path opacity="0.99" fill="#B0B0B0" enable-background="new    " d="M76,1.5c1.4,0,2.6,1.1,2.6,2.6v22c0,1.4-1.1,2.601-2.6,2.601H4
	c-1.4,0-2.6-1.101-2.6-2.601V4c0-1.4,1.1-2.6,2.6-2.6h72 M76,0H4C1.8,0,0,1.8,0,4v22c0,2.2,1.8,4,4,4h72c2.2,0,4-1.8,4-4V4
	C80,1.8,78.2,0,76,0"/>
<g>
	<g>
		<path fill="#B4B4B4" d="M32.4,23.1h-2.6V12.8c0-0.1,0-0.6,0-1.6s0-1.9,0-2.8C29.6,9,29.5,9.5,29.3,10c-0.2,0.7-0.3,1.1-0.4,1.3
			L25.2,22.9h-2.4l-3.2-9.7c-0.3-0.9-0.8-2.5-1.5-4.9c0.1,2.3,0.2,4.1,0.2,5.4v9.1h-2.5V6.9h4.5l3.1,10.6c0.2,0.8,0.5,1.6,0.6,2.3
			c0.1-0.399,0.4-1.2,0.7-2.399L25,16.3l2.7-9.4h4.6v16.2H32.4z"/>
		<path fill="#B4B4B4" d="M42.2,6.5c1.8,0,3.3,0.5,4.6,1.6c1.7,1.6,2.601,3.8,2.601,6.8c0,2.6-0.601,4.6-1.9,6.1
			c-1.3,1.6-3.1,2.4-5.4,2.4c-2.2,0-4-0.801-5.3-2.4c-1.2-1.5-1.9-3.5-1.9-6.1s0.6-4.7,1.8-6.2C38.1,7.3,39.9,6.5,42.2,6.5z
			 M42.1,8.8c-1.1,0-2,0.4-2.7,1.2c-1,1.2-1.5,2.9-1.5,5c0,1.8,0.3,3.2,1,4.3c0.8,1.3,1.9,1.9,3.3,1.9c1.399,0,2.5-0.601,3.3-1.9
			c0.7-1.2,1.1-2.6,1.1-4.3s-0.3-3.2-1-4.3C44.8,9.4,43.6,8.8,42.1,8.8z"/>
		<path fill="#B4B4B4" d="M59.1,23.1H55.7L50.5,6.9h2.8l3.2,10.6c0.1,0.4,0.4,1.5,0.9,3.3l1-3.6l3.1-10.4h2.6L59.1,23.1z"/>
	</g>
</g>
</svg>
