<?xml version="1.0" encoding="utf-8"?>
<!-- Generator: Adobe Illustrator 15.0.0, SVG Export Plug-In . SVG Version: 6.00 Build 0)  -->
<!DOCTYPE svg PUBLIC "-//W3C//DTD SVG 1.0//EN" "http://www.w3.org/TR/2001/REC-SVG-20010904/DTD/svg10.dtd">
<svg version="1.0" id="ƒŒƒCƒ„[_1" xmlns="http://www.w3.org/2000/svg" xmlns:xlink="http://www.w3.org/1999/xlink" x="0px"
	 y="0px" width="34px" height="24px" viewBox="0 0 34 24" enable-background="new 0 0 34 24" xml:space="preserve">
<path d="M20.202,10c-0.93-4.504-4.89-7.801-9.552-7.801c-5.404,0-9.8,4.396-9.8,9.801c0,5.402,4.396,9.799,9.8,9.799
	c4.208,0,7.981-2.814,9.261-6.799h1.239v5h5v-5h2v5h5V10H20.202z M10.65,16.299c-2.316,0-4.2-1.883-4.2-4.199
	c0-2.371,1.884-4.301,4.2-4.301c2.315,0,4.2,1.885,4.2,4.201C14.851,14.371,12.966,16.299,10.65,16.299z"/>
<path fill="#FF7F00" d="M29.15,11h-4h-3h-2.8c-0.5-4.4-4.2-7.801-8.7-7.801c-4.8,0-8.8,3.9-8.8,8.801c0,4.799,3.899,8.799,8.8,8.799
	c4.1,0,7.6-2.9,8.5-6.799h3v5h3v-5h4v5h3v-5v-3H29.15z M10.65,17.299c-2.9,0-5.2-2.4-5.2-5.199c0-2.9,2.3-5.301,5.2-5.301
	c2.899,0,5.2,2.4,5.2,5.201C15.851,14.898,13.55,17.299,10.65,17.299"/>
</svg>
