<?xml version="1.0" encoding="utf-8"?>
<!-- Generator: Adobe Illustrator 21.0.0, SVG Export Plug-In . SVG Version: 6.00 Build 0)  -->
<svg version="1.0" id="ƒŒƒCƒ„[_1" xmlns="http://www.w3.org/2000/svg" xmlns:xlink="http://www.w3.org/1999/xlink" x="0px"
	 y="0px" width="102px" height="24px" viewBox="0 0 102 24" style="enable-background:new 0 0 102 24;" xml:space="preserve">
<style type="text/css">
	.st0{fill:#FFFFFF;}
</style>
<g>
	<path class="st0" d="M18.6,19.2h-2.3v-6.4h-5.6v6.4H8.5V4.6h2.3v6.1h5.6V4.6h2.3V19.2z"/>
	<path class="st0" d="M32.9,19.2h-2.5l-1.1-3.4h-5.7l-1.1,3.4h-2.3l5-14.6h2.6L32.9,19.2z M28.6,13.6l-1.8-5.5
		c-0.1-0.4-0.3-1-0.4-1.9c-0.2,0.9-0.3,1.6-0.5,2.1l-1.6,5.3H28.6z"/>
</g>
<path class="st0" d="M98,1c1.7,0,3,1.3,3,3v16c0,1.7-1.3,3-3,3H4c-1.7,0-3-1.3-3-3V4c0-1.7,1.3-3,3-3H98 M98,0H4C1.8,0,0,1.8,0,4v16
	c0,2.2,1.8,4,4,4h94c2.2,0,4-1.8,4-4V4C102,1.8,100.2,0,98,0"/>
<g>
	<path class="st0" d="M39.1,19.2h-1.6l5.4-14.6h1.6L39.1,19.2z"/>
</g>
<g>
	<path class="st0" d="M47.4,19l0.1-2.3c0.9,0.4,1.7,0.6,2.6,0.6c1.9,0,2.9-0.9,2.9-2.6c0-1.9-1-2.8-3.1-2.8c-0.7,0-1.4,0.1-2.2,0.4
		l0.1-7.6h7.2v2h-5.1l-0.1,3.3c0.6-0.1,1-0.1,1.3-0.1c1.1,0,2.1,0.4,2.9,1.2c0.9,0.9,1.3,2,1.3,3.5c0,1.5-0.5,2.7-1.4,3.6
		c-0.9,0.8-2.1,1.3-3.7,1.3c-0.6,0-1.3-0.1-2.1-0.3L47.4,19z"/>
	<path class="st0" d="M57,18.3l0.8-1.8c0.7,0.6,1.5,0.9,2.3,0.9c1.2,0,2-0.5,2.5-1.4c0.3-0.7,0.5-1.9,0.5-3.5
		c-0.6,1-1.4,1.4-2.5,1.4c-1.3,0-2.3-0.5-2.9-1.4c-0.6-0.9-1-2-1-3.4c0-1.4,0.3-2.5,1-3.4c0.7-1,1.8-1.5,3.3-1.5
		c2.9,0,4.3,2.4,4.3,7.2c0,2.8-0.4,4.7-1.1,6c-0.8,1.4-2.1,2-3.8,2C59.2,19.5,58.1,19.1,57,18.3z M60.9,6.3c-1.3,0-1.9,1-1.9,2.9
		c0,0.9,0.2,1.6,0.6,2.1c0.3,0.5,0.8,0.7,1.4,0.7c1.3,0,1.9-0.9,1.9-2.7C62.9,7.3,62.2,6.3,60.9,6.3z"/>
	<path class="st0" d="M69,16.7v2.3h-2v-2.3H69z"/>
	<path class="st0" d="M70.8,18.3l0.7-1.6c0.6,0.5,1.3,0.8,2,0.8c1.1,0,1.8-0.4,2.2-1.3c0.3-0.6,0.5-1.7,0.5-3.1
		c-0.5,0.8-1.2,1.3-2.2,1.3c-1.1,0-2-0.4-2.6-1.3c-0.6-0.8-0.9-1.8-0.9-3.1c0-1.3,0.3-2.3,0.9-3c0.7-0.9,1.6-1.3,2.9-1.3
		c2.5,0,3.8,2.1,3.8,6.4c0,2.4-0.3,4.2-0.9,5.3c-0.7,1.2-1.8,1.8-3.4,1.8C72.7,19.3,71.7,19,70.8,18.3z M74.2,7.6
		c-1.1,0-1.7,0.9-1.7,2.6c0,0.8,0.2,1.4,0.5,1.9c0.3,0.4,0.7,0.6,1.2,0.6c1.1,0,1.7-0.8,1.7-2.4C76,8.5,75.4,7.6,74.2,7.6z"/>
	<path class="st0" d="M88.1,14.6v1.8h-1.5v2.7h-2v-2.7h-5v-2.1L83.9,6h2.7v8.6H88.1z M84.7,14.6l0.1-5.3c0-0.4,0.1-0.9,0.2-1.7
		c-0.3,0.6-0.5,1.1-0.7,1.5l-2.8,5.5H84.7z"/>
	<path class="st0" d="M93.8,7.4h-2V5.3h2V7.4z M93.7,19.1h-1.9V9.4h1.9V19.1z"/>
</g>
</svg>
