<?xml version="1.0" encoding="utf-8"?>
<!-- Generator: Adobe Illustrator 21.1.0, SVG Export Plug-In . SVG Version: 6.00 Build 0)  -->
<svg version="1.0" id="ƒŒƒCƒ„[_1" xmlns="http://www.w3.org/2000/svg" xmlns:xlink="http://www.w3.org/1999/xlink" x="0px"
	 y="0px" width="102px" height="24px" viewBox="0 0 102 24" style="enable-background:new 0 0 102 24;" xml:space="preserve">
<style type="text/css">
	.st0{fill:#FFFFFF;}
</style>
<g>
	<path class="st0" d="M14.4,19.2h-2.3v-6.4H6.5v6.4H4.3V4.6h2.3v6.1h5.6V4.6h2.3V19.2z"/>
	<path class="st0" d="M24.8,17v2.2h-7.4V4.6h7.4v2.2h-5.1v3.9h4.7v2.2h-4.7V17H24.8z"/>
	<path class="st0" d="M33.6,19.2h-2.9L26.2,4.6h2.4l2.8,9.5c0.1,0.3,0.4,1.3,0.8,3c0.6-2.1,0.8-3.2,0.8-3.2l2.7-9.3h2.2L33.6,19.2z"
		/>
	<path class="st0" d="M48.7,16.6l0.1,2.3c-1.1,0.3-2,0.5-2.9,0.5c-1.9,0-3.5-0.6-4.7-1.7c-1.4-1.3-2.1-3.2-2.1-5.7
		c0-2.3,0.6-4.1,1.8-5.4c1.2-1.3,2.8-2,4.8-2c0.9,0,1.9,0.2,3,0.6l-0.2,2.1c-0.8-0.4-1.7-0.6-2.6-0.6c-1.4,0-2.5,0.5-3.3,1.4
		c-0.8,0.9-1.1,2.2-1.1,3.8c0,1.6,0.4,2.9,1.2,3.9c0.8,1,2,1.5,3.4,1.5C47,17.1,47.8,16.9,48.7,16.6z"/>
</g>
<path class="st0" d="M98,1c1.7,0,3,1.3,3,3v16c0,1.7-1.3,3-3,3H4c-1.7,0-3-1.3-3-3V4c0-1.7,1.3-3,3-3H98 M98,0H4C1.8,0,0,1.8,0,4v16
	c0,2.2,1.8,4,4,4h94c2.2,0,4-1.8,4-4V4C102,1.8,100.2,0,98,0"/>
<g>
	<path class="st0" d="M63.1,17.1v2h-8.4v-2.3c1.8-1.8,3.1-3.4,4.1-4.7c1-1.4,1.5-2.5,1.5-3.5c0-1.5-0.7-2.3-2.2-2.3
		c-1,0-1.9,0.4-2.9,1.1L55,5.3c1.4-0.7,2.6-1,3.8-1c1.1,0,2,0.3,2.7,1c0.8,0.8,1.2,1.8,1.2,3.1c0,1.2-0.5,2.6-1.5,4.2
		c-1.1,1.7-2.3,3.2-3.7,4.6H63.1z"/>
	<path class="st0" d="M69,4.3c1.3,0,2.3,0.6,3.1,1.8c0.8,1.2,1.2,3.2,1.2,5.9c0,3.1-0.6,5.2-1.8,6.3c-0.7,0.7-1.6,1.1-2.6,1.1
		c-1.4,0-2.5-0.7-3.3-2c-0.7-1.2-1-3-1-5.4C64.7,6.9,66.1,4.3,69,4.3z M69,6.3c-1.4,0-2,2-2,5.9c0,3.6,0.7,5.3,2.1,5.3
		c1.4,0,2.1-1.8,2.1-5.3c0-2.5-0.2-4.2-0.7-5C70.1,6.5,69.6,6.3,69,6.3z"/>
	<path class="st0" d="M79,4.3c1.3,0,2.3,0.6,3.1,1.8c0.8,1.2,1.2,3.2,1.2,5.9c0,3.1-0.6,5.2-1.8,6.3c-0.7,0.7-1.6,1.1-2.6,1.1
		c-1.4,0-2.5-0.7-3.3-2c-0.7-1.2-1.1-3-1.1-5.4C74.6,6.9,76.1,4.3,79,4.3z M79,6.3c-1.4,0-2,2-2,5.9c0,3.6,0.7,5.3,2.1,5.3
		c1.4,0,2.1-1.8,2.1-5.3c0-2.5-0.2-4.2-0.7-5C80.1,6.5,79.6,6.3,79,6.3z"/>
	<path class="st0" d="M97.9,18.9h-2v-6.1l0-0.9c0-0.5,0-1.4,0-2.9c-0.2,0.5-0.3,0.8-0.4,1.1c-0.2,0.5-0.3,0.8-0.3,0.9l-2.8,7.9h-1.9
		l-2.4-6.6c0-0.1-0.1-0.4-0.3-0.9c-0.2-0.5-0.5-1.4-0.9-2.4c0.1,1.6,0.2,2.8,0.2,3.7v6.2h-1.9V7.8h3.5l1.9,5.9l0.4,1.4
		c0.2,0.7,0.4,1.2,0.5,1.5c0.1-0.4,0.3-0.9,0.5-1.7l0.2-0.8l2-6.4h3.5V18.9z"/>
</g>
</svg>
