<?xml version="1.0" encoding="utf-8"?>
<!-- Generator: Adobe Illustrator 15.0.0, SVG Export Plug-In . SVG Version: 6.00 Build 0)  -->
<!DOCTYPE svg PUBLIC "-//W3C//DTD SVG 1.0//EN" "http://www.w3.org/TR/2001/REC-SVG-20010904/DTD/svg10.dtd">
<svg version="1.0" id="ƒŒƒCƒ„[_1" xmlns="http://www.w3.org/2000/svg" xmlns:xlink="http://www.w3.org/1999/xlink" x="0px"
	 y="0px" width="24px" height="30px" viewBox="0 0 24 30" enable-background="new 0 0 24 30" xml:space="preserve">
<polygon fill="#FFD800" points="14.2,0 24,9.8 24,30 0,30 0,0 "/>
<g>
	<path d="M16.8,20.4v2H7v-2.2c1.8-1.601,3.1-2.8,3.9-3.7c1.7-1.9,2.6-3.4,2.6-4.5c0-1.5-0.9-2.3-2.6-2.3c-1.1,0-2.3,0.4-3.4,1.1
		L7.3,8.6c1.6-0.7,3.1-1,4.4-1c1.3,0,2.399,0.3,3.2,1c1,0.8,1.399,1.8,1.399,3.1c0,1.2-0.6,2.6-1.8,4.2
		c-1.2,1.699-2.7,3.199-4.3,4.6h6.6V20.4z"/>
</g>
</svg>
