<?xml version="1.0" encoding="utf-8"?>
<!-- Generator: Adobe Illustrator 21.0.0, SVG Export Plug-In . SVG Version: 6.00 Build 0)  -->
<svg version="1.0" id="ƒŒƒCƒ„[_1" xmlns="http://www.w3.org/2000/svg" xmlns:xlink="http://www.w3.org/1999/xlink" x="0px"
	 y="0px" width="102px" height="24px" viewBox="0 0 102 24" style="enable-background:new 0 0 102 24;" xml:space="preserve">
<style type="text/css">
	.st0{fill:#FFFFFF;}
</style>
<g>
	<path class="st0" d="M5,18.2l0.8-2.1c1.1,0.8,2,1.3,2.7,1.3c1.2,0,1.9-0.7,1.9-2c0-0.7-0.2-1.2-0.6-1.6c-0.2-0.3-0.7-0.6-1.4-0.9
		c-1.3-0.7-2.2-1.4-2.7-2.2C5.4,10,5.2,9.3,5.2,8.4c0-1.4,0.4-2.5,1.3-3.3c0.7-0.6,1.6-0.9,2.7-0.9c1.1,0,2.1,0.4,3,1.3l-0.9,1.9
		C10.4,6.7,9.6,6.3,9,6.3c-0.4,0-0.8,0.2-1.2,0.5C7.5,7.1,7.4,7.5,7.4,8.1c0,0.6,0.2,1.1,0.6,1.5c0.2,0.2,0.9,0.7,2,1.3
		c1,0.6,1.7,1.2,2.1,1.8c0.4,0.6,0.6,1.4,0.6,2.5c0,1.5-0.4,2.7-1.3,3.4c-0.7,0.6-1.7,1-2.9,1C7.1,19.5,6,19.1,5,18.2z"/>
	<path class="st0" d="M22,4.6h2v8.9c0,4-1.5,6-4.6,6c-3.1,0-4.7-2-4.7-6.1V4.6h2.1v8.6c0,2.8,0.9,4.2,2.7,4.2c1.3,0,2.1-0.7,2.5-2.2
		C22,14.8,22,14.1,22,13V4.6z"/>
	<path class="st0" d="M26.6,19.2V4.6h3.9c2.7,0,4,1.2,4,3.7c0,1.1-0.3,2-1,2.5c-0.4,0.3-1,0.6-1.8,0.8c0.8,0.2,1.4,0.4,1.8,0.6
		c1,0.6,1.4,1.6,1.4,3.1c0,1.8-0.7,3-2.2,3.7c-0.5,0.2-1.3,0.3-2.4,0.3H26.6z M28.7,10.6h1.6c1.5,0,2.2-0.7,2.2-2c0-1.4-0.7-2-2.1-2
		h-1.7V10.6z M28.7,17.2h1.6c1.7,0,2.6-0.8,2.6-2.4c0-1.6-0.8-2.3-2.4-2.3h-1.8V17.2z"/>
</g>
<path class="st0" d="M98,1c1.7,0,3,1.3,3,3v16c0,1.7-1.3,3-3,3H4c-1.7,0-3-1.3-3-3V4c0-1.7,1.3-3,3-3H98 M98,0H4C1.8,0,0,1.8,0,4v16
	c0,2.2,1.8,4,4,4h94c2.2,0,4-1.8,4-4V4C102,1.8,100.2,0,98,0"/>
<g>
	<path class="st0" d="M39.1,19.2h-1.6l5.4-14.6h1.6L39.1,19.2z"/>
</g>
<g>
	<path class="st0" d="M55.1,17.1v2h-8.4v-2.3c1.8-1.8,3.1-3.4,4.1-4.7c1-1.4,1.5-2.5,1.5-3.5c0-1.5-0.7-2.3-2.2-2.3
		c-1,0-1.9,0.4-2.9,1.1L47,5.3c1.4-0.7,2.6-1,3.8-1c1.1,0,2,0.3,2.7,1c0.8,0.8,1.2,1.8,1.2,3.1c0,1.2-0.5,2.6-1.5,4.2
		c-1.1,1.7-2.3,3.2-3.7,4.6H55.1z"/>
	<path class="st0" d="M57,19l0.1-2.2c0.9,0.4,1.8,0.6,2.7,0.6c2,0,2.9-0.8,2.9-2.4c0-1.6-1.1-2.3-3.2-2.3c-0.2,0-0.6,0-1,0v-2.1
		c0.2,0,0.4,0,0.5,0c2.4,0,3.6-0.8,3.6-2.3c0-1.3-0.8-2-2.5-2c-1,0-1.9,0.2-2.8,0.7l-0.1-2c1.3-0.4,2.4-0.7,3.4-0.7
		c1.2,0,2.2,0.3,3,0.9C64.6,5.8,65,6.7,65,8c0,1.8-0.9,2.9-2.7,3.5c0.8,0.3,1.3,0.5,1.6,0.7c0.9,0.6,1.3,1.6,1.3,3
		c0,1.3-0.5,2.3-1.4,3.1c-0.9,0.8-2.2,1.2-3.8,1.2C59,19.4,58,19.3,57,19z"/>
	<path class="st0" d="M69,16.7v2.3h-2v-2.3H69z"/>
	<path class="st0" d="M70.8,18.3l0.7-1.6c0.6,0.5,1.3,0.8,2,0.8c1.1,0,1.8-0.4,2.2-1.3c0.3-0.6,0.5-1.7,0.5-3.1
		c-0.5,0.8-1.2,1.3-2.2,1.3c-1.1,0-2-0.4-2.6-1.3c-0.6-0.8-0.9-1.8-0.9-3.1c0-1.3,0.3-2.3,0.9-3c0.7-0.9,1.6-1.3,2.9-1.3
		c2.5,0,3.8,2.1,3.8,6.4c0,2.4-0.3,4.2-0.9,5.3c-0.7,1.2-1.8,1.8-3.4,1.8C72.7,19.3,71.7,19,70.8,18.3z M74.2,7.6
		c-1.1,0-1.7,0.9-1.7,2.6c0,0.8,0.2,1.4,0.5,1.9c0.3,0.4,0.7,0.6,1.2,0.6c1.1,0,1.7-0.8,1.7-2.4C76,8.5,75.4,7.6,74.2,7.6z"/>
	<path class="st0" d="M85.3,12c0.6,0.3,1.1,0.5,1.4,0.7c0.7,0.6,1.1,1.5,1.1,2.7c0,1.2-0.4,2.1-1.1,2.8c-0.7,0.6-1.6,1-2.7,1
		c-1.1,0-2-0.3-2.7-0.9c-0.8-0.7-1.2-1.6-1.2-2.8c0-1.6,0.8-2.7,2.3-3.3c-1.4-0.6-2.1-1.6-2.1-3.1c0-1,0.4-1.8,1.1-2.5
		c0.7-0.6,1.5-0.9,2.6-0.9c1.1,0,1.9,0.3,2.6,0.9c0.7,0.6,1,1.3,1,2.2C87.5,10.4,86.7,11.4,85.3,12z M83.7,13.2
		c-1.1,0.5-1.6,1.3-1.6,2.4c0,0.6,0.2,1.1,0.5,1.5c0.4,0.4,0.8,0.6,1.4,0.6c1.2,0,1.8-0.6,1.8-1.9c0-1-0.5-1.8-1.4-2.2
		C83.9,13.3,83.7,13.2,83.7,13.2z M84,11.5c1-0.6,1.5-1.3,1.5-2.2c0-1.2-0.6-1.7-1.7-1.7c-1.2,0-1.7,0.6-1.7,1.7
		c0,0.6,0.2,1.1,0.6,1.5c0.2,0.1,0.5,0.3,0.9,0.6L84,11.5z"/>
	<path class="st0" d="M92,20.8h-1.9v-9.3c0-0.1,0-0.3,0-0.6c0-0.4,0-1-0.1-1.7h1.8l0,1.3c0.6-1,1.5-1.4,2.7-1.4c1.1,0,1.9,0.3,2.5,1
		c0.7,0.8,1.1,1.9,1.1,3.3c0,2.9-1.2,4.3-3.7,4.3c-1.2,0-2-0.4-2.5-1.3c0,0.8,0,1.3,0,1.6V20.8z M94.1,10.6c-1.4,0-2.1,0.9-2.1,2.8
		c0,1.8,0.7,2.7,2.1,2.7c0.6,0,1.1-0.2,1.5-0.7c0.4-0.5,0.6-1.2,0.6-2C96.2,11.5,95.5,10.6,94.1,10.6z"/>
</g>
</svg>
