<?xml version="1.0" encoding="utf-8"?>
<!-- Generator: Adobe Illustrator 21.1.0, SVG Export Plug-In . SVG Version: 6.00 Build 0)  -->
<svg version="1.0" id="ƒŒƒCƒ„[_1" xmlns="http://www.w3.org/2000/svg" xmlns:xlink="http://www.w3.org/1999/xlink" x="0px"
	 y="0px" width="102px" height="24px" viewBox="0 0 102 24" style="enable-background:new 0 0 102 24;" xml:space="preserve">
<style type="text/css">
	.st0{fill:#FFFFFF;}
</style>
<g>
	<path class="st0" d="M14.6,14.2v2h-1.7v3h-2.2v-3H5.1v-2.3l4.8-9.3h3v9.6H14.6z M10.7,14.2l0.1-5.9c0-0.4,0.1-1.1,0.2-2
		C10.7,7,10.4,7.6,10.2,8l-3.1,6.2H10.7z"/>
	<path class="st0" d="M24.1,17.1v2h-8.4v-2.3c1.8-1.8,3.1-3.4,4.1-4.7c1-1.4,1.5-2.5,1.5-3.5c0-1.5-0.7-2.3-2.2-2.3
		c-1,0-1.9,0.4-2.9,1.1L16,5.3c1.4-0.7,2.6-1,3.8-1c1.1,0,2,0.3,2.7,1c0.8,0.8,1.2,1.8,1.2,3.1c0,1.2-0.5,2.6-1.5,4.2
		c-1.1,1.7-2.3,3.2-3.7,4.6H24.1z"/>
	<path class="st0" d="M34.2,17.1v2h-8.4v-2.3c1.8-1.8,3.1-3.4,4.1-4.7c1-1.4,1.5-2.5,1.5-3.5c0-1.5-0.7-2.3-2.2-2.3
		c-1,0-1.9,0.4-2.9,1.1l-0.2-2.2c1.4-0.7,2.6-1,3.8-1c1.1,0,2,0.3,2.7,1c0.8,0.8,1.2,1.8,1.2,3.1c0,1.2-0.5,2.6-1.5,4.2
		c-1.1,1.7-2.3,3.2-3.7,4.6H34.2z"/>
</g>
<path class="st0" d="M98,1c1.7,0,3,1.3,3,3v16c0,1.7-1.3,3-3,3H4c-1.7,0-3-1.3-3-3V4c0-1.7,1.3-3,3-3H98 M98,0H4C1.8,0,0,1.8,0,4v16
	c0,2.2,1.8,4,4,4h94c2.2,0,4-1.8,4-4V4C102,1.8,100.2,0,98,0"/>
<g>
	<path class="st0" d="M53,19.2h-2.2v-12l-2.4,2.3l-1.1-1.6L51,4.6h2V19.2z"/>
	<path class="st0" d="M57.3,19l0.1-2.3c0.9,0.4,1.7,0.6,2.6,0.6c1.9,0,2.9-0.9,2.9-2.6c0-1.9-1-2.8-3.1-2.8c-0.7,0-1.4,0.1-2.2,0.4
		l0.1-7.6h7.2v2h-5.1l-0.1,3.3c0.6-0.1,1-0.1,1.3-0.1c1.1,0,2.1,0.4,2.9,1.2c0.9,0.9,1.3,2,1.3,3.5c0,1.5-0.5,2.7-1.4,3.6
		c-0.9,0.8-2.1,1.3-3.7,1.3c-0.6,0-1.3-0.1-2.1-0.3L57.3,19z"/>
	<path class="st0" d="M71,4.3c1.3,0,2.3,0.6,3.1,1.8c0.8,1.2,1.2,3.2,1.2,5.9c0,3.1-0.6,5.2-1.8,6.3c-0.7,0.7-1.6,1.1-2.6,1.1
		c-1.4,0-2.5-0.7-3.3-2c-0.7-1.2-1.1-3-1.1-5.4C66.6,6.9,68.1,4.3,71,4.3z M71,6.3c-1.4,0-2,2-2,5.9c0,3.6,0.7,5.3,2.1,5.3
		c1.4,0,2.1-1.8,2.1-5.3c0-2.5-0.2-4.2-0.7-5C72.1,6.5,71.6,6.3,71,6.3z"/>
	<path class="st0" d="M89.9,18.9h-2v-6.1l0-0.9c0-0.5,0-1.4,0-2.9c-0.2,0.5-0.3,0.8-0.4,1.1c-0.2,0.5-0.3,0.8-0.3,0.9l-2.8,7.9h-1.9
		l-2.4-6.6c0-0.1-0.1-0.4-0.3-0.9c-0.2-0.5-0.5-1.4-0.9-2.4c0.1,1.6,0.2,2.8,0.2,3.7v6.2h-1.9V7.8h3.5l1.9,5.9l0.4,1.4
		c0.2,0.7,0.4,1.2,0.5,1.5c0.1-0.4,0.3-0.9,0.5-1.7l0.2-0.8l2-6.4h3.5V18.9z"/>
</g>
</svg>
