<?xml version="1.0" encoding="utf-8"?>
<!-- Generator: Adobe Illustrator 15.0.0, SVG Export Plug-In . SVG Version: 6.00 Build 0)  -->
<!DOCTYPE svg PUBLIC "-//W3C//DTD SVG 1.0//EN" "http://www.w3.org/TR/2001/REC-SVG-20010904/DTD/svg10.dtd">
<svg version="1.0" id="ƒŒƒCƒ„[_1" xmlns="http://www.w3.org/2000/svg" xmlns:xlink="http://www.w3.org/1999/xlink" x="0px"
	 y="0px" width="66px" height="54px" viewBox="0 0 66 54" enable-background="new 0 0 66 54" xml:space="preserve">
<path fill="#D4D4D4" d="M15.624,34.51v3.35H4.872V15.082h10.642v3.35h-7.35v6.084h6.76v3.35h-6.76v6.645H15.624z"/>
<path fill="#D4D4D4" d="M34.083,37.859H30.33l-4.489-9.57l-4.564,9.57h-3.53l5.961-11.977l-5.407-10.801h3.625l4.106,8.668
	l4.159-8.668h3.317l-5.45,10.801L34.083,37.859z"/>
<path fill="#D4D4D4" d="M47.199,34.51v3.35H36.447V15.082h10.642v3.35h-7.35v6.084h6.76v3.35h-6.76v6.645H47.199z"/>
<path fill="#D4D4D4" d="M62.609,33.799l0.135,3.527c-1.455,0.475-2.802,0.711-4.042,0.711c-2.633,0-4.791-0.889-6.474-2.666
	c-1.947-2.041-2.92-5.018-2.92-8.928c0-3.535,0.832-6.334,2.494-8.395c1.69-2.096,3.91-3.145,6.66-3.145
	c1.282,0,2.677,0.328,4.188,0.984l-0.239,3.281c-1.129-0.664-2.328-0.998-3.595-0.998c-1.954,0-3.474,0.734-4.562,2.201
	c-1.053,1.432-1.58,3.383-1.58,5.852c0,2.48,0.558,4.484,1.673,6.016c1.157,1.586,2.695,2.379,4.614,2.379
	C60.146,34.619,61.362,34.346,62.609,33.799z"/>
</svg>
