<?xml version="1.0" encoding="utf-8"?>
<!-- Generator: Adobe Illustrator 15.0.0, SVG Export Plug-In . SVG Version: 6.00 Build 0)  -->
<!DOCTYPE svg PUBLIC "-//W3C//DTD SVG 1.0//EN" "http://www.w3.org/TR/2001/REC-SVG-20010904/DTD/svg10.dtd">
<svg version="1.0" id="ƒŒƒCƒ„[_1" xmlns="http://www.w3.org/2000/svg" xmlns:xlink="http://www.w3.org/1999/xlink" x="0px"
	 y="0px" width="214px" height="120px" viewBox="0 0 214 120" enable-background="new 0 0 214 120" xml:space="preserve">
<rect opacity="0.35" fill="#FFFFFF" enable-background="new    " width="214" height="120"/>
<path opacity="0.2" fill="#FFFFFF" enable-background="new    " d="M184,97.3c0,3.7-3.1,6.8-6.8,6.8H36.8c-3.8,0-6.8-3-6.8-6.8V22.9
	c0-3.7,3.1-6.8,6.8-6.8h140.3c3.801,0,6.801,3,6.801,6.8v74.4H184z M167.7,32.2H46.3V88h121.5V32.2H167.7z"/>
<ellipse transform="matrix(-0.9718 -0.2357 0.2357 -0.9718 166.666 218.6393)" opacity="0.4" fill="#FFFFFF" enable-background="new    " cx="96.402" cy="99.357" rx="11.6" ry="11.5"/>
<path opacity="0.4" fill="#FFFFFF" enable-background="new    " d="M118.1,9.5c-7.3-1.8-14.8,2.6-16.7,9.8c0,0.1-0.2,0.7-0.2,0.8
	s-0.2,1-0.5,2.5c-0.2,1.2-0.6,3.3-0.7,4.1c-0.1,1.1-1.1,9.5-2.2,19.4c-0.5,5-1.2,10.9-1.6,15.5c-0.2,2.7-0.9,9.2-0.7,13.9
	c0.1,2.8,2.1,5.6,5.1,6.3s6-0.8,7.4-3.3c2.3-4.1,4.7-10.1,5.7-12.6c1.7-4.2,3.899-9.8,5.7-14.5c3.6-9.3,6.6-17.2,7-18.3
	c0.3-0.8,1-2.8,1.3-4c0.399-1.5,0.7-2.4,0.7-2.5c0-0.2,0.1-0.7,0.199-0.8C130.1,18.6,125.5,11.3,118.1,9.5z"/>
</svg>
