<?xml version="1.0" encoding="utf-8"?>
<!-- Generator: Adobe Illustrator 21.1.0, SVG Export Plug-In . SVG Version: 6.00 Build 0)  -->
<svg version="1.0" id="ƒŒƒCƒ„[_1" xmlns="http://www.w3.org/2000/svg" xmlns:xlink="http://www.w3.org/1999/xlink" x="0px"
	 y="0px" width="102px" height="24px" viewBox="0 0 102 24" style="enable-background:new 0 0 102 24;" xml:space="preserve">
<style type="text/css">
	.st0{fill:#FFFFFF;}
</style>
<g>
	<path class="st0" d="M18.5,19.2h-2.3v-6.4h-5.6v6.4H8.4V4.6h2.3v6.1h5.6V4.6h2.3V19.2z"/>
	<path class="st0" d="M21.5,19.2V4.6h2.8c2.6,0,4.4,0.5,5.7,1.4c1.5,1.2,2.3,3.1,2.3,5.8c0,5-2.4,7.4-7.2,7.4H21.5z M23.8,17.2h0.2
		H24h0.2h0.3c3.6,0,5.3-1.8,5.3-5.3c0-1.7-0.4-3-1.3-4c-0.7-0.8-1.8-1.2-3.2-1.3c-0.4,0-0.9,0-1.6-0.1V17.2z"/>
</g>
<path class="st0" d="M98,1c1.7,0,3,1.3,3,3v16c0,1.7-1.3,3-3,3H4c-1.7,0-3-1.3-3-3V4c0-1.7,1.3-3,3-3H98 M98,0H4C1.8,0,0,1.8,0,4v16
	c0,2.2,1.8,4,4,4h94c2.2,0,4-1.8,4-4V4C102,1.8,100.2,0,98,0"/>
<g>
	<path class="st0" d="M39.1,19.2h-1.6l5.4-14.6h1.6L39.1,19.2z"/>
</g>
<g>
	<path class="st0" d="M47.4,19l0.1-2.3c0.9,0.4,1.7,0.6,2.6,0.6c1.9,0,2.9-0.9,2.9-2.6c0-1.9-1-2.8-3.1-2.8c-0.7,0-1.4,0.1-2.2,0.4
		l0.1-7.6h7.2v2h-5.1l-0.1,3.3c0.6-0.1,1-0.1,1.3-0.1c1.1,0,2.1,0.4,2.9,1.2c0.9,0.9,1.3,2,1.3,3.5c0,1.5-0.5,2.7-1.4,3.6
		c-0.9,0.8-2.1,1.3-3.7,1.3c-0.6,0-1.3-0.1-2.1-0.3L47.4,19z"/>
	<path class="st0" d="M61,4.3c1.3,0,2.3,0.6,3.1,1.8c0.8,1.2,1.2,3.2,1.2,5.9c0,3.1-0.6,5.2-1.8,6.3c-0.7,0.7-1.6,1.1-2.6,1.1
		c-1.4,0-2.5-0.7-3.3-2c-0.7-1.2-1-3-1-5.4C56.7,6.9,58.1,4.3,61,4.3z M61,6.3c-1.4,0-2,2-2,5.9c0,3.6,0.7,5.3,2.1,5.3
		c1.4,0,2.1-1.8,2.1-5.3c0-2.5-0.2-4.2-0.7-5C62.1,6.5,61.6,6.3,61,6.3z"/>
	<path class="st0" d="M69,16.7v2.3h-2v-2.3H69z"/>
	<path class="st0" d="M74.3,5.8c1.2,0,2.1,0.5,2.8,1.6c0.7,1.1,1.1,2.8,1.1,5.2c0,2.7-0.5,4.6-1.6,5.6c-0.7,0.6-1.4,1-2.3,1
		c-1.3,0-2.3-0.6-2.9-1.8c-0.6-1.1-0.9-2.7-0.9-4.8C70.5,8.1,71.8,5.8,74.3,5.8z M74.3,7.6c-1.2,0-1.8,1.7-1.8,5.2
		c0,3.2,0.6,4.7,1.9,4.7c1.2,0,1.8-1.6,1.8-4.7c0-2.2-0.2-3.7-0.6-4.5C75.3,7.8,74.9,7.6,74.3,7.6z"/>
	<path class="st0" d="M83.9,5.8c1.2,0,2.1,0.5,2.8,1.6c0.7,1.1,1.1,2.8,1.1,5.2c0,2.7-0.5,4.6-1.6,5.6c-0.7,0.6-1.4,1-2.3,1
		c-1.3,0-2.3-0.6-2.9-1.8c-0.6-1.1-0.9-2.7-0.9-4.8C80,8.1,81.3,5.8,83.9,5.8z M83.9,7.6c-1.2,0-1.8,1.7-1.8,5.2
		c0,3.2,0.6,4.7,1.9,4.7c1.2,0,1.8-1.6,1.8-4.7c0-2.2-0.2-3.7-0.6-4.5C84.8,7.8,84.4,7.6,83.9,7.6z"/>
	<path class="st0" d="M92,20.8h-1.9v-9.3c0-0.1,0-0.3,0-0.6c0-0.4,0-1-0.1-1.7h1.8l0,1.3c0.6-1,1.5-1.4,2.7-1.4c1.1,0,1.9,0.3,2.5,1
		c0.7,0.8,1.1,1.9,1.1,3.3c0,2.9-1.2,4.3-3.7,4.3c-1.2,0-2-0.4-2.5-1.3c0,0.8,0,1.3,0,1.6V20.8z M94.1,10.6c-1.4,0-2.1,0.9-2.1,2.8
		c0,1.8,0.7,2.7,2.1,2.7c0.6,0,1.1-0.2,1.5-0.7c0.4-0.5,0.6-1.2,0.6-2C96.2,11.5,95.5,10.6,94.1,10.6z"/>
</g>
</svg>
