<?xml version="1.0" encoding="utf-8"?>
<!-- Generator: Adobe Illustrator 15.0.0, SVG Export Plug-In . SVG Version: 6.00 Build 0)  -->
<!DOCTYPE svg PUBLIC "-//W3C//DTD SVG 1.0//EN" "http://www.w3.org/TR/2001/REC-SVG-20010904/DTD/svg10.dtd">
<svg version="1.0" id="ƒŒƒCƒ„[_1" xmlns="http://www.w3.org/2000/svg" xmlns:xlink="http://www.w3.org/1999/xlink" x="0px"
	 y="0px" width="80px" height="30px" viewBox="0 0 80 30" enable-background="new 0 0 80 30" xml:space="preserve">
<path fill="#FFFFFF" d="M76,30H4c-2.209,0-4-1.791-4-4V4c0-2.209,1.791-4,4-4h72c2.209,0,4,1.791,4,4v22C80,28.209,78.209,30,76,30"
	/>
<g>
	<path d="M32.148,23.453h-2.646v-8.955l0.035-1.309c0.018-0.677,0.035-2.115,0.053-4.316c-0.211,0.71-0.366,1.247-0.466,1.611
		c-0.199,0.697-0.328,1.143-0.387,1.338l-3.709,11.631h-2.443l-3.155-9.658c-0.053-0.162-0.182-0.599-0.387-1.309
		c-0.234-0.807-0.618-2.005-1.151-3.594c0.141,2.292,0.211,4.108,0.211,5.449v9.111h-2.487V7.184h4.518l2.549,8.643l0.563,2.002
		c0.311,0.989,0.521,1.741,0.633,2.256c0.129-0.579,0.357-1.394,0.686-2.44l0.308-1.104l2.663-9.355h4.614v16.268H32.148z"/>
	<path d="M42.016,6.832c1.821,0,3.346,0.547,4.569,1.641c1.74,1.557,2.61,3.828,2.61,6.816c0,2.676-0.688,4.792-2.065,6.348
		c-1.282,1.445-3.009,2.168-5.177,2.168c-2.197,0-3.946-0.773-5.247-2.324c-1.277-1.522-1.916-3.555-1.916-6.093
		c0-2.747,0.68-4.883,2.039-6.406C38.112,7.549,39.841,6.832,42.016,6.832z M41.9,9.068c-1.103,0-2.007,0.407-2.716,1.221
		c-1.031,1.179-1.547,2.855-1.547,5.029c0,1.752,0.346,3.2,1.037,4.346c0.768,1.27,1.875,1.904,3.322,1.904
		c1.412,0,2.508-0.635,3.287-1.904c0.715-1.172,1.072-2.607,1.072-4.307c0-1.758-0.363-3.219-1.09-4.385
		C44.48,9.703,43.359,9.068,41.9,9.068z"/>
	<path d="M58.852,23.453h-3.375l-5.168-16.27h2.795l3.217,10.605c0.117,0.385,0.428,1.481,0.932,3.291
		c0.65-2.345,0.979-3.524,0.984-3.545l3.103-10.352h2.584L58.852,23.453z"/>
</g>
</svg>
