<?xml version="1.0" encoding="utf-8"?>
<!-- Generator: Adobe Illustrator 15.0.0, SVG Export Plug-In . SVG Version: 6.00 Build 0)  -->
<!DOCTYPE svg PUBLIC "-//W3C//DTD SVG 1.0//EN" "http://www.w3.org/TR/2001/REC-SVG-20010904/DTD/svg10.dtd">
<svg version="1.0" id="ƒŒƒCƒ„[_1" xmlns="http://www.w3.org/2000/svg" xmlns:xlink="http://www.w3.org/1999/xlink" x="0px"
	 y="0px" width="24px" height="24px" viewBox="0 0 24 24" enable-background="new 0 0 24 24" xml:space="preserve">
<path fill="#FFFFFF" d="M20.8,3.6c0-0.3-0.3-0.5-0.6-0.5l-4.5,0.6l-0.2-1.4c-0.1-0.8-0.8-1.3-1.6-1.2l-4,0.5C9,1.6,8.5,2.3,8.6,3.1
	l0.2,1.4L3.7,5.2c-0.3,0-0.5,0.3-0.5,0.6l0.1,0.6c0,0.3,0.3,0.5,0.6,0.5l16.4-2.1c0.3,0,0.5-0.3,0.5-0.6V3.6z"/>
<path fill="#FFFFFF" d="M18.5,7.4H6.3C5.6,7.4,5,8,5,8.7l0.5,13.1c0,0.7,0.6,1.3,1.3,1.3H18c0.7,0,1.3-0.6,1.3-1.3l0.5-13.1
	C19.8,8,19.2,7.4,18.5,7.4z M16.2,10.2L16.2,10.2L16.2,10.2c0.2,0,0.399,0.1,0.5,0.2c0.1,0.1,0.2,0.3,0.2,0.5L16.6,19.4
	c0,0.399-0.3,0.699-0.8,0.699l0,0c-0.2,0-0.399-0.1-0.5-0.199c-0.1-0.101-0.2-0.301-0.2-0.5l0.301-8.5c0-0.2,0.1-0.4,0.199-0.5
	C15.8,10.3,16,10.2,16.2,10.2z M13.1,10.9v8.5c0,0.399-0.3,0.699-0.7,0.699s-0.7-0.3-0.7-0.699v-8.5c0-0.4,0.3-0.7,0.7-0.7
	S13.1,10.5,13.1,10.9z M8.9,20.2c-0.4,0-0.7-0.3-0.7-0.7L7.9,11c0-0.2,0.1-0.4,0.2-0.5s0.3-0.2,0.5-0.2c0.4,0,0.7,0.3,0.8,0.7
	l0.3,8.5c0,0.2-0.1,0.4-0.2,0.5S9.2,20.2,8.9,20.2z"/>
</svg>
