<?xml version="1.0" encoding="utf-8"?>
<!-- Generator: Adobe Illustrator 15.0.0, SVG Export Plug-In . SVG Version: 6.00 Build 0)  -->
<!DOCTYPE svg PUBLIC "-//W3C//DTD SVG 1.0//EN" "http://www.w3.org/TR/2001/REC-SVG-20010904/DTD/svg10.dtd">
<svg version="1.0" id="ƒŒƒCƒ„[_1" xmlns="http://www.w3.org/2000/svg" xmlns:xlink="http://www.w3.org/1999/xlink" x="0px"
	 y="0px" width="66px" height="54px" viewBox="0 0 66 54" enable-background="new 0 0 66 54" xml:space="preserve">
<path fill="#D4D4D4" d="M10.081,37.859V15.082h4.036c3.704,0,6.435,0.734,8.192,2.201c2.231,1.869,3.347,4.867,3.347,8.996
	c0,7.721-3.46,11.58-10.38,11.58H10.081z M13.373,34.756h0.263h0.12h0.252h0.394c5.148,0,7.722-2.756,7.722-8.271
	c0-2.625-0.634-4.676-1.903-6.152c-1.028-1.203-2.56-1.877-4.594-2.023c-0.605-0.045-1.356-0.076-2.253-0.096V34.756z"/>
<path fill="#D4D4D4" d="M41.279,34.51v3.35H29.184V15.082h11.973v3.35h-8.269v6.084h7.604v3.35h-7.604v6.645H41.279z"/>
<path fill="#D4D4D4" d="M57.441,34.51v3.35H45.432V15.082h3.704V34.51H57.441z"/>
</svg>
