<?xml version="1.0" encoding="utf-8"?>
<!-- Generator: Adobe Illustrator 15.0.0, SVG Export Plug-In . SVG Version: 6.00 Build 0)  -->
<!DOCTYPE svg PUBLIC "-//W3C//DTD SVG 1.0//EN" "http://www.w3.org/TR/2001/REC-SVG-20010904/DTD/svg10.dtd">
<svg version="1.0" id="ƒŒƒCƒ„[_1" xmlns="http://www.w3.org/2000/svg" xmlns:xlink="http://www.w3.org/1999/xlink" x="0px"
	 y="0px" width="80px" height="30px" viewBox="0 0 80 30" enable-background="new 0 0 80 30" xml:space="preserve">
<path fill="#FFFFFF" d="M76,0H4C1.791,0,0,1.791,0,4v22c0,2.209,1.791,4,4,4h72c2.209,0,4-1.791,4-4V4C80,1.791,78.209,0,76,0"/>
<g>
	<path d="M19.868,23.328H17.13l-1.26-3.789H9.52l-1.234,3.789H5.725l5.526-16.27h2.931L19.868,23.328z M15.089,17.156l-1.957-6.133
		c-0.134-0.423-0.288-1.116-0.462-2.08c-0.173,0.971-0.353,1.752-0.537,2.344l-1.831,5.869H15.089z"/>
	<path d="M28.321,23.328h-3.225l-4.938-16.27h2.671l3.073,10.605c0.112,0.385,0.409,1.481,0.891,3.291
		c0.621-2.345,0.935-3.524,0.94-3.545l2.965-10.352h2.469L28.321,23.328z"/>
	<path d="M45.039,20.428l0.109,2.52c-1.176,0.34-2.267,0.509-3.269,0.509c-2.128,0-3.871-0.636-5.232-1.903
		c-1.573-1.459-2.359-3.584-2.359-6.378c0-2.525,0.672-4.524,2.016-5.996c1.366-1.497,3.16-2.246,5.382-2.246
		c1.037,0,2.164,0.234,3.385,0.703L44.88,9.98c-0.912-0.475-1.881-0.713-2.905-0.713c-1.579,0-2.809,0.524-3.688,1.572
		c-0.851,1.022-1.276,2.416-1.276,4.18c0,1.771,0.451,3.204,1.353,4.297c0.935,1.133,2.178,1.699,3.729,1.699
		C43.049,21.014,44.031,20.818,45.039,20.428z"/>
	<path d="M58.346,23.328h-2.527v-7.139h-6.172v7.139h-2.528V7.059h2.528v6.738h6.172V7.059h2.527V23.328z"/>
	<path d="M61.551,23.328V7.059h3.1c2.845,0,4.94,0.524,6.291,1.572c1.713,1.335,2.568,3.477,2.568,6.426
		c0,5.515-2.656,8.271-7.97,8.271H61.551z M64.079,21.111h0.2h0.094h0.191h0.304c3.952,0,5.93-1.969,5.93-5.908
		c0-1.875-0.487-3.34-1.462-4.395c-0.789-0.859-1.965-1.341-3.527-1.445c-0.465-0.032-1.041-0.055-1.729-0.068L64.079,21.111
		L64.079,21.111z"/>
</g>
</svg>
