<?xml version="1.0" encoding="utf-8"?>
<!-- Generator: Adobe Illustrator 15.0.0, SVG Export Plug-In . SVG Version: 6.00 Build 0)  -->
<!DOCTYPE svg PUBLIC "-//W3C//DTD SVG 1.0//EN" "http://www.w3.org/TR/2001/REC-SVG-20010904/DTD/svg10.dtd">
<svg version="1.0" id="ƒŒƒCƒ„[_1" xmlns="http://www.w3.org/2000/svg" xmlns:xlink="http://www.w3.org/1999/xlink" x="0px"
	 y="0px" width="80px" height="24px" viewBox="0 0 80 24" enable-background="new 0 0 80 24" xml:space="preserve">
<path fill="#FFFFFF" d="M18.562,19.195h-2.275v-6.424h-5.556v6.424H8.456V4.553h2.275v6.064h5.556V4.553h2.275V19.195z"/>
<path fill="#FFFFFF" d="M32.852,19.195h-2.464l-1.134-3.41H23.54l-1.111,3.41h-2.305l4.974-14.643h2.638L32.852,19.195z
	 M28.551,13.641l-1.761-5.52C26.669,7.74,26.53,7.117,26.374,6.25c-0.156,0.873-0.317,1.576-0.484,2.109l-1.647,5.281H28.551z"/>
<path fill="#FFFFFF" d="M76,1c1.654,0,3,1.347,3,3v16c0,1.654-1.346,3-3,3H4c-1.654,0-3-1.346-3-3V4c0-1.653,1.346-3,3-3H76 M76,0H4
	C1.791,0,0,1.791,0,4v16c0,2.209,1.791,4,4,4h72c2.209,0,4-1.791,4-4V4C80,1.791,78.209,0,76,0"/>
<path fill="#FFFFFF" d="M39.066,19.195h-1.554L42.94,4.553h1.554L39.066,19.195z"/>
<path fill="#FFFFFF" d="M47.353,18.994l0.053-2.33c0.852,0.41,1.711,0.615,2.578,0.615c1.915,0,2.872-0.879,2.872-2.637
	c0-1.857-1.038-2.785-3.114-2.785c-0.681,0-1.409,0.117-2.185,0.352l0.106-7.586h7.203v2.021h-5.08l-0.083,3.297
	c0.575-0.064,1.018-0.098,1.331-0.098c1.144,0,2.119,0.398,2.925,1.195c0.892,0.879,1.338,2.045,1.338,3.498
	c0,1.523-0.461,2.73-1.383,3.621c-0.887,0.844-2.127,1.266-3.719,1.266c-0.625,0-1.335-0.09-2.131-0.271L47.353,18.994z"/>
<path fill="#FFFFFF" d="M57.017,18.344l0.824-1.75c0.73,0.586,1.494,0.879,2.29,0.879c1.209,0,2.031-0.469,2.464-1.406
	c0.333-0.715,0.512-1.869,0.537-3.463c-0.575,0.955-1.401,1.434-2.479,1.434c-1.28,0-2.263-0.469-2.948-1.406
	c-0.65-0.896-0.975-2.045-0.975-3.445c0-1.412,0.33-2.549,0.99-3.41c0.736-0.967,1.839-1.451,3.311-1.451
	c2.857,0,4.286,2.395,4.286,7.182c0,2.754-0.35,4.74-1.05,5.959c-0.786,1.354-2.054,2.029-3.802,2.029
	C59.234,19.494,58.085,19.111,57.017,18.344z M60.909,6.258c-1.265,0-1.897,0.965-1.897,2.893c0,0.885,0.187,1.594,0.559,2.127
	c0.348,0.486,0.807,0.729,1.376,0.729c1.285,0,1.927-0.904,1.927-2.715C62.875,7.27,62.22,6.258,60.909,6.258z"/>
<path fill="#FFFFFF" d="M69.734,13.527v5.668h-2.275V4.553h3.711c1.517,0,2.666,0.311,3.447,0.932
	c1.048,0.832,1.572,2.008,1.572,3.525c0,1.576-0.549,2.801-1.647,3.674c-0.731,0.58-1.741,0.869-3.031,0.869l-0.574-0.008
	l-0.816-0.01h-0.174L69.734,13.527z M69.734,11.506h0.197c1.36-0.012,2.217-0.094,2.57-0.246c0.827-0.352,1.24-1.09,1.24-2.215
	c0-1.131-0.371-1.863-1.111-2.197c-0.408-0.188-1.242-0.291-2.502-0.309h-0.189l-0.204-0.008V11.506z"/>
</svg>
