<?xml version="1.0" encoding="utf-8"?>
<!-- Generator: Adobe Illustrator 15.0.0, SVG Export Plug-In . SVG Version: 6.00 Build 0)  -->
<!DOCTYPE svg PUBLIC "-//W3C//DTD SVG 1.0//EN" "http://www.w3.org/TR/2001/REC-SVG-20010904/DTD/svg10.dtd">
<svg version="1.0" id="ƒŒƒCƒ„[_1" xmlns="http://www.w3.org/2000/svg" xmlns:xlink="http://www.w3.org/1999/xlink" x="0px"
	 y="0px" width="60px" height="30px" viewBox="0 0 60 30" enable-background="new 0 0 60 30" xml:space="preserve">
<g>
	<path fill="#CCCCCC" d="M16.78,5.57h3.069v11.883c0,5.375-2.38,8.063-7.14,8.063c-4.831,0-7.246-2.703-7.246-8.109V5.57h3.175
		v11.484c0,3.773,1.36,5.66,4.082,5.66c1.99,0,3.259-0.957,3.807-2.871c0.169-0.586,0.253-1.574,0.253-2.965V5.57z"/>
	<path fill="#CCCCCC" d="M24.057,25.094V5.57h6.001c4.092,0,6.139,1.629,6.139,4.887c0,1.516-0.496,2.645-1.487,3.387
		c-0.598,0.445-1.543,0.793-2.837,1.043c1.216,0.211,2.134,0.48,2.752,0.809c1.483,0.781,2.226,2.148,2.226,4.102
		c0,2.414-1.128,4.039-3.386,4.875c-0.759,0.281-1.993,0.422-3.702,0.422H24.057z M27.232,13.645h2.436
		c2.236,0,3.354-0.895,3.354-2.684c0-1.82-1.076-2.73-3.228-2.73h-2.563V13.645z M27.232,22.445H29.7
		c2.644,0,3.966-1.047,3.966-3.141c0-2.07-1.241-3.105-3.723-3.105h-2.71V22.445z"/>
	<path fill="#CCCCCC" d="M54.843,13.926v10.313c-1.856,0.672-3.786,1.008-5.79,1.008c-3.741,0-6.381-1.254-7.921-3.762
		c-1.076-1.758-1.613-3.859-1.613-6.305c0-3.07,0.974-5.496,2.921-7.277c1.814-1.656,4.198-2.484,7.151-2.484
		c1.617,0,3.195,0.262,4.735,0.785l-0.19,2.977c-1.434-0.641-2.942-0.961-4.524-0.961c-2.096,0-3.72,0.59-4.873,1.77
		c-1.203,1.219-1.804,2.969-1.804,5.25c0,2.156,0.545,3.875,1.635,5.156c1.16,1.367,2.739,2.051,4.735,2.051
		c0.773,0,1.625-0.152,2.553-0.457v-5.203h-3.871v-2.859H54.843z"/>
</g>
</svg>
