<?xml version="1.0" encoding="utf-8"?>
<!-- Generator: Adobe Illustrator 15.0.0, SVG Export Plug-In . SVG Version: 6.00 Build 0)  -->
<!DOCTYPE svg PUBLIC "-//W3C//DTD SVG 1.0//EN" "http://www.w3.org/TR/2001/REC-SVG-20010904/DTD/svg10.dtd">
<svg version="1.0" id="ƒŒƒCƒ„[_1" xmlns="http://www.w3.org/2000/svg" xmlns:xlink="http://www.w3.org/1999/xlink" x="0px"
	 y="0px" width="68px" height="32px" viewBox="0 0 68 32" enable-background="new 0 0 68 32" xml:space="preserve">
<rect fill="#47484A" width="68" height="32"/>
<g>
	<path fill="#FFFFFF" d="M19.281,26.768h-4.788L7.161,5.128h3.965l4.564,14.104c0.166,0.512,0.606,1.971,1.321,4.377
		c0.923-3.116,1.388-4.688,1.396-4.715L22.81,5.128h3.666L19.281,26.768z"/>
	<path fill="#FFFFFF" d="M33.084,17.182v9.586h-3.753V5.128h11.347V8.31h-7.593v5.702h7.308v3.169H33.084L33.084,17.182z"/>
	<path fill="#FFFFFF" d="M48.408,26.768h-3.791V5.128h7.27c4.971,0,7.456,1.875,7.456,5.624c0,2.797-1.653,4.516-4.962,5.156
		c0.948,0.286,1.637,0.693,2.07,1.221c0.365,0.451,0.765,1.217,1.197,2.299l2.942,7.338h-4.14l-2.307-6.168
		c-0.467-1.256-0.978-2.088-1.535-2.494c-0.481-0.355-1.264-0.533-2.344-0.533h-1.857V26.768z M48.371,14.636h2.779
		c2.785,0,4.178-1.117,4.178-3.351c0-2.104-1.276-3.156-3.828-3.156h-3.129V14.636z"/>
</g>
</svg>
