<?xml version="1.0" encoding="utf-8"?>
<!-- Generator: Adobe Illustrator 15.0.0, SVG Export Plug-In . SVG Version: 6.00 Build 0)  -->
<!DOCTYPE svg PUBLIC "-//W3C//DTD SVG 1.0//EN" "http://www.w3.org/TR/2001/REC-SVG-20010904/DTD/svg10.dtd">
<svg version="1.0" id="ƒŒƒCƒ„[_1" xmlns="http://www.w3.org/2000/svg" xmlns:xlink="http://www.w3.org/1999/xlink" x="0px"
	 y="0px" width="44px" height="36px" viewBox="0 0 44 36" enable-background="new 0 0 44 36" xml:space="preserve">
<path d="M41.9,9c-1.2-1.2-2.5-2.3-3.801-3.2C37.5,5.4,37,5,36.4,4.7C36,4.4,35.6,4.2,35.2,4C34.1,3.4,33.1,2.9,31.9,2.5
	C30,1.8,28.1,1.3,26.1,1c-1.399-0.2-2.8-0.3-4.2-0.3c-2.3,0-4.7,0.3-6.9,0.8c-1,0.3-2,0.6-3,0.9c-1,0.5-2.1,1-3.2,1.6
	C8.4,4.2,8,4.4,7.6,4.7C7,5,6.5,5.4,5.9,5.7C4.6,6.7,3.3,7.8,2.1,9l-1.4,1.4l14.9,15.1l0,0l0.3,0.3l0,0c-0.1,0.2-0.2,0.4-0.3,0.7
	l0,0c-0.1,0.2-0.1,0.4-0.2,0.6c0,0,0,0,0,0.101c0,0.2-0.1,0.399-0.1,0.6V27.9c0,0.199,0,0.5,0,0.8c0,0.5,0,0.899,0.1,1.399
	c0.6,3.101,3.3,5.4,6.6,5.4l0,0l0,0c3.2,0,6-2.3,6.6-5.4C28.7,29.7,28.7,29.2,28.7,28.7c0-0.3,0-0.5,0-0.8V27.8
	c0-0.2-0.101-0.399-0.101-0.6c0,0,0,0,0-0.101C28.5,26.9,28.5,26.7,28.4,26.5l0,0c-0.101-0.2-0.2-0.4-0.301-0.7l0,0l0.301-0.3l0,0
	L43.3,10.4L41.9,9z"/>
<path fill="#FFD800" d="M26.7,28.7C26.7,26.1,24.6,24,22,24c-2.6,0-4.7,2.1-4.7,4.7c0,2.6,2.1,4.7,4.7,4.7
	C24.6,33.4,26.7,31.3,26.7,28.7"/>
<g>
	<path fill="#9D9D9D" d="M3.5,10.4L6,12.9c4.1-4.1,9.7-6.7,16-6.7s11.9,2.6,16,6.7l2.5-2.5C35.7,5.6,29.2,2.7,22,2.7
		S8.3,5.6,3.5,10.4z"/>
	<path fill="#FFD800" d="M13.3,20.3l2.4,2.4c1.6-1.601,3.9-2.601,6.4-2.601c2.5,0,4.7,1,6.4,2.601l2.4-2.4
		c-2.301-2.2-5.301-3.6-8.7-3.6C18.8,16.7,15.5,18.1,13.3,20.3z"/>
	<path fill="#FFD800" d="M8.4,15.3l2.4,2.5c2.9-2.9,6.8-4.7,11.2-4.7c4.4,0,8.3,1.8,11.2,4.7l2.399-2.5c-3.5-3.5-8.3-5.6-13.6-5.6
		S11.9,11.8,8.4,15.3z"/>
</g>
<path fill="#FFFFFF" d="M35,34.6L32.9,29.2C32.8,29,32.8,28.9,32.7,28.8v5.9H26V15.9h7.1c6.5,0,7.301,4.1,7.301,5.8
	c0,0.899-0.2,2.7-1.801,4c0.2,0.3,0.301,0.7,0.5,1.1l3.2,7.7H35V34.6z"/>
<g>
	<path d="M30.7,32.6H28V17.9h5.1c3.5,0,5.301,1.3,5.301,3.8c0,1.899-1.2,3.1-3.5,3.5c0.699,0.2,1.199,0.5,1.5,0.8
		c0.3,0.3,0.5,0.8,0.8,1.6l2.1,5H36.4L34.8,28.4c-0.3-0.801-0.7-1.4-1.1-1.7c-0.3-0.2-0.9-0.4-1.7-0.4h-1.3V32.6z M30.6,24.4h2
		c2,0,2.9-0.801,2.9-2.301c0-1.399-0.9-2.1-2.7-2.1h-2.2V24.4z"/>
</g>
</svg>
