<?xml version="1.0" encoding="utf-8"?>
<!-- Generator: Adobe Illustrator 15.0.0, SVG Export Plug-In . SVG Version: 6.00 Build 0)  -->
<!DOCTYPE svg PUBLIC "-//W3C//DTD SVG 1.0//EN" "http://www.w3.org/TR/2001/REC-SVG-20010904/DTD/svg10.dtd">
<svg version="1.0" id="ƒŒƒCƒ„[_1" xmlns="http://www.w3.org/2000/svg" xmlns:xlink="http://www.w3.org/1999/xlink" x="0px"
	 y="0px" width="180px" height="226px" viewBox="0 0 180 226" enable-background="new 0 0 180 226" xml:space="preserve">
<path opacity="0.75" enable-background="new    " d="M174,226H6c-3.3,0-6-2.7-6-6V6c0-3.3,2.7-6,6-6h168c3.3,0,6,2.7,6,6v214
	C180,223.3,177.3,226,174,226z"/>
<path fill="#868686" d="M174,2c2.2,0,4,1.8,4,4v214c0,2.2-1.8,4-4,4H6c-2.2,0-4-1.8-4-4V6c0-2.2,1.8-4,4-4H174 M174,0H6
	C2.7,0,0,2.7,0,6v214c0,3.3,2.7,6,6,6h168c3.3,0,6-2.7,6-6V6C180,2.7,177.3,0,174,0L174,0z"/>
</svg>
