<?xml version="1.0" encoding="utf-8"?>
<!-- Generator: Adobe Illustrator 15.0.0, SVG Export Plug-In . SVG Version: 6.00 Build 0)  -->
<!DOCTYPE svg PUBLIC "-//W3C//DTD SVG 1.0//EN" "http://www.w3.org/TR/2001/REC-SVG-20010904/DTD/svg10.dtd">
<svg version="1.0" id="ƒŒƒCƒ„[_1" xmlns="http://www.w3.org/2000/svg" xmlns:xlink="http://www.w3.org/1999/xlink" x="0px"
	 y="0px" width="158px" height="66px" viewBox="0 0 158 66" enable-background="new 0 0 158 66" xml:space="preserve">
<path opacity="0.75" fill="#00103E" enable-background="new    " d="M152,66H6c-3.3,0-6-2.7-6-6V6c0-3.3,2.7-6,6-6h146
	c3.3,0,6,2.7,6,6v54C158,63.3,155.3,66,152,66z"/>
<path fill="#000020" d="M152,2c2.2,0,4,1.8,4,4v54c0,2.2-1.8,4-4,4H6c-2.2,0-4-1.8-4-4V6c0-2.2,1.8-4,4-4H152 M152,0H6
	C2.7,0,0,2.7,0,6v54c0,3.3,2.7,6,6,6h146c3.3,0,6-2.7,6-6V6C158,2.7,155.3,0,152,0L152,0z"/>
</svg>
